<?xml version="1.0" encoding="UTF-8"?>
<svg width="598px" height="405px" viewBox="0 0 598 405" version="1.1" xmlns="http://www.w3.org/2000/svg" xmlns:xlink="http://www.w3.org/1999/xlink">
    <title>No-Data-exams</title>
    <g id="Page-1" stroke="none" stroke-width="1" fill="none" fill-rule="evenodd">
        <g id="No-Data-exams" transform="translate(0.446000, 0.013000)">
            <path d="M121.316,127.279 L6.89,127.279 C4.448,127.279 2.468,125.299 2.468,122.857 C2.468,120.415 4.448,118.435 6.89,118.435 L121.316,118.435 C123.758,118.435 125.738,120.415 125.738,122.857 C125.738,125.299 123.758,127.279 121.316,127.279" id="Fill-5" fill="#3549CC"></path>
            <path d="M332.168,9.053 L257.62,9.053 C255.12,9.053 253.094,7.026 253.094,4.527 C253.094,2.027 255.12,0 257.62,0 L332.168,0 C334.668,0 336.694,2.027 336.694,4.527 C336.694,7.026 334.668,9.053 332.168,9.053" id="Fill-6" fill="#3549CC"></path>
            <path d="M57.845,185.634 L44.69,185.634 C41.233,185.634 38.431,182.832 38.431,179.375 L38.431,167.027 C38.431,163.57 41.233,160.768 44.69,160.768 L57.845,160.768 C61.301,160.768 64.103,163.57 64.103,167.027 L64.103,179.375 C64.103,182.832 61.301,185.634 57.845,185.634" id="Fill-7" fill="#41639F"></path>
            <path d="M440.481,404.897 L433.305,404.897 C431.419,404.897 429.89,403.368 429.89,401.482 L429.89,394.745 C429.89,392.859 431.419,391.33 433.305,391.33 L440.481,391.33 C442.367,391.33 443.897,392.859 443.897,394.745 L443.897,401.482 C443.897,403.368 442.367,404.897 440.481,404.897" id="Fill-8" fill="#03D8D8"></path>
            <path d="M569.199,117.201 L562.022,117.201 C560.136,117.201 558.607,115.673 558.607,113.787 L558.607,107.05 C558.607,105.164 560.136,103.635 562.022,103.635 L569.199,103.635 C571.085,103.635 572.613,105.164 572.613,107.05 L572.613,113.787 C572.613,115.673 571.085,117.201 569.199,117.201" id="Fill-9" fill="#41639F"></path>
            <path d="M193.557,403.468 L151.214,403.468 C148.079,403.468 145.537,400.926 145.537,397.791 C145.537,394.655 148.079,392.113 151.214,392.113 L193.557,392.113 C196.692,392.113 199.234,394.655 199.234,397.791 C199.234,400.926 196.692,403.468 193.557,403.468" id="Fill-11" fill="#03D8D8"></path>
            <path d="M465.712,363.314 L124.705,363.314 C120.755,363.314 117.554,360.112 117.554,356.163 L117.554,72.138 C117.554,68.189 120.755,64.987 124.705,64.987 L465.712,64.987 C469.661,64.987 472.863,68.189 472.863,72.138 L472.863,356.163 C472.863,360.112 469.661,363.314 465.712,363.314" id="Fill-12" fill="#202945"></path>
            <path d="M62.949,36.224 C56.836,36.224 51.863,41.197 51.863,47.31 C51.863,53.423 56.836,58.396 62.949,58.396 C69.062,58.396 74.035,53.423 74.035,47.31 C74.035,41.197 69.062,36.224 62.949,36.224 Z M62.949,63.159 C54.21,63.159 47.1,56.049 47.1,47.31 C47.1,38.571 54.21,31.461 62.949,31.461 C71.689,31.461 78.798,38.571 78.798,47.31 C78.798,56.049 71.689,63.159 62.949,63.159 L62.949,63.159 Z" id="Fill-21" fill="#FEFBEB"></path>
            <g id="Group-4" transform="translate(216.554000, 122.987000)">
                <path d="M179.154271,188 L171.44035,184.701392 C173.524619,182.510576 176.471755,181.139123 179.725538,181.139123 L182.121124,181.139123 L179.154271,188 M192.32714,157.535992 L190.271409,157.535992 C183.993178,157.535992 178.856445,152.427354 178.856445,146.184095 L178.856445,145.412202 C178.856445,139.168427 173.719711,134.060305 167.441481,134.060305 L136,134.060305 L136,33 L148.9124,33 L231,68.1015632 L192.32714,157.535992" id="Fill-14" fill="#41639F"></path>
                <polyline id="Fill-15" fill="#D3D9BA" points="149 33 136 33 136 28 149 33"></polyline>
                <path d="M170.60533,185 L136,169.737985 L136,134 L166.700679,134 C172.830986,134 177.846692,139.144324 177.846692,145.432351 L177.846692,146.209716 C177.846692,152.497224 182.862397,157.642068 188.992704,157.642068 L191,157.642068 L181.034451,181.412483 L178.695309,181.412483 C175.518188,181.412483 172.64049,182.793656 170.60533,185" id="Fill-16" fill="#41639F"></path>
                <path d="M131.442832,184 L7.26182425,184 C5.31472718,184 3.65316303,182.814007 3,181.144888 C3.50497506,181.332018 4.05280587,181.434864 4.62593707,181.434864 L128.806945,181.434864 C131.323559,181.434864 133.364113,179.452189 133.364113,177.006455 L133.364113,169 L136,170.101207 L136,179.572093 C136,182.017827 133.959446,184 131.442832,184" id="Fill-17" fill="#41639F"></path>
                <path d="M136,28 L133.359001,26.8880112 L133.359001,16.6304713 C133.359001,16.1286585 133.268467,15.6471005 133.102402,15.1994693 C134.798746,15.8293938 136,17.392052 136,19.2195418 L136,28 M105.446149,12.3126532 L33,12.3126532 C34.2333285,10.7160681 36.1888577,9.6840858 38.3921907,9.6840858 L59.4099911,9.6840858 C60.8937101,5.78351664 64.7214775,3 69.222816,3 C73.7246719,3 77.5524393,5.78351664 79.0361583,9.6840858 L100.053959,9.6840858 C102.257292,9.6840858 104.212821,10.7160681 105.446149,12.3126532" id="Fill-18" fill="#D3D9BA"></path>
                <polygon id="Fill-19" fill="#B8BDAD" points="133 134 136 134 136 33 133 33"></polygon>
                <polyline id="Fill-20" fill="#BEC3B1" points="136 32 133 32 133 27 136 27.8513608 136 32"></polyline>
                <polyline id="Fill-21" fill="#41639F" points="136 171 133 169.851053 133 135 136 135 136 171"></polyline>
                <polyline id="Fill-22" fill="#FFFFFE" points="173.57707 182 76 140.182857 127.423444 21 225 62.8171427 173.57707 182"></polyline>
                <path d="M200.937577,76.5097443 C200.744968,76.9463098 200.161474,77.1249504 199.640811,76.9071694 L134.658276,49.6800343 C134.138127,49.4617516 133.869813,48.9263316 134.062423,48.4897661 C134.255032,48.0537024 134.838526,47.8750618 135.358674,48.0928427 L200.341724,75.3199778 C200.861873,75.5377588 201.130187,76.0731788 200.937577,76.5097443" id="Fill-23" fill="#E5E5E4"></path>
                <path d="M175.939108,70.4946942 C175.751219,70.9448268 175.182028,71.129019 174.674629,70.9039527 L133.64214,52.732564 C133.134742,52.5074977 132.873004,51.9554384 133.060892,51.5053058 C133.248781,51.0551732 133.817972,50.870981 134.325371,51.0960473 L175.35786,69.267436 C175.865258,69.4925023 176.126996,70.0445616 175.939108,70.4946942" id="Fill-24" fill="#E5E5E4"></path>
                <path d="M164.938623,67.5096072 C164.74924,67.9464551 164.175521,68.1252113 163.664086,67.9067873 L132.647306,54.6813414 C132.135364,54.4629174 131.872051,53.927151 132.061434,53.4903031 C132.250817,53.0539573 132.82403,52.874699 133.335972,53.0931229 L164.352751,66.3185689 C164.864187,66.5369929 165.128006,67.0727593 164.938623,67.5096072" id="Fill-25" fill="#E5E5E4"></path>
                <path d="M194.937519,91.5097478 C194.744909,91.9463102 194.161929,92.1249495 193.641264,91.9071701 L128.65858,64.6802301 C128.137915,64.4624507 127.870116,63.9265328 128.06221,63.4904722 C128.25482,63.0539098 128.838315,62.8747687 129.35898,63.0930499 L194.341664,90.3199899 C194.862329,90.5377693 195.130129,91.0731854 194.937519,91.5097478" id="Fill-26" fill="#E5E5E4"></path>
                <path d="M169.939108,84.4946942 C169.751222,84.9448268 169.182038,85.129019 168.674142,84.9039527 L127.64263,66.732564 C127.134735,66.5074977 126.873,65.9554384 127.060886,65.5053058 C127.249275,65.0551732 127.817957,64.870981 128.325852,65.0960473 L169.357867,83.267436 C169.86526,83.4925023 170.126994,84.0445616 169.939108,84.4946942" id="Fill-27" fill="#E5E5E4"></path>
                <path d="M157.938629,83.5096072 C157.749249,83.9464551 157.175537,84.1252113 156.663603,83.9067873 L125.647741,70.6813414 C125.135806,70.4634195 124.87199,69.927151 125.061371,69.4903031 C125.250751,69.0539573 125.824463,68.874699 126.336397,69.0931229 L157.352259,82.3185689 C157.864194,82.5369929 158.12801,83.0727593 157.938629,83.5096072" id="Fill-28" fill="#E5E5E4"></path>
                <path d="M187.937577,107.509744 C187.744968,107.94631 187.161474,108.12495 186.640811,107.907169 L121.658276,80.6800229 C121.138127,80.4622418 120.869813,79.9268216 121.062423,79.4902559 C121.255032,79.0536903 121.838526,78.8750496 122.358674,79.0928306 L187.341724,106.319977 C187.861873,106.537758 188.130187,107.07368 187.937577,107.509744" id="Fill-29" fill="#E5E5E4"></path>
                <path d="M162.939108,100.494694 C162.751219,100.944827 162.182028,101.129019 161.674629,100.903953 L120.64214,82.732564 C120.134742,82.5074977 119.873004,81.9554384 120.060892,81.5053058 C120.248781,81.0551732 120.817972,80.870981 121.325371,81.0960473 L162.35786,99.267436 C162.865258,99.4925023 163.126996,100.044562 162.939108,100.494694" id="Fill-30" fill="#E5E5E4"></path>
                <path d="M150.938623,99.5095996 C150.74924,99.9464543 150.175521,100.125213 149.664086,99.9067859 L118.647306,86.6811351 C118.135364,86.4632099 117.872051,85.9274352 118.061434,85.4905805 C118.250817,85.0537258 118.824536,84.8749669 119.335972,85.0928921 L150.352751,98.319045 C150.864187,98.5369702 151.128006,99.0727449 150.938623,99.5095996" id="Fill-31" fill="#E5E5E4"></path>
                <path d="M171.937577,144.509744 C171.744968,144.94631 171.161474,145.12495 170.640811,144.907169 L105.658276,117.680023 C105.138127,117.462242 104.869813,116.926822 105.062423,116.490256 C105.255032,116.05369 105.838526,115.87505 106.358674,116.092831 L171.341724,143.319977 C171.861873,143.537758 172.130187,144.073178 171.937577,144.509744" id="Fill-32" fill="#E5E5E4"></path>
                <path d="M147.939051,138.494694 C147.751163,138.944827 147.181973,139.129019 146.674574,138.903953 L105.64214,120.732564 C105.134741,120.507498 104.873004,119.955438 105.060892,119.505306 C105.24878,119.055173 105.817971,118.870981 106.325369,119.096047 L147.357804,137.267436 C147.865704,137.492502 148.126939,138.044562 147.939051,138.494694" id="Fill-33" fill="#E5E5E4"></path>
                <path d="M135.938623,136.5096 C135.74924,136.946454 135.175521,137.125213 134.664086,136.906786 L103.647306,123.681135 C103.135364,123.46321 102.872051,122.926933 103.061434,122.490581 C103.250817,122.053726 103.824536,121.874967 104.335972,122.092892 L135.352751,135.318543 C135.864187,135.53697 136.128006,136.072745 135.938623,136.5096" id="Fill-34" fill="#E5E5E4"></path>
                <path d="M181.937577,123.509744 C181.744968,123.94631 181.161474,124.12495 180.641326,123.907169 L115.658786,96.6800229 C115.138122,96.4622418 114.869808,95.9263198 115.062417,95.4902559 C115.255027,95.0536903 115.83852,94.8750496 116.359184,95.0928306 L181.341724,122.319977 C181.861873,122.537758 182.130187,123.073178 181.937577,123.509744" id="Fill-35" fill="#E5E5E4"></path>
                <path d="M155.938849,115.494694 C155.750962,115.944827 155.182277,116.129019 154.674379,115.903953 L113.642137,97.732564 C113.134741,97.5074977 112.873005,96.9554384 113.060892,96.5053058 C113.248779,96.0551732 113.817967,95.870981 114.325865,96.0960473 L155.357605,114.267436 C155.865503,114.492502 156.127239,115.044562 155.938849,115.494694" id="Fill-36" fill="#E5E5E4"></path>
                <path d="M151.939108,124.494694 C151.751219,124.944827 151.182028,125.129019 150.674629,124.903953 L109.64214,106.732564 C109.134742,106.507498 108.873004,105.955438 109.060892,105.505306 C109.248781,105.055173 109.817972,104.870981 110.325371,105.096047 L151.35786,123.267436 C151.865258,123.492502 152.126996,124.044562 151.939108,124.494694" id="Fill-37" fill="#E5E5E4"></path>
                <path d="M144.938363,114.5096 C144.748981,114.946454 144.175772,115.125213 143.663833,114.906786 L112.647245,101.681135 C112.135813,101.46321 111.871995,100.926933 112.061376,100.490581 C112.250758,100.053726 112.824474,99.8749669 113.335906,100.092892 L144.352494,113.318543 C144.864433,113.53697 145.128251,114.072745 144.938363,114.5096" id="Fill-38" fill="#E5E5E4"></path>
                <path d="M138.93725,115.49412 C138.743631,115.944599 138.157079,116.128932 137.634203,115.904211 L111.661786,104.733896 C111.138392,104.508656 110.869189,103.956173 111.062808,103.505694 C111.256428,103.055216 111.842462,102.870882 112.365856,103.096121 L138.338273,114.266437 C138.861149,114.491158 139.130869,115.043642 138.93725,115.49412" id="Fill-39" fill="#E5E5E4"></path>
                <path d="M192.508195,85 C192.455002,85 192.401809,84.9897254 192.352196,84.9696432 C192.242741,84.9252755 192.162952,84.8370073 192.134821,84.730992 L191.010605,80.4315337 C190.966618,80.2638707 191.062775,80.0920045 191.237698,80.0266206 C191.285265,80.0084065 191.334878,80 191.383468,80 C191.513893,80 191.639716,80.0611806 191.711322,80.16813 L193.373095,82.6634597 L199.49337,80.7762003 L199.616123,80.7575191 C199.76445,80.7575191 199.905105,80.8369139 199.968016,80.9672146 C200.047294,81.1339436 199.974665,81.3282272 199.800253,81.4150943 L192.691814,84.9570334 C192.63504,84.9855221 192.571618,85 192.508195,85" id="Fill-40" fill="#67B545"></path>
                <path d="M189.863602,80 C189.753593,80 189.642432,80.0147481 189.535302,80.0462925 C189.141919,80.1614093 188.92478,80.462925 189.023846,80.7570668 L190.28924,84.5284719 C190.35202,84.7144613 190.532873,84.8693159 190.778809,84.9471528 C190.890547,84.9827939 191.010347,85 191.129572,85 C191.272411,85 191.414674,84.9750102 191.54369,84.9250307 L199.527709,81.8267104 C199.807628,81.724703 200,81.5178206 200,81.278984 C200,80.9496108 199.636566,80.6804588 199.178099,80.6653011 L199.134325,80.6644818 L199.007613,80.6710365 C198.949441,80.6771815 198.892996,80.6874232 198.838856,80.7013519 L192.293596,82.274068 L190.601988,80.2953707 C190.441294,80.1073331 190.15792,80 189.863602,80 Z M189.864178,80.6145023 L191.914611,83.013519 L199.134325,81.278984 L191.129572,84.3854977 L189.864178,80.6145023 L189.864178,80.6145023 Z" id="Fill-41" fill="#67B545"></path>
                <path d="M162.507718,153 C162.455035,153 162.40133,152.990192 162.352227,152.97011 C162.24277,152.925743 162.162978,152.837474 162.134847,152.730992 L161.010605,148.431534 C160.966618,148.264338 161.062776,148.092004 161.237704,148.026621 C161.285272,148.008874 161.334886,148 161.383477,148 C161.513905,148 161.63973,148.061181 161.711338,148.16813 L163.373149,150.663927 L169.493565,148.7762 L169.616321,148.757986 C169.764651,148.757986 169.904798,148.837381 169.96771,148.967682 C170.047502,149.134411 169.974871,149.328694 169.799943,149.415561 L162.691852,152.957033 C162.635078,152.985989 162.571142,153 162.507718,153" id="Fill-42" fill="#67B545"></path>
                <path d="M161.863997,148 C161.753985,148 161.642246,148.015156 161.535115,148.046289 C161.141724,148.161396 160.925158,148.463297 161.02365,148.757414 L162.289642,152.528101 C162.352423,152.714485 162.532703,152.869327 162.778645,152.946748 C162.89096,152.982386 163.010762,153 163.129989,153 C163.272831,153 163.415097,152.974603 163.543539,152.925037 L171.527701,149.826561 C171.8082,149.724971 172,149.517696 172,149.279289 C172,148.949533 171.63656,148.680403 171.17866,148.665247 L171.134886,148.664427 L171.007596,148.671391 C170.949422,148.677536 170.892977,148.687777 170.839411,148.701704 L164.293458,150.273882 L162.602396,148.295347 C162.441123,148.107324 162.157744,148 161.863997,148 Z M161.863997,148.614452 L163.914467,151.013272 L171.134886,149.279289 L163.129989,152.385548 L161.863997,148.614452 L161.863997,148.614452 Z" id="Fill-43" fill="#67B545"></path>
                <path d="M177.507207,117 C177.454524,117 177.400818,116.990192 177.351716,116.97011 C177.242258,116.925743 177.162467,116.837474 177.134335,116.730992 L176.010605,112.431534 C175.966618,112.264338 176.062776,112.092472 176.237704,112.026621 C176.285272,112.008874 176.334886,112 176.383477,112 C176.513905,112 176.63973,112.061181 176.711338,112.168597 L178.372637,114.663927 L184.493565,112.775733 L184.616321,112.757519 C184.764651,112.757519 184.904798,112.836914 184.96771,112.967682 C185.047502,113.133944 184.974871,113.328227 184.799943,113.415561 L177.691341,116.9575 C177.634566,116.985989 177.571142,117 177.507207,117" id="Fill-44" fill="#67B545"></path>
                <path d="M176.863602,112 C176.753593,112 176.642432,112.015156 176.535302,112.046289 C176.141919,112.161396 175.92478,112.463297 176.023846,112.757414 L177.289816,116.528101 C177.35202,116.714485 177.532873,116.869327 177.778809,116.947157 C177.891123,116.982386 178.010923,117 178.130148,117 C178.272987,117 178.41525,116.975012 178.54369,116.925037 L186.527709,113.826561 C186.808204,113.724971 187,113.518106 187,113.279289 C187,112.949533 186.636566,112.680813 186.178675,112.665656 L186.134901,112.664837 L186.008189,112.671391 C185.949441,112.677536 185.892996,112.687777 185.839432,112.701704 L179.293596,114.273882 L177.602564,112.295347 C177.441294,112.107324 177.15792,112 176.863602,112 Z M176.864178,112.614862 L178.914611,115.013682 L186.134901,113.279289 L178.130148,116.385548 L176.864178,112.614862 L176.864178,112.614862 Z" id="Fill-45" fill="#67B545"></path>
                <path d="M133,175.49139 C133,177.981418 130.963976,180 128.452947,180 L4.54756777,180 C2.03602445,180 0,177.981418 0,175.49139 L0,16.5086102 C0,14.0185825 2.03602445,12 4.54756777,12 L128.452947,12 C130.963976,12 133,14.0185825 133,16.5086102 L133,175.49139" id="Fill-74" fill="#24328F"></path>
                <path d="M133,171.599207 C133,174.029811 130.963976,176 128.452947,176 L4.54756777,176 C2.03602445,176 0,174.029811 0,171.599207 L0,16.4013093 C0,13.9701885 2.03602445,12 4.54756777,12 L128.452947,12 C130.963976,12 133,13.9701885 133,16.4013093 L133,171.599207" id="Fill-75" fill="#3549CC"></path>
                <polygon id="Fill-76" fill="#FFFFFE" points="8 164 125 164 125 21 8 21"></polygon>
                <path d="M103,14.1593247 C103,10.7575338 99.9799558,8 96.2549594,8 L34.7445245,8 C31.0195281,8 28,10.7575338 28,14.1593247 L28,25 L103,25 L103,14.1593247" id="Fill-77" fill="#A5A6A3"></path>
                <path d="M76,10.5002592 C76,16.2987782 71.2991805,21 65.5,21 C59.7008195,21 55,16.2987782 55,10.5002592 C55,4.70122177 59.7008195,0 65.5,0 C71.2991805,0 76,4.70122177 76,10.5002592" id="Fill-78" fill="#A5A6A3"></path>
                <path d="M68,7.5 C68,8.88051885 66.8804287,10 65.4997986,10 C64.1191685,10 63,8.88051885 63,7.5 C63,6.11948115 64.1191685,5 65.4997986,5 C66.8804287,5 68,6.11948115 68,7.5" id="Fill-79" fill="#E4ECBB"></path>
                <polygon id="Fill-80" fill="#C4C6C1" points="28 25 103 25 103 16 28 16"></polygon>
                <path d="M104,52.4998687 C104,52.7748884 103.539259,53 102.976131,53 L25.0238689,53 C24.460741,53 24,52.7748884 24,52.4998687 C24,52.2251116 24.460741,52 25.0238689,52 L102.976131,52 C103.539259,52 104,52.2251116 104,52.4998687" id="Fill-81" fill="#E5E5E4"></path>
                <path d="M76,55.5001313 C76,55.7748884 75.5443659,56 74.9874798,56 L25.0125202,56 C24.4556341,56 24,55.7748884 24,55.5001313 C24,55.2251116 24.4556341,55 25.0125202,55 L74.9874798,55 C75.5443659,55 76,55.2251116 76,55.5001313" id="Fill-82" fill="#E5E5E4"></path>
                <path d="M64,59.4998687 C64,59.7748884 63.539259,60 62.9761311,60 L25.0238689,60 C24.460741,60 24,59.7748884 24,59.4998687 C24,59.2251116 24.460741,59 25.0238689,59 L62.9761311,59 C63.539259,59 64,59.2251116 64,59.4998687" id="Fill-83" fill="#E5E5E4"></path>
                <path d="M105,77.9830508 C105,78.5423729 104.535881,79 103.968624,79 L42.0313764,79 C41.4641194,79 41,78.5423729 41,77.9830508 L41,77.0169492 C41,76.4581356 41.4641194,76 42.0313764,76 L103.968624,76 C104.535881,76 105,76.4581356 105,77.0169492 L105,77.9830508" id="Fill-84" fill="#E5E5E4"></path>
                <path d="M105,92.9830508 C105,93.5423729 104.535881,94 103.968624,94 L42.0313764,94 C41.4641194,94 41,93.5423729 41,92.9830508 L41,92.0169492 C41,91.4576271 41.4641194,91 42.0313764,91 L103.968624,91 C104.535881,91 105,91.4576271 105,92.0169492 L105,92.9830508" id="Fill-85" fill="#E5E5E4"></path>
                <path d="M105,107.983051 C105,108.542373 104.535881,109 103.968624,109 L42.0313764,109 C41.4641194,109 41,108.542373 41,107.983051 L41,107.016949 C41,106.457627 41.4641194,106 42.0313764,106 L103.968624,106 C104.535881,106 105,106.457627 105,107.016949 L105,107.983051" id="Fill-86" fill="#E5E5E4"></path>
                <path d="M105,122.983051 C105,123.542373 104.535881,124 103.968624,124 L42.0313764,124 C41.4641194,124 41,123.542373 41,122.983051 L41,122.016949 C41,121.457627 41.4641194,121 42.0313764,121 L103.968624,121 C104.535881,121 105,121.457627 105,122.016949 L105,122.983051" id="Fill-87" fill="#E5E5E4"></path>
                <path d="M24,83 L36,83 L36,71 L24,71 L24,83 Z M25.2155562,81.7844438 L34.783927,81.7844438 L34.783927,72.216073 L25.2155562,72.216073 L25.2155562,81.7844438 Z" id="Fill-88" fill="#E5E5E4"></path>
                <path d="M24,99 L36,99 L36,87 L24,87 L24,99 Z M25.2155562,97.7844438 L34.783927,97.7844438 L34.783927,88.216073 L25.2155562,88.216073 L25.2155562,97.7844438 Z" id="Fill-89" fill="#E5E5E4"></path>
                <path d="M24,113 L36,113 L36,101 L24,101 L24,113 Z M25.2155562,111.783927 L34.783927,111.783927 L34.783927,102.215556 L25.2155562,102.215556 L25.2155562,111.783927 Z" id="Fill-90" fill="#E5E5E4"></path>
                <path d="M24,128 L36,128 L36,116 L24,116 L24,128 Z M25.2155562,126.784444 L34.783927,126.784444 L34.783927,117.215556 L25.2155562,117.215556 L25.2155562,126.784444 Z" id="Fill-91" fill="#E5E5E4"></path>
                <path d="M29.5012307,79 C29.3762757,78.9985291 29.2588287,78.9436152 29.1837485,78.8519285 L25.0795401,73.8174984 C24.9615568,73.6723687 24.9760366,73.4698736 25.114935,73.3404336 C25.1926967,73.2673785 25.2972728,73.2296252 25.4023851,73.2296252 C25.4833646,73.2296252 25.5648803,73.2521791 25.6356702,73.2982676 L29.4250779,75.7635106 L36.3292434,70.0941382 C36.4053962,70.0313794 36.5013917,70 36.5979235,70 C36.6966004,70 36.7952773,70.0328503 36.8725027,70.0990412 C37.0248083,70.2294618 37.0430421,70.4447047 36.9143331,70.5947374 L29.8224669,78.8592831 C29.7463141,78.9480279 29.6294034,79 29.5060573,79 L29.5012307,79" id="Fill-92" fill="#67B545"></path>
                <path d="M36.2451829,69 L36.2280965,69 C36.040146,69.0049859 35.8692819,69.0853143 35.7391237,69.2149476 L29.4965548,75.3957998 L26.1908377,72.8031326 C26.0591719,72.7000907 25.9063993,72.6491237 25.7541293,72.6491237 C25.5571331,72.6491237 25.3616445,72.733884 25.2149024,72.8989726 C24.955591,73.1914786 24.9274487,73.6490733 25.149572,73.9770346 L28.9955211,79.6653908 C29.1357301,79.8731366 29.3558433,79.9966761 29.5905301,80 L29.5995758,80 C29.8312474,80 30.0498529,79.8825544 30.1925746,79.6820105 L36.8200902,70.3694601 C36.9321569,70.2243151 37,70.0365129 37,69.8309831 C37,69.3717264 36.6637998,69 36.2476956,69 L36.2451829,69 Z M36.2451829,69.8309831 L29.5995758,79.1690169 L25.7536267,73.4801068 L29.5508293,76.4589041 L36.2451829,69.8309831 L36.2451829,69.8309831 Z" id="Fill-93" fill="#67B545"></path>
                <path d="M29.5012307,94 C29.3762757,93.9985292 29.2588287,93.9436182 29.1837485,93.8519366 L25.0795401,88.8172904 C24.9615568,88.6721687 24.9760366,88.4696846 25.114935,88.340742 C25.1926967,88.2672005 25.2972728,88.2299395 25.4023851,88.2299395 C25.4833646,88.2299395 25.5648803,88.2524922 25.6351339,88.2980879 L29.4250779,90.7631966 L36.3292434,85.094133 C36.4053962,85.0313777 36.5013917,85 36.5979235,85 C36.6966004,85 36.7952773,85.0333388 36.8725027,85.0990358 C37.0248083,85.2294493 37.0430421,85.4446805 36.9143331,85.594705 L29.8230032,93.8588005 C29.7463141,93.9480307 29.6294034,94 29.5060573,94 L29.5012307,94" id="Fill-94" fill="#67B545"></path>
                <path d="M36.2451829,84 L36.2280965,84 C36.040146,84.0049859 35.8692819,84.0853143 35.7391237,84.2149476 L29.4965548,90.3963537 L26.1908377,87.8031326 C26.0591719,87.7000907 25.9063993,87.6496777 25.7541293,87.6496777 C25.5571331,87.6491237 25.3616445,87.734438 25.2149024,87.8995266 C24.955591,88.1920326 24.9274487,88.6490733 25.149572,88.9770346 L28.9955211,94.6653908 C29.1357301,94.8731366 29.3558433,94.9966761 29.5905301,95 L29.5995758,95 C29.8312474,95 30.0498529,94.8831084 30.1925746,94.6820105 L36.8200902,85.3694601 C36.9321569,85.2243151 37,85.0365129 37,84.8309831 C37,84.3722804 36.6637998,84 36.2476956,84 L36.2451829,84 Z M36.2451829,84.8309831 L29.5995758,94.1690169 L25.7536267,88.4806608 L29.5508293,91.4589041 L36.2451829,84.8309831 L36.2451829,84.8309831 Z" id="Fill-95" fill="#67B545"></path>
                <path d="M8,129 L8,165 L24,165 C23.2949038,165.004216 8.96420939,147.087229 8,129" id="Fill-96" fill="#D0D2CF"></path>
                <path d="M27,147.636602 C21.7413931,146.148882 17.8604217,144.068 14.9962637,141.774369 C8.24419536,136.368025 7.14518281,129.78042 7,127 L7,129.261212 C8.0685882,146.643776 23.9506272,164.004052 24.7320523,164 C23.9148652,163.099364 23.554577,161.840096 23.514545,160.523081 C23.4179343,157.318178 25.2236456,152.934546 27,147.636602" id="Fill-97" fill="#E5E5E4"></path>
                <path d="M12.6852411,165 L8,165 L8,152.824481 L8,164.833822 L12.8404995,164.833822 L12.6852411,165 M18.061764,155.780928 C16.8894356,153.900836 15.6743476,151.790486 14.510673,149.50744 L14.5488513,149.48789 C15.7064173,151.763875 16.9128517,153.868795 18.0775444,155.745628 L18.061764,155.780928 M22.7230801,145.610405 C22.5622221,145.536005 22.4023823,145.460519 22.2450877,145.38449 L23,145 L22.7230801,145.610405" id="Fill-102" fill="#D4D7D1"></path>
                <line x1="24.0009" y1="155.99625" x2="23.9991" y2="156.00375" id="Fill-111" fill="#E5E5E4"></line>
            </g>
            <g id="Group-6" transform="translate(199.554000, 192.987000)">
                <circle id="Oval" stroke="#898F9E" stroke-width="11" fill-opacity="0.0733156004" fill="#03D8D8" cx="58.5" cy="58.5" r="53"></circle>
                <polyline id="Fill-18" fill="#898F9E" points="106.854114 116 90 99.145886 99.1490182 90 116 106.850982 106.854114 116"></polyline>
                <path d="M126.314363,105.702178 L160.297822,139.685637 C163.900726,143.291732 163.900726,149.134883 160.297822,152.737787 L152.737787,160.297822 C149.134883,163.900726 143.291732,163.900726 139.685637,160.297822 L105.702178,126.311172 C102.099274,122.708268 102.099274,116.865117 105.702178,113.262213 L113.262213,105.702178 C116.868308,102.099274 122.711459,102.099274 126.314363,105.702178" id="Fill-19" fill="#8E98B1"></path>
                <text id="?" font-family="Montserrat-Black, Montserrat" font-size="72" font-weight="800" fill="#202945">
                    <tspan x="37.63" y="86.013">?</tspan>
                </text>
            </g>
            <path d="M117.142,100.814 L472.451,100.814 L117.142,100.814 Z M465.3,363.244 L124.293,363.244 C120.343,363.244 117.142,360.042 117.142,356.093 L117.142,72.068 C117.142,68.119 120.343,64.917 124.293,64.917 L465.3,64.917 C469.249,64.917 472.451,68.119 472.451,72.068 L472.451,356.093 C472.451,360.042 469.249,363.244 465.3,363.244 Z M152.188,83.232 C152.188,85.998 149.945,88.241 147.179,88.241 C144.413,88.241 142.17,85.998 142.17,83.232 C142.17,80.465 144.413,78.223 147.179,78.223 C149.945,78.223 152.188,80.465 152.188,83.232 Z M171.655,83.232 C171.655,85.998 169.413,88.241 166.646,88.241 C163.88,88.241 161.637,85.998 161.637,83.232 C161.637,80.465 163.88,78.223 166.646,78.223 C169.413,78.223 171.655,80.465 171.655,83.232 Z M191.123,83.232 C191.123,85.998 188.88,88.241 186.113,88.241 C183.347,88.241 181.105,85.998 181.105,83.232 C181.105,80.465 183.347,78.223 186.113,78.223 C188.88,78.223 191.123,80.465 191.123,83.232 Z" id="Stroke-13" stroke="#FEFBEB" stroke-width="1.941"></path>
            <g id="Group-7" transform="translate(0.000000, 265.000000)">
                <path d="M176.431064,115 L9.56801153,115 C4.28356355,115 0,108.916774 0,101.412467 L0,13.5862211 C0,6.08322589 4.28356355,0 9.56801153,0 L176.431064,0 C181.716436,0 186,6.08322589 186,13.5862211 L186,101.412467 C186,108.916774 181.716436,115 176.431064,115" id="Fill-14" fill="#ABAFBA"></path>
                <path d="M24.408,16.111 C24.408,18.216 22.702,19.922 20.597,19.922 C18.492,19.922 16.786,18.216 16.786,16.111 C16.786,14.006 18.492,12.3 20.597,12.3 C22.702,12.3 24.408,14.006 24.408,16.111 Z M39.218,16.111 C39.218,18.216 37.512,19.922 35.407,19.922 C33.303,19.922 31.597,18.216 31.597,16.111 C31.597,14.006 33.303,12.3 35.407,12.3 C37.512,12.3 39.218,14.006 39.218,16.111 Z M54.029,16.111 C54.029,18.216 52.323,19.922 50.218,19.922 C48.113,19.922 46.407,18.216 46.407,16.111 C46.407,14.006 48.113,12.3 50.218,12.3 C52.323,12.3 54.029,14.006 54.029,16.111 Z M0,30.537 L186,30.537 L0,30.537 Z" id="Stroke-15" stroke="#FEFBEB" stroke-width="1.477"></path>
                <g id="Sumadi-Logo-Master-File-copy_Artboard-10" transform="translate(50.000000, 33.000000)" fill="#202945" fill-rule="nonzero">
                    <g id="Group" transform="translate(0.000000, 51.000000)">
                        <g>
                            <path d="M10.8700251,3.01666992 C9.75821358,1.31165919 7.97257688,1.06161045 6.25125986,1.04113862 C4.46409174,1.04113862 1.63249461,1.66552934 1.63249461,3.99639306 C1.63249461,5.84763112 3.72441548,6.28485085 6.29567107,6.74108013 C9.23753049,7.28212127 12.2881208,7.77929421 12.2881208,10.9217196 C12.2666809,14.2089101 8.80260698,15 6.2543227,15 C3.87908898,15 1.17766262,14.0641451 0,11.838565 L1.04596043,11.3384675 C1.98318999,13.106356 4.3798636,13.9807955 6.2543227,13.9793332 C8.12878181,13.9793332 11.113521,13.4792357 11.1119896,10.8997855 C11.1334295,8.71514915 8.60658511,8.23698577 6.0996492,7.78075648 C3.31093185,7.26164944 0.45636341,6.72060831 0.454831989,4.03733671 C0.388980893,0.957789043 3.74432395,0.00146227335 6.24972844,0 C8.42894029,0 10.3248393,0.33193605 11.8286946,2.4741665 L10.8700251,3.01666992 Z" id="Path"></path>
                            <path d="M26.4476379,0.204718269 L26.4491693,9.25472802 C26.4507007,16.8687853 14.7720854,16.8921817 14.770554,9.25765256 L14.7690226,0.207642815 L15.9237139,0.207642815 L15.9252453,9.25765256 C15.9267767,15.519107 25.2960094,15.4971729 25.294478,9.25619029 L25.2929466,0.206180542 L26.4476379,0.204718269 Z" id="Path"></path>
                            <path d="M42.9624802,1.82345486 L37.124704,10.3543576 L36.7326602,10.3543576 L30.8474099,1.82637941 L30.8504728,14.7674985 L29.6743416,14.7674985 L29.6712787,0.204718269 C30.2379044,0.204718269 30.4997774,0.204718269 31.0664031,0.204718269 L36.9072422,8.69175278 L42.6791673,0.201793722 L44.1171715,0.201793722 L44.1202343,14.764574 L42.965543,14.764574 L42.9624802,1.82345486 Z" id="Path"></path>
                            <path d="M59.6105561,14.7616494 L57.9321189,11.1834666 L48.8247592,11.1849288 L47.1692932,14.7631117 L45.905871,14.7631117 L52.7436651,0.198869175 L54.0285272,0.198869175 L60.8724469,14.7601872 L59.6105561,14.7616494 Z M57.4742241,10.1423279 L53.3761419,1.28095145 L49.282654,10.1437902 L57.4742241,10.1423279 Z" id="Shape"></path>
                            <path d="M76.0809872,7.30990446 C76.1682782,11.0138429 73.685845,14.7587249 68.347312,14.7601872 C66.625995,14.7601872 64.904678,14.7601872 63.1833609,14.7616494 L63.1802981,0.198869175 C64.9016151,0.198869175 66.6229321,0.198869175 68.3442492,0.197406449 C73.5082002,0.195944629 75.9921648,3.73172158 76.0809872,7.30990446 Z M64.3564293,1.25755455 L64.3594921,13.6781049 L68.347312,13.6781049 C72.8787863,13.6766426 74.9707071,10.4318581 74.904856,7.30990446 C74.8390049,4.27276272 72.7470841,1.25609281 68.3457806,1.25755455 L64.3564293,1.25755455 Z" id="Shape"></path>
                            <polygon id="Path" points="79.0014068 14.7572626 78.9983439 0.194482355 80.1530352 0.194482355 80.1560981 14.7572626"></polygon>
                        </g>
                        <g transform="translate(82.004523, 0.200331)" id="Path">
                            <polygon points="0.779493207 0.225190096 0.108730879 0.225190096 0.108730879 0.103821408 1.59267767 0.103821408 1.59267767 0.225190096 0.921915344 0.225190096 0.921915344 1.87170988 0.779493207 1.87170988"></polygon>
                            <polygon points="1.03064622 1.97553129 0.670762327 1.97553129 0.670762327 0.329011503 0 0.329011503 0 0 1.70140855 0 1.70140855 0.329011503 1.03064622 0.329011503"></polygon>
                        </g>
                        <g transform="translate(84.025999, 0.150614)" id="Path">
                            <path d="M1.72437986,0.348021057 L1.01533202,1.38477286 L0.96785797,1.38477286 L0.252684438,0.348021057 L0.252684438,1.92142718 L0.1102623,1.92142718 L0.1102623,0.150614155 C0.179176238,0.150614155 0.211336076,0.150614155 0.280250013,0.150614155 L0.990829282,1.18297914 L1.69222003,0.150614155 L1.866802,0.150614155 L1.866802,1.92142718 L1.72591128,1.92142718 L1.72437986,0.348021057 Z"></path>
                            <polygon points="0.00153142084 2.02524859 0 0.0467927471 0.143953559 0.0467927471 0.143953559 0.0029245467 0.174581976 0.0467927471 0.336912584 0.0467927471 0.987766441 0.992883603 1.63249461 0.0467927471 1.80095091 0.0467927471 1.83311074 0 1.83311074 0.0467927471 1.97400146 0.0467927471 1.97400146 2.02524859 1.6171804 2.02524859 1.6171804 0.696042113 1.07352601 1.48859427 0.909663978 1.48859427 0.359883897 0.693117567 0.359883897 2.02524859"></polygon>
                        </g>
                    </g>
                    <g id="Group" transform="translate(24.000000, 0.000000)">
                        <path d="M18.9992301,0 L0,10.7503773 L0,32.2496227 L18.9992301,43 L38,32.2496227 L38,10.7503773 L18.9992301,0 Z M28.5019249,20.9227935 L28.5019249,31.4935954 L19.1593792,36.7827689 L9.02532723,31.0454115 L17.5763667,26.210458 L10.0016209,21.9247938 L9.02532723,21.396631 L9.02532723,11.8640463 L9.47805649,11.6075101 L18.9792114,6.2217582 L28.9746728,11.8776277 L20.7454715,16.5345148 L28.5019249,20.9227935 Z" id="Shape"></path>
                        <polygon id="Path" points="19.9524253 34.5388314 19.9524253 34.5327952 19.1532196 34.9855062 12.1928922 31.0469205 19.1639989 27.0992806 23.5527009 29.5831549 26.1274061 31.0454115"></polygon>
                        <polygon id="Path" points="26.9204522 21.8236884 26.9189123 29.7008598 23.4048709 27.7134585 23.403331 27.7134585 19.4180816 25.4589577 19.4150018 25.4604667 12.1928922 21.3694683 19.1455201 17.4293736 26.2783158 21.4569925 26.2767759 21.4600105"></polygon>
                    </g>
                </g>
            </g>
            <path d="M434.394,110.595 C427.634,110.595 422.154,105.115 422.154,98.355 L422.154,33.019 C422.154,26.258 427.634,20.778 434.394,20.778 L515.392,20.778 C522.152,20.778 527.632,26.258 527.632,33.019 L527.632,98.355 C527.632,105.115 522.152,110.595 515.392,110.595 L434.394,110.595 Z" id="Fill-16" fill="#CBD0DC"></path>
            <g id="Group-6" transform="translate(450.010000, 39.449000)" fill="#FFFFFF">
                <path d="M18.226,4.13 C10.453,4.13 4.13,10.454 4.13,18.227 C4.13,26 10.453,32.324 18.226,32.324 C26,32.324 32.323,26 32.323,18.227 C32.323,10.454 26,4.13 18.226,4.13 Z M18.226,36.454 C8.176,36.454 0,28.278 0,18.227 C0,8.177 8.176,0 18.226,0 C28.276,0 36.453,8.177 36.453,18.227 C36.453,28.278 28.276,36.454 18.226,36.454 L18.226,36.454 Z" id="Fill-17"></path>
                <polyline id="Fill-18" points="33.555 36.516 28.174 31.135 31.095 28.215 36.475 33.595 33.555 36.516"></polyline>
                <path d="M39.243,32.825 L49.892,43.474 C51.021,44.604 51.021,46.435 49.892,47.564 L47.523,49.933 C46.394,51.062 44.563,51.062 43.433,49.933 L32.784,39.283 C31.655,38.154 31.655,36.323 32.784,35.194 L35.153,32.825 C36.283,31.696 38.114,31.696 39.243,32.825" id="Fill-19"></path>
            </g>
            <path d="M86.225,82.437 L39.673,82.437 C31.869,82.437 25.541,76.109 25.541,68.304 L25.541,28.827 C25.541,21.022 31.869,14.695 39.673,14.695 L86.225,14.695 C94.03,14.695 100.357,21.022 100.357,28.827 L100.357,68.304 C100.357,76.109 94.03,82.437 86.225,82.437" id="Fill-20" fill="#41639F"></path>
            <g id="Group-5" transform="translate(47.100000, 31.461000)">
                <path d="M15.849,4.763 C9.736,4.763 4.763,9.736 4.763,15.849 C4.763,21.962 9.736,26.935 15.849,26.935 C21.962,26.935 26.935,21.962 26.935,15.849 C26.935,9.736 21.962,4.763 15.849,4.763 Z M15.849,31.698 C7.11,31.698 0,24.588 0,15.849 C0,7.11 7.11,0 15.849,0 C24.589,0 31.698,7.11 31.698,15.849 C31.698,24.588 24.589,31.698 15.849,31.698 L15.849,31.698 Z" id="Fill-21" fill="#FEFBEB"></path>
                <line x1="25.192" y1="4.763" x2="7.017" y2="26.935" id="Stroke-22" stroke="#FEFBEB" stroke-width="4.522"></line>
            </g>
            <g id="Group-2" transform="translate(402.395000, 168.822000)">
                <path d="M181.688,151.933 L13.045,151.933 C5.84,151.933 0,146.092 0,138.886 L0,13.046 C0,5.841 5.84,0 13.045,0 L181.688,0 C188.893,0 194.734,5.841 194.734,13.046 L194.734,138.886 C194.734,146.092 188.893,151.933 181.688,151.933" id="Fill-23" fill="#898F9E"></path>
                <path d="M149.795716,117.643038 C153.224545,123.579425 148.920582,131 142.072213,131 L52.9267486,131 C46.0651898,131 41.7811042,123.567921 45.2032456,117.643038 L89.776535,40.4503427 C93.2070358,34.5111728 101.799171,34.5219345 105.223541,40.4503427 L149.795716,117.643038 Z M97.5000381,101.683595 C92.7807078,101.683595 88.9549016,105.504933 88.9549016,110.218751 C88.9549016,114.932569 92.7807078,118.753907 97.5000381,118.753907 C102.219368,118.753907 106.045175,114.932569 106.045175,110.218751 C106.045175,105.504933 102.219368,101.683595 97.5000381,101.683595 Z M89.387174,71.0041611 L90.7651702,96.2385361 C90.8296302,97.4193564 91.8071195,98.3437509 92.9909925,98.3437509 L102.009084,98.3437509 C103.192957,98.3437509 104.170446,97.4193564 104.234906,96.2385361 L105.612902,71.0041611 C105.682564,69.7287119 104.665878,68.6562509 103.38708,68.6562509 L91.6128106,68.6562509 C90.3340123,68.6562509 89.3175126,69.7287119 89.387174,71.0041611 L89.387174,71.0041611 Z" id="Shape" fill="#F2F6FF" fill-rule="nonzero"></path>
                <path d="M23.843,14.344 C23.843,16.383 22.191,18.035 20.152,18.035 C18.114,18.035 16.461,16.383 16.461,14.344 C16.461,12.305 18.114,10.653 20.152,10.653 C22.191,10.653 23.843,12.305 23.843,14.344 Z M38.189,14.344 C38.189,16.383 36.537,18.035 34.498,18.035 C32.46,18.035 30.807,16.383 30.807,14.344 C30.807,12.305 32.46,10.653 34.498,10.653 C36.537,10.653 38.189,12.305 38.189,14.344 Z M52.535,14.344 C52.535,16.383 50.882,18.035 48.843,18.035 C46.805,18.035 45.153,16.383 45.153,14.344 C45.153,12.305 46.805,10.653 48.843,10.653 C50.882,10.653 52.535,12.305 52.535,14.344 Z M0,29.739 L194.734,29.739 L0,29.739 Z" id="Stroke-24" stroke="#FEFBEB" stroke-width="1.43"></path>
            </g>
            <polyline id="Fill-10" fill="#FEFBEB" points="156.371 193.363 120.132 212.137 130.572 217.193 117.607 232.692 127.724 240.976 140.247 224.331 148.642 233.331 156.371 193.363"></polyline>
        </g>
    </g>
</svg>