<?xml version="1.0" encoding="UTF-8"?>
<svg width="1010px" height="494px" viewBox="0 0 1010 494" version="1.1" xmlns="http://www.w3.org/2000/svg" xmlns:xlink="http://www.w3.org/1999/xlink">
    <title>Artboard Copy 2</title>
    <defs>
        <path d="M394.024,0 C611.638,0 788.048,6.691 788.048,14.945 C788.048,23.199 611.638,29.89 394.024,29.89 C176.411,29.89 5.68434189e-14,23.199 5.68434189e-14,14.945" id="path-1"></path>
        <path d="M149.758537,65.937 C144.456537,61.99 135.128537,54.976 132.146537,52.281 C127.895537,48.442 125.152537,5.68434189e-14 125.152537,5.68434189e-14 L25.2355372,5.68434189e-14 C25.2355372,5.68434189e-14 22.4925372,48.442 18.2415372,52.281 C15.2585372,54.976 5.93053723,61.99 0.629537232,65.937 C-0.573462768,66.831 0.0635372318,68.738 1.56153723,68.738 L148.825537,68.738 C150.324537,68.738 150.960537,66.831 149.758537,65.937" id="path-3"></path>
        <linearGradient x1="50.0377323%" y1="60.4497056%" x2="47.8271775%" y2="32.139641%" id="linearGradient-5">
            <stop stop-color="#3549CC" offset="0%"></stop>
            <stop stop-color="#0C0E0D" offset="100%"></stop>
        </linearGradient>
        <path d="M233.435,104.962 L23.893,104.962 C10.697,104.962 0,94.265 0,81.069 L0,23.894 C0,10.698 10.697,0 23.893,0 L233.435,0 C246.635,0 257.325,10.698 257.325,23.894 L257.325,81.069 C257.325,94.265 246.635,104.962 233.435,104.962" id="path-6"></path>
        <linearGradient x1="42.907646%" y1="27.4359653%" x2="49.5141164%" y2="48.4522516%" id="linearGradient-8">
            <stop stop-color="#4BD2D2" offset="0%"></stop>
            <stop stop-color="#4BD2D2" offset="100%"></stop>
        </linearGradient>
    </defs>
    <g id="Artboard-Copy-2" stroke="none" stroke-width="1" fill="none" fill-rule="evenodd">
        <g id="Group-9" transform="translate(-0.000000, 0.000000)">
            <g id="Group-1058" transform="translate(165.799518, 463.981073)">
                <mask id="mask-2" fill="white">
                    <use xlink:href="#path-1"></use>
                </mask>
                <g id="Clip-1057"></g>
                <path d="M394.024,29.89 C176.411,29.89 5.68434189e-14,23.199 5.68434189e-14,14.945 C5.68434189e-14,6.691 176.411,0 394.024,0 C611.638,0 788.048,6.691 788.048,14.945 C788.048,23.199 611.638,29.89 394.024,29.89" id="Fill-1056" mask="url(#mask-2)"></path>
            </g>
            <path d="M184.137518,433.526073 C292.084518,452.204073 325.475518,328.587073 472.565518,311.866073 C643.836518,292.398073 716.503518,446.595073 833.447518,411.655073 C964.667518,372.448073 1057.40752,123.238073 983.807518,31.640073 C893.747518,-80.443927 633.693518,141.877073 162.265518,134.162073 C111.750518,133.335073 34.4645184,129.469073 9.16651841,172.437073 C-30.7464816,240.227073 65.5675184,413.009073 184.137518,433.526073" id="Fill-1059" fill="#4BD2D2" opacity="0.238667806"></path>
            <path d="M601.922518,471.177073 L452.088518,471.177073 C450.680518,472.941073 451.874518,475.037073 453.373518,475.037073 L600.637518,475.037073 C602.135518,475.037073 603.432518,472.534073 601.922518,471.177073" id="Fill-1060" fill="#0C0D0D"></path>
            <path d="M767.547518,404.881073 L286.508518,404.881073 C280.388518,404.881073 275.427518,399.919073 275.427518,393.799073 L275.427518,125.965073 C275.427518,119.845073 280.388518,114.884073 286.508518,114.884073 L767.547518,114.884073 C773.667518,114.884073 778.627518,119.845073 778.627518,125.965073 L778.627518,393.799073 C778.627518,399.919073 773.667518,404.881073 767.547518,404.881073" id="Fill-1061" fill="#3549CC"></path>
            <path d="M289.512518,397.024073 C284.573518,397.024073 280.570518,393.021073 280.570518,388.081073 L280.570518,129.044073 C280.570518,124.106073 284.573518,120.102073 289.512518,120.102073 L764.547518,120.102073 C769.477518,120.102073 773.487518,124.106073 773.487518,129.044073 L773.487518,388.081073 C773.487518,393.021073 769.477518,397.024073 764.547518,397.024073 L289.512518,397.024073 Z" id="Fill-1062" fill="#FFFFFE"></path>
            <g id="Group-1065" transform="translate(451.833981, 404.881073)">
                <mask id="mask-4" fill="white">
                    <use xlink:href="#path-3"></use>
                </mask>
                <g id="Clip-1064"></g>
                <path d="M149.758537,65.937 C144.456537,61.99 135.128537,54.976 132.146537,52.281 C127.895537,48.442 125.152537,5.68434189e-14 125.152537,5.68434189e-14 L25.2355372,5.68434189e-14 C25.2355372,5.68434189e-14 22.4925372,48.442 18.2415372,52.281 C15.2585372,54.976 5.93053723,61.99 0.629537232,65.937 C-0.573462768,66.831 0.0635372318,68.738 1.56153723,68.738 L148.825537,68.738 C150.324537,68.738 150.960537,66.831 149.758537,65.937" id="Fill-1063" fill="url(#linearGradient-5)" mask="url(#mask-4)"></path>
            </g>
            <path d="M714.560518,192.211073 L339.495518,192.211073 L339.495518,168.091073 C339.495518,165.346073 341.720518,163.121073 344.465518,163.121073 L709.590518,163.121073 C712.335518,163.121073 714.560518,165.346073 714.560518,168.091073 L714.560518,192.211073 Z M714.560518,367.220073 C714.560518,369.964073 712.335518,372.190073 709.590518,372.190073 L344.465518,372.190073 C341.720518,372.190073 339.495518,369.964073 339.495518,367.220073 L339.495518,195.965073 L714.560518,195.965073 L714.560518,367.220073 Z M709.590518,159.367073 L344.465518,159.367073 C339.654518,159.367073 335.741518,163.281073 335.741518,168.091073 L335.741518,367.220073 C335.741518,372.031073 339.654518,375.944073 344.465518,375.944073 L709.590518,375.944073 C714.401518,375.944073 718.314518,372.031073 718.314518,367.220073 L718.314518,168.091073 C718.314518,163.281073 714.401518,159.367073 709.590518,159.367073 L709.590518,159.367073 Z" id="Fill-1066" fill="#8996BB"></path>
            <path d="M654.406518,184.291073 C657.749518,184.291073 660.471518,181.570073 660.471518,178.226073 C660.471518,174.882073 657.749518,172.160073 654.406518,172.160073 C651.061518,172.160073 648.340518,174.882073 648.340518,178.226073 C648.340518,181.570073 651.061518,184.291073 654.406518,184.291073" id="Fill-1067" fill="#8996BB"></path>
            <path d="M674.823518,184.291073 C678.168518,184.291073 680.890518,181.570073 680.890518,178.226073 C680.890518,174.882073 678.168518,172.160073 674.823518,172.160073 C671.479518,172.160073 668.758518,174.882073 668.758518,178.226073 C668.758518,181.570073 671.479518,184.291073 674.823518,184.291073" id="Fill-1068" fill="#8996BB"></path>
            <path d="M695.241518,184.291073 C698.586518,184.291073 701.307518,181.570073 701.307518,178.226073 C701.307518,174.882073 698.586518,172.160073 695.241518,172.160073 C691.897518,172.160073 689.176518,174.882073 689.176518,178.226073 C689.176518,181.570073 691.897518,184.291073 695.241518,184.291073" id="Fill-1069" fill="#8996BB"></path>
            <g id="Group-1077" transform="translate(576.892518, 370.075073)">
                <mask id="mask-7" fill="white">
                    <use xlink:href="#path-6"></use>
                </mask>
                <g id="Clip-1076"></g>
                <path d="M233.435,104.962 L23.893,104.962 C10.697,104.962 0,94.265 0,81.069 L0,23.894 C0,10.698 10.697,0 23.893,0 L233.435,0 C246.635,0 257.325,10.698 257.325,23.894 L257.325,81.069 C257.325,94.265 246.635,104.962 233.435,104.962" id="Fill-1075" fill="url(#linearGradient-8)" mask="url(#mask-7)"></path>
            </g>
            <path d="M799.067518,421.114073 L703.268518,421.114073 C699.936518,421.114073 697.236518,418.412073 697.236518,415.080073 C697.236518,411.748073 699.936518,409.048073 703.268518,409.048073 L799.067518,409.048073 C802.407518,409.048073 805.107518,411.748073 805.107518,415.080073 C805.107518,418.412073 802.407518,421.114073 799.067518,421.114073" id="Fill-1078" fill="#FFFFFE"></path>
            <path d="M799.067518,446.831073 L703.268518,446.831073 C699.936518,446.831073 697.236518,444.130073 697.236518,440.798073 C697.236518,437.466073 699.936518,434.766073 703.268518,434.766073 L799.067518,434.766073 C802.407518,434.766073 805.107518,437.466073 805.107518,440.798073 C805.107518,444.130073 802.407518,446.831073 799.067518,446.831073" id="Fill-1079" fill="#FFFFFE"></path>
            <path d="M619.401518,421.280073 C616.114518,421.280073 613.439518,423.953073 613.439518,427.241073 C613.439518,430.530073 616.114518,433.203073 619.401518,433.203073 C622.689518,433.203073 625.364518,430.530073 625.364518,427.241073 C625.364518,423.953073 622.689518,421.280073 619.401518,421.280073 Z M619.401518,441.860073 C611.340518,441.860073 604.782518,435.302073 604.782518,427.241073 C604.782518,419.181073 611.340518,412.623073 619.401518,412.623073 C627.461518,412.623073 634.019518,419.181073 634.019518,427.241073 C634.019518,435.302073 627.461518,441.860073 619.401518,441.860073 L619.401518,441.860073 Z" id="Fill-1080" fill="#FFFFFE"></path>
            <path d="M659.981518,421.280073 C656.694518,421.280073 654.019518,423.953073 654.019518,427.241073 C654.019518,430.530073 656.694518,433.203073 659.981518,433.203073 C663.269518,433.203073 665.943518,430.530073 665.943518,427.241073 C665.943518,423.953073 663.269518,421.280073 659.981518,421.280073 Z M659.981518,441.860073 C651.920518,441.860073 645.363518,435.302073 645.363518,427.241073 C645.363518,419.181073 651.920518,412.623073 659.981518,412.623073 C668.041518,412.623073 674.599518,419.181073 674.599518,427.241073 C674.599518,435.302073 668.041518,441.860073 659.981518,441.860073 L659.981518,441.860073 Z" id="Fill-1081" fill="#FFFFFE"></path>
            <path d="M810.887518,161.867073 L804.887518,161.867073 C803.507518,161.867073 802.387518,160.748073 802.387518,159.367073 C802.387518,157.986073 803.507518,156.867073 804.887518,156.867073 L810.887518,156.867073 C812.277518,156.867073 813.387518,157.986073 813.387518,159.367073 C813.387518,160.748073 812.277518,161.867073 810.887518,161.867073" id="Fill-1111" fill="#3549CC"></path>
            <path d="M836.967518,161.867073 L823.927518,161.867073 C822.547518,161.867073 821.427518,160.748073 821.427518,159.367073 C821.427518,157.986073 822.547518,156.867073 823.927518,156.867073 L836.967518,156.867073 C838.347518,156.867073 839.467518,157.986073 839.467518,159.367073 C839.467518,160.748073 838.347518,161.867073 836.967518,161.867073 Z M863.047518,161.867073 L850.007518,161.867073 C848.627518,161.867073 847.507518,160.748073 847.507518,159.367073 C847.507518,157.986073 848.627518,156.867073 850.007518,156.867073 L863.047518,156.867073 C864.427518,156.867073 865.547518,157.986073 865.547518,159.367073 C865.547518,160.748073 864.427518,161.867073 863.047518,161.867073 Z M889.117518,161.867073 L876.077518,161.867073 C874.697518,161.867073 873.577518,160.748073 873.577518,159.367073 C873.577518,157.986073 874.697518,156.867073 876.077518,156.867073 L889.117518,156.867073 C890.497518,156.867073 891.617518,157.986073 891.617518,159.367073 C891.617518,160.748073 890.497518,161.867073 889.117518,161.867073 Z M915.197518,161.867073 L902.157518,161.867073 C900.777518,161.867073 899.657518,160.748073 899.657518,159.367073 C899.657518,157.986073 900.777518,156.867073 902.157518,156.867073 L915.197518,156.867073 C916.577518,156.867073 917.697518,157.986073 917.697518,159.367073 C917.697518,160.748073 916.577518,161.867073 915.197518,161.867073 L915.197518,161.867073 Z" id="Fill-1112" fill="#3549CC"></path>
            <path d="M934.227518,167.867073 C932.847518,167.867073 931.727518,166.748073 931.727518,165.367073 L931.727518,161.867073 L928.227518,161.867073 C926.847518,161.867073 925.727518,160.748073 925.727518,159.367073 C925.727518,157.986073 926.847518,156.867073 928.227518,156.867073 L934.227518,156.867073 C935.607518,156.867073 936.727518,157.986073 936.727518,159.367073 L936.727518,165.367073 C936.727518,166.748073 935.607518,167.867073 934.227518,167.867073" id="Fill-1113" fill="#3549CC"></path>
            <path d="M934.227518,192.272073 C932.847518,192.272073 931.727518,191.153073 931.727518,189.772073 L931.727518,177.570073 C931.727518,176.189073 932.847518,175.070073 934.227518,175.070073 C935.607518,175.070073 936.727518,176.189073 936.727518,177.570073 L936.727518,189.772073 C936.727518,191.153073 935.607518,192.272073 934.227518,192.272073 Z M934.227518,216.677073 C932.847518,216.677073 931.727518,215.558073 931.727518,214.177073 L931.727518,201.975073 C931.727518,200.594073 932.847518,199.475073 934.227518,199.475073 C935.607518,199.475073 936.727518,200.594073 936.727518,201.975073 L936.727518,214.177073 C936.727518,215.558073 935.607518,216.677073 934.227518,216.677073 Z M934.227518,241.082073 C932.847518,241.082073 931.727518,239.963073 931.727518,238.582073 L931.727518,226.380073 C931.727518,224.999073 932.847518,223.880073 934.227518,223.880073 C935.607518,223.880073 936.727518,224.999073 936.727518,226.380073 L936.727518,238.582073 C936.727518,239.963073 935.607518,241.082073 934.227518,241.082073 Z M934.227518,265.488073 C932.847518,265.488073 931.727518,264.368073 931.727518,262.988073 L931.727518,250.785073 C931.727518,249.404073 932.847518,248.285073 934.227518,248.285073 C935.607518,248.285073 936.727518,249.404073 936.727518,250.785073 L936.727518,262.988073 C936.727518,264.368073 935.607518,265.488073 934.227518,265.488073 Z M934.227518,289.892073 C932.847518,289.892073 931.727518,288.773073 931.727518,287.392073 L931.727518,275.190073 C931.727518,273.809073 932.847518,272.690073 934.227518,272.690073 C935.607518,272.690073 936.727518,273.809073 936.727518,275.190073 L936.727518,287.392073 C936.727518,288.773073 935.607518,289.892073 934.227518,289.892073 Z M934.227518,314.298073 C932.847518,314.298073 931.727518,313.178073 931.727518,311.798073 L931.727518,299.595073 C931.727518,298.214073 932.847518,297.095073 934.227518,297.095073 C935.607518,297.095073 936.727518,298.214073 936.727518,299.595073 L936.727518,311.798073 C936.727518,313.178073 935.607518,314.298073 934.227518,314.298073 Z M934.227518,338.702073 C932.847518,338.702073 931.727518,337.583073 931.727518,336.202073 L931.727518,324.000073 C931.727518,322.619073 932.847518,321.500073 934.227518,321.500073 C935.607518,321.500073 936.727518,322.619073 936.727518,324.000073 L936.727518,336.202073 C936.727518,337.583073 935.607518,338.702073 934.227518,338.702073 Z M934.227518,363.108073 C932.847518,363.108073 931.727518,361.989073 931.727518,360.608073 L931.727518,348.406073 C931.727518,347.025073 932.847518,345.906073 934.227518,345.906073 C935.607518,345.906073 936.727518,347.025073 936.727518,348.406073 L936.727518,360.608073 C936.727518,361.989073 935.607518,363.108073 934.227518,363.108073 Z M934.227518,387.513073 C932.847518,387.513073 931.727518,386.394073 931.727518,385.013073 L931.727518,372.811073 C931.727518,371.430073 932.847518,370.311073 934.227518,370.311073 C935.607518,370.311073 936.727518,371.430073 936.727518,372.811073 L936.727518,385.013073 C936.727518,386.394073 935.607518,387.513073 934.227518,387.513073 Z M934.227518,411.918073 C932.847518,411.918073 931.727518,410.799073 931.727518,409.418073 L931.727518,397.215073 C931.727518,395.834073 932.847518,394.715073 934.227518,394.715073 C935.607518,394.715073 936.727518,395.834073 936.727518,397.215073 L936.727518,409.418073 C936.727518,410.799073 935.607518,411.918073 934.227518,411.918073 L934.227518,411.918073 Z" id="Fill-1114" fill="#3549CC"></path>
            <path d="M934.227518,430.120073 L928.227518,430.120073 C926.847518,430.120073 925.727518,429.001073 925.727518,427.620073 C925.727518,426.240073 926.847518,425.120073 928.227518,425.120073 L931.727518,425.120073 L931.727518,421.620073 C931.727518,420.240073 932.847518,419.120073 934.227518,419.120073 C935.607518,419.120073 936.727518,420.240073 936.727518,421.620073 L936.727518,427.620073 C936.727518,429.001073 935.607518,430.120073 934.227518,430.120073" id="Fill-1115" fill="#3549CC"></path>
            <path d="M892.087518,430.120073 L880.037518,430.120073 C878.657518,430.120073 877.537518,429.001073 877.537518,427.620073 C877.537518,426.240073 878.657518,425.120073 880.037518,425.120073 L892.087518,425.120073 C893.467518,425.120073 894.587518,426.240073 894.587518,427.620073 C894.587518,429.001073 893.467518,430.120073 892.087518,430.120073 Z M916.187518,430.120073 L904.137518,430.120073 C902.757518,430.120073 901.637518,429.001073 901.637518,427.620073 C901.637518,426.240073 902.757518,425.120073 904.137518,425.120073 L916.187518,425.120073 C917.567518,425.120073 918.687518,426.240073 918.687518,427.620073 C918.687518,429.001073 917.567518,430.120073 916.187518,430.120073 L916.187518,430.120073 Z" id="Fill-1116" fill="#3549CC"></path>
            <path d="M867.997518,430.120073 L861.997518,430.120073 C860.607518,430.120073 859.497518,429.001073 859.497518,427.620073 C859.497518,426.240073 860.607518,425.120073 861.997518,425.120073 L867.997518,425.120073 C869.377518,425.120073 870.497518,426.240073 870.497518,427.620073 C870.497518,429.001073 869.377518,430.120073 867.997518,430.120073" id="Fill-1117" fill="#3549CC"></path>
            <path d="M114.161518,174.660073 L102.161518,174.660073 C100.780518,174.660073 99.6615184,173.541073 99.6615184,172.160073 C99.6615184,170.780073 100.780518,169.660073 102.161518,169.660073 L114.161518,169.660073 C115.542518,169.660073 116.661518,170.780073 116.661518,172.160073 C116.661518,173.541073 115.542518,174.660073 114.161518,174.660073 Z M138.161518,174.660073 L126.161518,174.660073 C124.780518,174.660073 123.661518,173.541073 123.661518,172.160073 C123.661518,170.780073 124.780518,169.660073 126.161518,169.660073 L138.161518,169.660073 C139.542518,169.660073 140.661518,170.780073 140.661518,172.160073 C140.661518,173.541073 139.542518,174.660073 138.161518,174.660073 Z M162.161518,174.660073 L150.161518,174.660073 C148.780518,174.660073 147.661518,173.541073 147.661518,172.160073 C147.661518,170.780073 148.780518,169.660073 150.161518,169.660073 L162.161518,169.660073 C163.542518,169.660073 164.661518,170.780073 164.661518,172.160073 C164.661518,173.541073 163.542518,174.660073 162.161518,174.660073 Z M186.161518,174.660073 L174.161518,174.660073 C172.780518,174.660073 171.661518,173.541073 171.661518,172.160073 C171.661518,170.780073 172.780518,169.660073 174.161518,169.660073 L186.161518,169.660073 C187.542518,169.660073 188.661518,170.780073 188.661518,172.160073 C188.661518,173.541073 187.542518,174.660073 186.161518,174.660073 Z M210.161518,174.660073 L198.161518,174.660073 C196.780518,174.660073 195.661518,173.541073 195.661518,172.160073 C195.661518,170.780073 196.780518,169.660073 198.161518,169.660073 L210.161518,169.660073 C211.542518,169.660073 212.661518,170.780073 212.661518,172.160073 C212.661518,173.541073 211.542518,174.660073 210.161518,174.660073 Z M234.161518,174.660073 L222.161518,174.660073 C220.780518,174.660073 219.661518,173.541073 219.661518,172.160073 C219.661518,170.780073 220.780518,169.660073 222.161518,169.660073 L234.161518,169.660073 C235.542518,169.660073 236.661518,170.780073 236.661518,172.160073 C236.661518,173.541073 235.542518,174.660073 234.161518,174.660073 Z M89.3385184,185.837073 C87.9575184,185.837073 86.8385184,184.718073 86.8385184,183.337073 L86.8385184,172.160073 C86.8385184,170.780073 87.9575184,169.660073 89.3385184,169.660073 L90.1615184,169.660073 C91.5425184,169.660073 92.6615184,170.780073 92.6615184,172.160073 C92.6615184,172.896073 92.3435184,173.557073 91.8385184,174.015073 L91.8385184,183.337073 C91.8385184,184.718073 90.7195184,185.837073 89.3385184,185.837073 Z M89.3385184,209.837073 C87.9575184,209.837073 86.8385184,208.718073 86.8385184,207.337073 L86.8385184,195.337073 C86.8385184,193.956073 87.9575184,192.837073 89.3385184,192.837073 C90.7195184,192.837073 91.8385184,193.956073 91.8385184,195.337073 L91.8385184,207.337073 C91.8385184,208.718073 90.7195184,209.837073 89.3385184,209.837073 Z M89.3385184,233.837073 C87.9575184,233.837073 86.8385184,232.718073 86.8385184,231.337073 L86.8385184,219.337073 C86.8385184,217.956073 87.9575184,216.837073 89.3385184,216.837073 C90.7195184,216.837073 91.8385184,217.956073 91.8385184,219.337073 L91.8385184,231.337073 C91.8385184,232.718073 90.7195184,233.837073 89.3385184,233.837073 Z M89.3385184,257.837073 C87.9575184,257.837073 86.8385184,256.718073 86.8385184,255.337073 L86.8385184,243.337073 C86.8385184,241.956073 87.9575184,240.837073 89.3385184,240.837073 C90.7195184,240.837073 91.8385184,241.956073 91.8385184,243.337073 L91.8385184,255.337073 C91.8385184,256.718073 90.7195184,257.837073 89.3385184,257.837073 Z M89.3385184,281.837073 C87.9575184,281.837073 86.8385184,280.718073 86.8385184,279.337073 L86.8385184,267.337073 C86.8385184,265.956073 87.9575184,264.837073 89.3385184,264.837073 C90.7195184,264.837073 91.8385184,265.956073 91.8385184,267.337073 L91.8385184,279.337073 C91.8385184,280.718073 90.7195184,281.837073 89.3385184,281.837073 Z M89.3385184,305.837073 C87.9575184,305.837073 86.8385184,304.718073 86.8385184,303.337073 L86.8385184,291.337073 C86.8385184,289.956073 87.9575184,288.837073 89.3385184,288.837073 C90.7195184,288.837073 91.8385184,289.956073 91.8385184,291.337073 L91.8385184,303.337073 C91.8385184,304.718073 90.7195184,305.837073 89.3385184,305.837073 Z M89.3385184,329.837073 C87.9575184,329.837073 86.8385184,328.718073 86.8385184,327.337073 L86.8385184,315.337073 C86.8385184,313.956073 87.9575184,312.837073 89.3385184,312.837073 C90.7195184,312.837073 91.8385184,313.956073 91.8385184,315.337073 L91.8385184,327.337073 C91.8385184,328.718073 90.7195184,329.837073 89.3385184,329.837073 Z M89.3385184,353.837073 C87.9575184,353.837073 86.8385184,352.718073 86.8385184,351.337073 L86.8385184,339.337073 C86.8385184,337.956073 87.9575184,336.837073 89.3385184,336.837073 C90.7195184,336.837073 91.8385184,337.956073 91.8385184,339.337073 L91.8385184,351.337073 C91.8385184,352.718073 90.7195184,353.837073 89.3385184,353.837073 Z M89.3385184,377.837073 C87.9575184,377.837073 86.8385184,376.718073 86.8385184,375.337073 L86.8385184,363.337073 C86.8385184,361.956073 87.9575184,360.837073 89.3385184,360.837073 C90.7195184,360.837073 91.8385184,361.956073 91.8385184,363.337073 L91.8385184,375.337073 C91.8385184,376.718073 90.7195184,377.837073 89.3385184,377.837073 Z M97.3895184,393.785073 L89.3385184,393.785073 C87.9575184,393.785073 86.8385184,392.666073 86.8385184,391.285073 L86.8385184,387.337073 C86.8385184,385.956073 87.9575184,384.837073 89.3385184,384.837073 C90.7195184,384.837073 91.8385184,385.956073 91.8385184,387.337073 L91.8385184,388.785073 L97.3895184,388.785073 C98.7705184,388.785073 99.8895184,389.905073 99.8895184,391.285073 C99.8895184,392.666073 98.7705184,393.785073 97.3895184,393.785073 Z M121.389518,393.785073 L109.389518,393.785073 C108.009518,393.785073 106.889518,392.666073 106.889518,391.285073 C106.889518,389.905073 108.009518,388.785073 109.389518,388.785073 L121.389518,388.785073 C122.770518,388.785073 123.889518,389.905073 123.889518,391.285073 C123.889518,392.666073 122.770518,393.785073 121.389518,393.785073 Z M145.389518,393.785073 L133.389518,393.785073 C132.009518,393.785073 130.889518,392.666073 130.889518,391.285073 C130.889518,389.905073 132.009518,388.785073 133.389518,388.785073 L145.389518,388.785073 C146.770518,388.785073 147.889518,389.905073 147.889518,391.285073 C147.889518,392.666073 146.770518,393.785073 145.389518,393.785073 Z M169.389518,393.785073 L157.389518,393.785073 C156.009518,393.785073 154.889518,392.666073 154.889518,391.285073 C154.889518,389.905073 156.009518,388.785073 157.389518,388.785073 L169.389518,388.785073 C170.770518,388.785073 171.889518,389.905073 171.889518,391.285073 C171.889518,392.666073 170.770518,393.785073 169.389518,393.785073 Z M185.295518,393.785073 L181.389518,393.785073 C180.009518,393.785073 178.889518,392.666073 178.889518,391.285073 C178.889518,389.905073 180.009518,388.785073 181.389518,388.785073 L185.295518,388.785073 C186.676518,388.785073 187.795518,389.905073 187.795518,391.285073 C187.795518,392.666073 186.676518,393.785073 185.295518,393.785073 L185.295518,393.785073 Z" id="Fill-1118" fill="#3549CC"></path>
        </g>
        <path d="M507.59893,231 C507.054443,231 506.542351,231.212065 506.156102,231.597693 L476.598063,261.156904 C476.21306,261.541909 476,262.054004 476,262.598494 L476,304.400883 C476,304.946619 476.21306,305.458714 476.598063,305.843719 L506.156102,335.403179 C506.541105,335.788185 507.054443,336 507.59893,336 L549.40107,336 C549.945557,336 550.458895,335.788185 550.843898,335.403179 L580.401937,305.843719 C580.788186,305.458714 581,304.946619 581,304.400883 L581,262.598494 C581,262.054004 580.788186,261.541909 580.401937,261.156904 L550.843898,231.597569 C550.458895,231.212065 549.945557,231 549.40107,231 L507.59893,231 Z M548.961855,341 L507.038145,341 C505.331207,341 503.725485,340.335215 502.517133,339.128105 L472.873134,309.482695 C471.666031,308.275585 471,306.669855 471,304.961657 L471,263.037718 C471,261.33077 471.666031,259.72504 472.873134,258.51668 L502.517133,228.872894 C503.725485,227.665035 505.331207,227 507.038145,227 L548.961855,227 C550.670043,227 552.275765,227.665035 553.482867,228.872894 L583.126866,258.51793 C584.335219,259.72504 585,261.33077 585,263.037718 L585,304.961657 C585,306.669855 584.335219,308.275585 583.126866,309.482695 L553.482867,339.126856 C552.275765,340.335215 550.670043,341 548.961855,341 L548.961855,341 Z" id="Fill-50" fill="#FFFFFF"></path>
        <path d="M523.000423,246.455835 C518.139804,246.455835 513.555217,247.061771 509.241097,248.273754 C504.920299,249.492304 500.130913,251.448572 494.875278,254.14256 L486.371809,231.280062 C491.634568,227.907569 497.839176,225.312419 504.992646,223.487933 C512.139437,221.669904 519.153778,220.761 526.03678,220.761 C534.666133,220.761 541.779533,221.907091 547.378094,224.199273 C552.976655,226.491456 557.396513,229.389574 560.637668,232.900305 C563.871032,236.411037 566.130491,240.251116 567.414933,244.433675 C568.692696,248.616346 569.338255,252.594663 569.338255,256.36885 C569.338255,260.149604 568.758365,263.620823 567.613053,266.789075 C566.466628,269.963893 565.017457,272.894957 563.265542,275.595511 C561.513626,278.296066 559.484565,280.851703 557.192828,283.282235 C554.899978,285.712768 552.67391,288.00495 550.520189,290.158782 C548.899612,291.77936 547.213365,293.497884 545.46145,295.32326 C543.702856,297.140844 542.122348,299.064167 540.705455,301.08655 C539.289676,303.114498 538.104295,305.235941 537.162668,307.462009 C536.219928,309.688077 535.745776,311.947536 535.745776,314.239273 C535.745776,314.780208 535.745776,315.590496 535.745776,316.670139 C535.745776,317.750895 535.811445,318.692522 535.950574,319.502811 L509.241097,319.502811 C508.963951,318.152701 508.799222,316.637861 508.733553,314.951615 C508.661206,313.265368 508.634493,311.816198 508.634493,310.597426 C508.634493,306.823127 509.10308,303.418356 510.051385,300.380887 C510.993012,297.34453 512.237384,294.512971 513.792293,291.883985 C515.340523,289.249433 517.131395,286.792967 519.153778,284.494218 C521.17616,282.202036 523.27089,279.975745 525.424611,277.821802 C528.526637,274.719553 531.359309,271.650028 533.928191,268.61356 C536.483717,265.577092 537.768158,262.105873 537.768158,258.193336 C537.768158,254.952737 536.522673,252.192858 534.027251,249.894109 C531.530716,247.601927 527.855478,246.455835 523.000423,246.455835" id="Fill-11" fill="#C4CBDC"></path>
        <path d="M538.388118,349.494625 C538.388118,354.367488 536.810949,358.127317 533.656611,360.779677 C530.501159,363.437603 526.936111,364.761 522.954789,364.761 C518.967901,364.761 515.402853,363.437603 512.248515,360.779677 C509.098628,358.127317 507.521459,354.367488 507.521459,349.494625 C507.521459,344.628441 509.098628,340.868612 512.248515,338.210687 C515.402853,335.558327 518.967901,334.229364 522.954789,334.229364 C526.936111,334.229364 530.501159,335.558327 533.656611,338.210687 C536.810949,340.868612 538.388118,344.628441 538.388118,349.494625" id="Fill-13" fill="#C4CBDC"></path>
        <g id="Group-2" transform="translate(619.944564, 255.261000) rotate(35.000000) translate(-619.944564, -255.261000) translate(602.371809, 224.761000)" fill="#C4CBDC">
            <path d="M15.5162878,10.8846178 C13.4572753,10.8846178 11.5151933,11.1412989 9.6876842,11.6547082 C7.85734614,12.1708994 5.82850928,12.9995965 3.60216377,14.1407996 L0,4.45599149 C2.22936307,3.02736595 4.85770401,1.92803153 7.88799322,1.15515926 C10.9154535,0.385021654 13.886806,0 16.8025223,0 C20.458012,0 23.4713274,0.485496935 25.8429401,1.4564908 C28.2145528,2.42748467 30.0868538,3.65515965 31.459843,5.14234468 C32.8295319,6.62952972 33.7866638,8.25622971 34.3307674,10.0280083 C34.8720421,11.799834 35.1455083,13.4850935 35.1455083,15.083881 C35.1455083,16.6854504 34.8998602,18.1558974 34.4146933,19.4980039 C33.9290549,20.8428922 33.3151703,22.0845233 32.5730394,23.2285082 C31.8309085,24.3724931 30.9713757,25.4550895 30.0005704,26.48469 C29.0292937,27.5142905 28.0863065,28.4852844 27.1739664,29.3976716 C26.4874718,30.0841662 25.773159,30.8121523 25.0310281,31.5854018 C24.2860683,32.3553508 23.6165474,33.1700917 23.0163361,34.0267955 C22.4165963,34.8858568 21.9144556,35.7845236 21.515572,36.7275107 C21.116217,37.6704979 20.9153607,38.6276298 20.9153607,39.5984351 C20.9153607,39.827581 20.9153607,40.1708283 20.9153607,40.6281771 C20.9153607,41.0859973 20.9431788,41.4848809 21.0021155,41.8281282 L9.6876842,41.8281282 C9.5702823,41.2562065 9.50050125,40.6145038 9.47268313,39.900191 C9.44203605,39.1858782 9.4307202,38.5719936 9.4307202,38.0557081 C9.4307202,36.4568734 9.629219,35.0145746 10.0309315,33.7278686 C10.4298151,32.4416341 10.9569449,31.2421545 11.6156214,30.1284866 C12.271469,29.0124613 13.0301022,27.971875 13.886806,26.9980993 C14.7435098,26.0271055 15.6308607,25.084024 16.5432008,24.1715897 C17.8572534,22.8574428 19.0572045,21.5571578 20.1454117,20.2708762 C21.227961,18.9845945 21.7720645,17.5141475 21.7720645,15.8567533 C21.7720645,14.4839997 21.2444632,13.3148843 20.1873746,12.3411086 C19.1298145,11.3701147 17.5729428,10.8846178 15.5162878,10.8846178" id="Fill-11"></path>
            <path d="M22.0346865,54.5329941 C22.0346865,56.597193 21.3665801,58.1898983 20.0303673,59.3134675 C18.693683,60.4393941 17.1834891,61 15.4969565,61 C13.8080666,61 12.2978726,60.4393941 10.9616598,59.3134675 C9.62733302,58.1898983 8.95922663,56.597193 8.95922663,54.5329941 C8.95922663,52.4716242 9.62733302,50.8789189 10.9616598,49.7529922 C12.2978726,48.6294231 13.8080666,48.0664597 15.4969565,48.0664597 C17.1834891,48.0664597 18.693683,48.6294231 20.0303673,49.7529922 C21.3665801,50.8789189 22.0346865,52.4716242 22.0346865,54.5329941" id="Fill-13"></path>
        </g>
        <g id="Group-2" transform="translate(622.944564, 310.261000) rotate(35.000000) translate(-622.944564, -310.261000) translate(605.371809, 279.761000)" fill="#C4CBDC">
            <path d="M15.5162878,10.8846178 C13.4572753,10.8846178 11.5151933,11.1412989 9.6876842,11.6547082 C7.85734614,12.1708994 5.82850928,12.9995965 3.60216377,14.1407996 L0,4.45599149 C2.22936307,3.02736595 4.85770401,1.92803153 7.88799322,1.15515926 C10.9154535,0.385021654 13.886806,4.54747351e-13 16.8025223,4.54747351e-13 C20.458012,4.54747351e-13 23.4713274,0.485496935 25.8429401,1.4564908 C28.2145528,2.42748467 30.0868538,3.65515965 31.459843,5.14234468 C32.8295319,6.62952972 33.7866638,8.25622971 34.3307674,10.0280083 C34.8720421,11.799834 35.1455083,13.4850935 35.1455083,15.083881 C35.1455083,16.6854504 34.8998602,18.1558974 34.4146933,19.4980039 C33.9290549,20.8428922 33.3151703,22.0845233 32.5730394,23.2285082 C31.8309085,24.3724931 30.9713757,25.4550895 30.0005704,26.48469 C29.0292937,27.5142905 28.0863065,28.4852844 27.1739664,29.3976716 C26.4874718,30.0841662 25.773159,30.8121523 25.0310281,31.5854018 C24.2860683,32.3553508 23.6165474,33.1700917 23.0163361,34.0267955 C22.4165963,34.8858568 21.9144556,35.7845236 21.515572,36.7275107 C21.116217,37.6704979 20.9153607,38.6276298 20.9153607,39.5984351 C20.9153607,39.827581 20.9153607,40.1708283 20.9153607,40.6281771 C20.9153607,41.0859973 20.9431788,41.4848809 21.0021155,41.8281282 L9.6876842,41.8281282 C9.5702823,41.2562065 9.50050125,40.6145038 9.47268313,39.900191 C9.44203605,39.1858782 9.4307202,38.5719936 9.4307202,38.0557081 C9.4307202,36.4568734 9.629219,35.0145746 10.0309315,33.7278686 C10.4298151,32.4416341 10.9569449,31.2421545 11.6156214,30.1284866 C12.271469,29.0124613 13.0301022,27.971875 13.886806,26.9980993 C14.7435098,26.0271055 15.6308607,25.084024 16.5432008,24.1715897 C17.8572534,22.8574428 19.0572045,21.5571578 20.1454117,20.2708762 C21.227961,18.9845945 21.7720645,17.5141475 21.7720645,15.8567533 C21.7720645,14.4839997 21.2444632,13.3148843 20.1873746,12.3411086 C19.1298145,11.3701147 17.5729428,10.8846178 15.5162878,10.8846178" id="Fill-11"></path>
            <path d="M22.0346865,54.5329941 C22.0346865,56.597193 21.3665801,58.1898983 20.0303673,59.3134675 C18.693683,60.4393941 17.1834891,61 15.4969565,61 C13.8080666,61 12.2978726,60.4393941 10.9616598,59.3134675 C9.62733302,58.1898983 8.95922663,56.597193 8.95922663,54.5329941 C8.95922663,52.4716242 9.62733302,50.8789189 10.9616598,49.7529922 C12.2978726,48.6294231 13.8080666,48.0664597 15.4969565,48.0664597 C17.1834891,48.0664597 18.693683,48.6294231 20.0303673,49.7529922 C21.3665801,50.8789189 22.0346865,52.4716242 22.0346865,54.5329941" id="Fill-13"></path>
        </g>
        <g id="Group" transform="translate(428.944564, 245.261000) rotate(-28.000000) translate(-428.944564, -245.261000) translate(411.371809, 214.761000)" fill="#C4CBDC">
            <path d="M15.5162878,10.8846178 C13.4572753,10.8846178 11.5151933,11.1412989 9.6876842,11.6547082 C7.85734614,12.1708994 5.82850928,12.9995965 3.60216377,14.1407996 L0,4.45599149 C2.22936307,3.02736595 4.85770401,1.92803153 7.88799322,1.15515926 C10.9154535,0.385021654 13.886806,0 16.8025223,0 C20.458012,0 23.4713274,0.485496935 25.8429401,1.4564908 C28.2145528,2.42748467 30.0868538,3.65515965 31.459843,5.14234468 C32.8295319,6.62952972 33.7866638,8.25622971 34.3307674,10.0280083 C34.8720421,11.799834 35.1455083,13.4850935 35.1455083,15.083881 C35.1455083,16.6854504 34.8998602,18.1558974 34.4146933,19.4980039 C33.9290549,20.8428922 33.3151703,22.0845233 32.5730394,23.2285082 C31.8309085,24.3724931 30.9713757,25.4550895 30.0005704,26.48469 C29.0292937,27.5142905 28.0863065,28.4852844 27.1739664,29.3976716 C26.4874718,30.0841662 25.773159,30.8121523 25.0310281,31.5854018 C24.2860683,32.3553508 23.6165474,33.1700917 23.0163361,34.0267955 C22.4165963,34.8858568 21.9144556,35.7845236 21.515572,36.7275107 C21.116217,37.6704979 20.9153607,38.6276298 20.9153607,39.5984351 C20.9153607,39.827581 20.9153607,40.1708283 20.9153607,40.6281771 C20.9153607,41.0859973 20.9431788,41.4848809 21.0021155,41.8281282 L9.6876842,41.8281282 C9.5702823,41.2562065 9.50050125,40.6145038 9.47268313,39.900191 C9.44203605,39.1858782 9.4307202,38.5719936 9.4307202,38.0557081 C9.4307202,36.4568734 9.629219,35.0145746 10.0309315,33.7278686 C10.4298151,32.4416341 10.9569449,31.2421545 11.6156214,30.1284866 C12.271469,29.0124613 13.0301022,27.971875 13.886806,26.9980993 C14.7435098,26.0271055 15.6308607,25.084024 16.5432008,24.1715897 C17.8572534,22.8574428 19.0572045,21.5571578 20.1454117,20.2708762 C21.227961,18.9845945 21.7720645,17.5141475 21.7720645,15.8567533 C21.7720645,14.4839997 21.2444632,13.3148843 20.1873746,12.3411086 C19.1298145,11.3701147 17.5729428,10.8846178 15.5162878,10.8846178" id="Fill-11"></path>
            <path d="M22.0346865,54.5329941 C22.0346865,56.597193 21.3665801,58.1898983 20.0303673,59.3134675 C18.693683,60.4393941 17.1834891,61 15.4969565,61 C13.8080666,61 12.2978726,60.4393941 10.9616598,59.3134675 C9.62733302,58.1898983 8.95922663,56.597193 8.95922663,54.5329941 C8.95922663,52.4716242 9.62733302,50.8789189 10.9616598,49.7529922 C12.2978726,48.6294231 13.8080666,48.0664597 15.4969565,48.0664597 C17.1834891,48.0664597 18.693683,48.6294231 20.0303673,49.7529922 C21.3665801,50.8789189 22.0346865,52.4716242 22.0346865,54.5329941" id="Fill-13"></path>
        </g>
        <g id="Group" transform="translate(423.944564, 319.261000) rotate(-28.000000) translate(-423.944564, -319.261000) translate(406.371809, 288.761000)" fill="#C4CBDC">
            <path d="M15.5162878,10.8846178 C13.4572753,10.8846178 11.5151933,11.1412989 9.6876842,11.6547082 C7.85734614,12.1708994 5.82850928,12.9995965 3.60216377,14.1407996 L0,4.45599149 C2.22936307,3.02736595 4.85770401,1.92803153 7.88799322,1.15515926 C10.9154535,0.385021654 13.886806,-9.09494702e-13 16.8025223,-9.09494702e-13 C20.458012,-9.09494702e-13 23.4713274,0.485496935 25.8429401,1.4564908 C28.2145528,2.42748467 30.0868538,3.65515965 31.459843,5.14234468 C32.8295319,6.62952972 33.7866638,8.25622971 34.3307674,10.0280083 C34.8720421,11.799834 35.1455083,13.4850935 35.1455083,15.083881 C35.1455083,16.6854504 34.8998602,18.1558974 34.4146933,19.4980039 C33.9290549,20.8428922 33.3151703,22.0845233 32.5730394,23.2285082 C31.8309085,24.3724931 30.9713757,25.4550895 30.0005704,26.48469 C29.0292937,27.5142905 28.0863065,28.4852844 27.1739664,29.3976716 C26.4874718,30.0841662 25.773159,30.8121523 25.0310281,31.5854018 C24.2860683,32.3553508 23.6165474,33.1700917 23.0163361,34.0267955 C22.4165963,34.8858568 21.9144556,35.7845236 21.515572,36.7275107 C21.116217,37.6704979 20.9153607,38.6276298 20.9153607,39.5984351 C20.9153607,39.827581 20.9153607,40.1708283 20.9153607,40.6281771 C20.9153607,41.0859973 20.9431788,41.4848809 21.0021155,41.8281282 L9.6876842,41.8281282 C9.5702823,41.2562065 9.50050125,40.6145038 9.47268313,39.900191 C9.44203605,39.1858782 9.4307202,38.5719936 9.4307202,38.0557081 C9.4307202,36.4568734 9.629219,35.0145746 10.0309315,33.7278686 C10.4298151,32.4416341 10.9569449,31.2421545 11.6156214,30.1284866 C12.271469,29.0124613 13.0301022,27.971875 13.886806,26.9980993 C14.7435098,26.0271055 15.6308607,25.084024 16.5432008,24.1715897 C17.8572534,22.8574428 19.0572045,21.5571578 20.1454117,20.2708762 C21.227961,18.9845945 21.7720645,17.5141475 21.7720645,15.8567533 C21.7720645,14.4839997 21.2444632,13.3148843 20.1873746,12.3411086 C19.1298145,11.3701147 17.5729428,10.8846178 15.5162878,10.8846178" id="Fill-11"></path>
            <path d="M22.0346865,54.5329941 C22.0346865,56.597193 21.3665801,58.1898983 20.0303673,59.3134675 C18.693683,60.4393941 17.1834891,61 15.4969565,61 C13.8080666,61 12.2978726,60.4393941 10.9616598,59.3134675 C9.62733302,58.1898983 8.95922663,56.597193 8.95922663,54.5329941 C8.95922663,52.4716242 9.62733302,50.8789189 10.9616598,49.7529922 C12.2978726,48.6294231 13.8080666,48.0664597 15.4969565,48.0664597 C17.1834891,48.0664597 18.693683,48.6294231 20.0303673,49.7529922 C21.3665801,50.8789189 22.0346865,52.4716242 22.0346865,54.5329941" id="Fill-13"></path>
        </g>
        <g id="Group-2" transform="translate(190.000000, 259.000000)">
            <polygon id="Polygon" fill="#FFFFFF" points="89.5 13 163.545172 58.5 163.545172 149.5 89.5 195 15.454828 149.5 15.454828 58.5"></polygon>
            <g id="Group" fill="#202945" fill-rule="nonzero">
                <path d="M89.4963731,0 L0,51.7518161 L0,155.248184 L89.4963731,207 L179,155.248184 L179,51.7518161 L89.4963731,0 Z M134.259067,100.721355 L134.259067,151.608703 L90.2507598,177.070539 L42.5140414,149.451167 L82.7939377,126.175926 L47.1128987,105.544938 L42.5140414,103.002386 L42.5140414,57.1129672 L44.6466345,55.8780137 L89.4020748,29.9512546 L136.485959,57.1783471 L97.7220894,79.5963853 L134.259067,100.721355 Z" id="Shape"></path>
                <polygon id="Path" points="93.7525693 165.847685 93.7525693 165.818599 89.9671787 168 57 149.021814 90.0182341 130 110.805061 141.968618 123 149.014543"></polygon>
                <polygon id="Path" points="127 105.127398 126.992785 143 110.529172 133.444786 110.521957 133.444786 91.8506901 122.605386 91.836261 122.612641 58 102.943556 90.5737139 84 123.991531 103.364363 123.984316 103.378874"></polygon>
            </g>
        </g>
    </g>
</svg>