<?xml version="1.0" encoding="UTF-8"?>
<svg width="118px" height="91px" viewBox="0 0 118 91" version="1.1" xmlns="http://www.w3.org/2000/svg" xmlns:xlink="http://www.w3.org/1999/xlink">
    <title>Logo</title>
    <g id="Login" stroke="none" stroke-width="1" fill="none" fill-rule="evenodd">
        <g transform="translate(-670.000000, -72.000000)" fill="#FFFFFF" fill-rule="nonzero" id="Logo">
            <g transform="translate(670.000000, 72.000000)" id="Sumadi-Logo-Master-File-copy_Artboard-10">
                <g id="Group" transform="translate(0.000000, 70.000000)">
                    <g>
                        <path d="M14.9146856,4.22333788 C13.3891768,1.83632287 10.9391171,1.48625463 8.57731004,1.45759407 C6.12514914,1.45759407 2.23993447,2.33174108 2.23993447,5.59495028 C2.23993447,8.18668356 5.11024449,8.79879119 8.63824635,9.43751219 C12.6747511,10.1949698 16.8604448,10.8910119 16.8604448,15.2904075 C16.8310273,19.8924742 12.0779956,21 8.58151255,21 C5.32247093,21 1.61586267,19.6898031 0,16.573991 L1.43515501,15.8738546 C2.72112114,18.3488984 6.00958028,19.5731137 8.58151255,19.5710665 C11.1534448,19.5710665 15.2487847,18.87093 15.2466834,15.2596997 C15.2761009,12.2012088 11.8090354,11.5317801 8.36928611,10.8930591 C4.54290649,10.1663092 0.626173051,9.40885163 0.624071799,5.6522714 C0.533717969,1.34090466 5.13756077,0.00204718269 8.57520879,0 C11.5652902,0 14.16664,0.46471047 16.2300693,3.46383311 L14.9146856,4.22333788 Z" id="Path"></path>
                        <path d="M36.2886194,0.286605576 L36.2907207,12.9566192 C36.2928219,23.6162995 20.2686753,23.6490544 20.2665741,12.9607136 L20.2644728,0.290699942 L21.8488167,0.290699942 L21.850918,12.9607136 C21.8530192,21.7267499 34.708478,21.6960421 34.7063768,12.9586664 L34.7042755,0.288652759 L36.2886194,0.286605576 Z" id="Path"></path>
                        <path d="M58.9485193,2.55283681 L50.9385473,14.4961006 L50.4006268,14.4961006 L42.325516,2.55693118 L42.3297185,20.674498 L40.715957,20.674498 L40.7117545,0.286605576 C41.4892177,0.286605576 41.8485318,0.286605576 42.625995,0.286605576 L50.6401695,12.1684539 L58.5597877,0.282511211 L60.5328632,0.282511211 L60.5370657,20.6704036 L58.9527218,20.6704036 L58.9485193,2.55283681 Z" id="Path"></path>
                        <path d="M81.7912282,20.6663092 L79.4882561,15.6568532 L66.9921114,15.6589004 L64.7206582,20.6683564 L62.9871254,20.6683564 L72.3692149,0.278416845 L74.1321652,0.278416845 L83.5226597,20.664262 L81.7912282,20.6663092 Z M78.8599818,14.1992591 L73.2370319,1.79333203 L67.6203857,14.2013063 L78.8599818,14.1992591 Z" id="Shape"></path>
                        <path d="M104.390192,10.2338663 C104.509963,15.41938 101.103834,20.6622149 93.77887,20.664262 C91.4170629,20.664262 89.0552558,20.664262 86.6934487,20.6663092 L86.6892462,0.278416845 C89.0510533,0.278416845 91.4128604,0.278416845 93.7746675,0.276369028 C100.860089,0.27432248 104.268319,5.22441022 104.390192,10.2338663 Z M88.3030076,1.76057637 L88.3072101,19.1493469 L93.77887,19.1493469 C99.9964742,19.1472997 102.866784,14.6046013 102.77643,10.2338663 C102.686077,5.98186781 99.8157665,1.75852993 93.7767687,1.76057637 L88.3030076,1.76057637 Z" id="Shape"></path>
                        <polygon id="Path" points="108.397279 20.6601677 108.393077 0.272275297 109.97742 0.272275297 109.981623 20.6601677"></polygon>
                    </g>
                    <g transform="translate(112.517834, 0.280464)" id="Path">
                        <polygon points="1.06953719 0.315266134 0.149188881 0.315266134 0.149188881 0.145349971 2.18530192 0.145349971 2.18530192 0.315266134 1.26495361 0.315266134 1.26495361 2.62039384 1.06953719 2.62039384"></polygon>
                        <polygon points="1.41414249 2.76574381 0.920348309 2.76574381 0.920348309 0.460616105 0 0.460616105 0 0 2.3344908 0 2.3344908 0.460616105 1.41414249 0.460616105"></polygon>
                    </g>
                    <g transform="translate(115.291486, 0.210860)" id="Path">
                        <path d="M2.36600958,0.487229479 L1.39312997,1.938682 L1.32799117,1.938682 L0.346706555,0.487229479 L0.346706555,2.68999805 L0.151290133,2.68999805 L0.151290133,0.210859817 C0.245846466,0.210859817 0.289972755,0.210859817 0.384529088,0.210859817 L1.35950995,1.65617079 L2.32188329,0.210859817 L2.561426,0.210859817 L2.561426,2.68999805 L2.36811083,2.68999805 L2.36600958,0.487229479 Z"></path>
                        <polygon points="0.00210125185 2.83534802 0 0.065509846 0.197517674 0.065509846 0.197517674 0.00409436537 0.239542711 0.065509846 0.462275406 0.065509846 1.35530744 1.39003704 2.23993447 0.065509846 2.47107217 0.065509846 2.51519846 0 2.51519846 0.065509846 2.70851363 0.065509846 2.70851363 2.83534802 2.21892195 2.83534802 2.21892195 0.974458959 1.47297755 2.08403198 1.2481436 2.08403198 0.493794184 0.970364593 0.493794184 2.83534802"></polygon>
                    </g>
                </g>
                <g id="Group" transform="translate(33.000000, 0.000000)">
                    <path d="M25.9989464,0 L0,15.0005264 L0,44.9994736 L25.9989464,60 L52,44.9994736 L52,15.0005264 L25.9989464,0 Z M39.002634,29.1945955 L39.002634,43.9445517 L26.2180978,51.3247938 L12.3504478,43.3191788 L24.0518702,36.5727321 L13.6864287,30.5927356 L12.3504478,29.8557642 L12.3504478,16.5544832 L12.969972,16.1965257 L25.9715525,8.68152307 L39.6495522,16.5734339 L28.3885399,23.071416 L39.002634,29.1945955 Z" id="Shape"></path>
                    <polygon id="Path" points="27.3033189 48.1937182 27.3033189 48.1852957 26.2096689 48.8169854 16.6850103 43.3212844 26.2244195 37.8129496 32.2300118 41.2788208 35.7532925 43.3191788"></polygon>
                    <polygon id="Path" points="36.8385136 30.4516582 36.8364064 41.4430602 32.0277181 38.6699421 32.0256109 38.6699421 26.5721117 35.524127 26.5678972 35.5262327 16.6850103 29.8178628 26.1991328 24.3200562 35.9598006 29.9399895 35.9576934 29.9442007"></polygon>
                </g>
            </g>
        </g>
    </g>
</svg>