<?xml version="1.0" encoding="UTF-8"?>
<svg width="1010px" height="494px" viewBox="0 0 1010 494" version="1.1" xmlns="http://www.w3.org/2000/svg" xmlns:xlink="http://www.w3.org/1999/xlink">
    <title>Artboard Copy 6</title>
    <defs>
        <path d="M394.024,0 C611.638,0 788.048,6.691 788.048,14.945 C788.048,23.199 611.638,29.89 394.024,29.89 C176.411,29.89 5.68434189e-14,23.199 5.68434189e-14,14.945" id="path-1"></path>
        <path d="M149.758537,65.937 C144.456537,61.99 135.128537,54.976 132.146537,52.281 C127.895537,48.442 125.152537,5.68434189e-14 125.152537,5.68434189e-14 L25.2355372,5.68434189e-14 C25.2355372,5.68434189e-14 22.4925372,48.442 18.2415372,52.281 C15.2585372,54.976 5.93053723,61.99 0.629537232,65.937 C-0.573462768,66.831 0.0635372318,68.738 1.56153723,68.738 L148.825537,68.738 C150.324537,68.738 150.960537,66.831 149.758537,65.937" id="path-3"></path>
        <linearGradient x1="50.0377323%" y1="60.4497056%" x2="47.8271775%" y2="32.139641%" id="linearGradient-5">
            <stop stop-color="#3549CC" offset="0%"></stop>
            <stop stop-color="#0C0E0D" offset="100%"></stop>
        </linearGradient>
        <path d="M233.435,104.962 L23.893,104.962 C10.697,104.962 0,94.265 0,81.069 L0,23.894 C0,10.698 10.697,0 23.893,0 L233.435,0 C246.635,0 257.325,10.698 257.325,23.894 L257.325,81.069 C257.325,94.265 246.635,104.962 233.435,104.962" id="path-6"></path>
        <linearGradient x1="42.907646%" y1="27.4359653%" x2="49.5141164%" y2="48.4522516%" id="linearGradient-8">
            <stop stop-color="#4BD2D2" offset="0%"></stop>
            <stop stop-color="#4BD2D2" offset="100%"></stop>
        </linearGradient>
        <path d="M106.723664,12.6797172 L53.9998339,0 L1.27663453,12.6797172 C1.27663453,12.6797172 -4.2085166,64.8639324 7.56061245,88.3642798 C19.3297415,111.865257 47.0022122,136 53.9998339,136 C60.9974557,136 88.6705574,111.865257 100.439055,88.3642798 C112.208184,64.8639324 106.723664,12.6797172 106.723664,12.6797172" id="path-9"></path>
    </defs>
    <g id="Artboard-Copy-6" stroke="none" stroke-width="1" fill="none" fill-rule="evenodd">
        <g id="Group-9" transform="translate(-0.000000, 0.000000)">
            <g id="Group-1058" transform="translate(165.799518, 463.981073)">
                <mask id="mask-2" fill="white">
                    <use xlink:href="#path-1"></use>
                </mask>
                <g id="Clip-1057"></g>
                <path d="M394.024,29.89 C176.411,29.89 5.68434189e-14,23.199 5.68434189e-14,14.945 C5.68434189e-14,6.691 176.411,0 394.024,0 C611.638,0 788.048,6.691 788.048,14.945 C788.048,23.199 611.638,29.89 394.024,29.89" id="Fill-1056" mask="url(#mask-2)"></path>
            </g>
            <path d="M184.137518,433.526073 C292.084518,452.204073 325.475518,328.587073 472.565518,311.866073 C643.836518,292.398073 716.503518,446.595073 833.447518,411.655073 C964.667518,372.448073 1057.40752,123.238073 983.807518,31.640073 C893.747518,-80.443927 633.693518,141.877073 162.265518,134.162073 C111.750518,133.335073 34.4645184,129.469073 9.16651841,172.437073 C-30.7464816,240.227073 65.5675184,413.009073 184.137518,433.526073" id="Fill-1059" fill="#4BD2D2" opacity="0.238667806"></path>
            <path d="M601.922518,471.177073 L452.088518,471.177073 C450.680518,472.941073 451.874518,475.037073 453.373518,475.037073 L600.637518,475.037073 C602.135518,475.037073 603.432518,472.534073 601.922518,471.177073" id="Fill-1060" fill="#0C0D0D"></path>
            <path d="M767.547518,404.881073 L286.508518,404.881073 C280.388518,404.881073 275.427518,399.919073 275.427518,393.799073 L275.427518,125.965073 C275.427518,119.845073 280.388518,114.884073 286.508518,114.884073 L767.547518,114.884073 C773.667518,114.884073 778.627518,119.845073 778.627518,125.965073 L778.627518,393.799073 C778.627518,399.919073 773.667518,404.881073 767.547518,404.881073" id="Fill-1061" fill="#3549CC"></path>
            <path d="M289.512518,397.024073 C284.573518,397.024073 280.570518,393.021073 280.570518,388.081073 L280.570518,129.044073 C280.570518,124.106073 284.573518,120.102073 289.512518,120.102073 L764.547518,120.102073 C769.477518,120.102073 773.487518,124.106073 773.487518,129.044073 L773.487518,388.081073 C773.487518,393.021073 769.477518,397.024073 764.547518,397.024073 L289.512518,397.024073 Z" id="Fill-1062" fill="#FFFFFE"></path>
            <rect id="Rectangle" fill="#F3F3F3" x="336" y="196" width="379" height="179"></rect>
            <g id="Group-1065" transform="translate(451.833981, 404.881073)">
                <mask id="mask-4" fill="white">
                    <use xlink:href="#path-3"></use>
                </mask>
                <g id="Clip-1064"></g>
                <path d="M149.758537,65.937 C144.456537,61.99 135.128537,54.976 132.146537,52.281 C127.895537,48.442 125.152537,5.68434189e-14 125.152537,5.68434189e-14 L25.2355372,5.68434189e-14 C25.2355372,5.68434189e-14 22.4925372,48.442 18.2415372,52.281 C15.2585372,54.976 5.93053723,61.99 0.629537232,65.937 C-0.573462768,66.831 0.0635372318,68.738 1.56153723,68.738 L148.825537,68.738 C150.324537,68.738 150.960537,66.831 149.758537,65.937" id="Fill-1063" fill="url(#linearGradient-5)" mask="url(#mask-4)"></path>
            </g>
            <path d="M714.560518,192.211073 L339.495518,192.211073 L339.495518,168.091073 C339.495518,165.346073 341.720518,163.121073 344.465518,163.121073 L709.590518,163.121073 C712.335518,163.121073 714.560518,165.346073 714.560518,168.091073 L714.560518,192.211073 Z M714.560518,367.220073 C714.560518,369.964073 712.335518,372.190073 709.590518,372.190073 L344.465518,372.190073 C341.720518,372.190073 339.495518,369.964073 339.495518,367.220073 L339.495518,195.965073 L714.560518,195.965073 L714.560518,367.220073 Z M709.590518,159.367073 L344.465518,159.367073 C339.654518,159.367073 335.741518,163.281073 335.741518,168.091073 L335.741518,367.220073 C335.741518,372.031073 339.654518,375.944073 344.465518,375.944073 L709.590518,375.944073 C714.401518,375.944073 718.314518,372.031073 718.314518,367.220073 L718.314518,168.091073 C718.314518,163.281073 714.401518,159.367073 709.590518,159.367073 L709.590518,159.367073 Z" id="Fill-1066" fill="#8996BB"></path>
            <path d="M654.406518,184.291073 C657.749518,184.291073 660.471518,181.570073 660.471518,178.226073 C660.471518,174.882073 657.749518,172.160073 654.406518,172.160073 C651.061518,172.160073 648.340518,174.882073 648.340518,178.226073 C648.340518,181.570073 651.061518,184.291073 654.406518,184.291073" id="Fill-1067" fill="#8996BB"></path>
            <path d="M674.823518,184.291073 C678.168518,184.291073 680.890518,181.570073 680.890518,178.226073 C680.890518,174.882073 678.168518,172.160073 674.823518,172.160073 C671.479518,172.160073 668.758518,174.882073 668.758518,178.226073 C668.758518,181.570073 671.479518,184.291073 674.823518,184.291073" id="Fill-1068" fill="#8996BB"></path>
            <path d="M695.241518,184.291073 C698.586518,184.291073 701.307518,181.570073 701.307518,178.226073 C701.307518,174.882073 698.586518,172.160073 695.241518,172.160073 C691.897518,172.160073 689.176518,174.882073 689.176518,178.226073 C689.176518,181.570073 691.897518,184.291073 695.241518,184.291073" id="Fill-1069" fill="#8996BB"></path>
            <g id="Group-1077" transform="translate(576.892518, 370.075073)">
                <mask id="mask-7" fill="white">
                    <use xlink:href="#path-6"></use>
                </mask>
                <g id="Clip-1076"></g>
                <path d="M233.435,104.962 L23.893,104.962 C10.697,104.962 0,94.265 0,81.069 L0,23.894 C0,10.698 10.697,0 23.893,0 L233.435,0 C246.635,0 257.325,10.698 257.325,23.894 L257.325,81.069 C257.325,94.265 246.635,104.962 233.435,104.962" id="Fill-1075" fill="url(#linearGradient-8)" mask="url(#mask-7)"></path>
            </g>
            <path d="M799.067518,421.114073 L703.268518,421.114073 C699.936518,421.114073 697.236518,418.412073 697.236518,415.080073 C697.236518,411.748073 699.936518,409.048073 703.268518,409.048073 L799.067518,409.048073 C802.407518,409.048073 805.107518,411.748073 805.107518,415.080073 C805.107518,418.412073 802.407518,421.114073 799.067518,421.114073" id="Fill-1078" fill="#FFFFFE"></path>
            <path d="M799.067518,446.831073 L703.268518,446.831073 C699.936518,446.831073 697.236518,444.130073 697.236518,440.798073 C697.236518,437.466073 699.936518,434.766073 703.268518,434.766073 L799.067518,434.766073 C802.407518,434.766073 805.107518,437.466073 805.107518,440.798073 C805.107518,444.130073 802.407518,446.831073 799.067518,446.831073" id="Fill-1079" fill="#FFFFFE"></path>
            <path d="M619.401518,421.280073 C616.114518,421.280073 613.439518,423.953073 613.439518,427.241073 C613.439518,430.530073 616.114518,433.203073 619.401518,433.203073 C622.689518,433.203073 625.364518,430.530073 625.364518,427.241073 C625.364518,423.953073 622.689518,421.280073 619.401518,421.280073 Z M619.401518,441.860073 C611.340518,441.860073 604.782518,435.302073 604.782518,427.241073 C604.782518,419.181073 611.340518,412.623073 619.401518,412.623073 C627.461518,412.623073 634.019518,419.181073 634.019518,427.241073 C634.019518,435.302073 627.461518,441.860073 619.401518,441.860073 L619.401518,441.860073 Z" id="Fill-1080" fill="#FFFFFE"></path>
            <path d="M659.981518,421.280073 C656.694518,421.280073 654.019518,423.953073 654.019518,427.241073 C654.019518,430.530073 656.694518,433.203073 659.981518,433.203073 C663.269518,433.203073 665.943518,430.530073 665.943518,427.241073 C665.943518,423.953073 663.269518,421.280073 659.981518,421.280073 Z M659.981518,441.860073 C651.920518,441.860073 645.363518,435.302073 645.363518,427.241073 C645.363518,419.181073 651.920518,412.623073 659.981518,412.623073 C668.041518,412.623073 674.599518,419.181073 674.599518,427.241073 C674.599518,435.302073 668.041518,441.860073 659.981518,441.860073 L659.981518,441.860073 Z" id="Fill-1081" fill="#FFFFFE"></path>
            <path d="M810.887518,161.867073 L804.887518,161.867073 C803.507518,161.867073 802.387518,160.748073 802.387518,159.367073 C802.387518,157.986073 803.507518,156.867073 804.887518,156.867073 L810.887518,156.867073 C812.277518,156.867073 813.387518,157.986073 813.387518,159.367073 C813.387518,160.748073 812.277518,161.867073 810.887518,161.867073" id="Fill-1111" fill="#3549CC"></path>
            <path d="M836.967518,161.867073 L823.927518,161.867073 C822.547518,161.867073 821.427518,160.748073 821.427518,159.367073 C821.427518,157.986073 822.547518,156.867073 823.927518,156.867073 L836.967518,156.867073 C838.347518,156.867073 839.467518,157.986073 839.467518,159.367073 C839.467518,160.748073 838.347518,161.867073 836.967518,161.867073 Z M863.047518,161.867073 L850.007518,161.867073 C848.627518,161.867073 847.507518,160.748073 847.507518,159.367073 C847.507518,157.986073 848.627518,156.867073 850.007518,156.867073 L863.047518,156.867073 C864.427518,156.867073 865.547518,157.986073 865.547518,159.367073 C865.547518,160.748073 864.427518,161.867073 863.047518,161.867073 Z M889.117518,161.867073 L876.077518,161.867073 C874.697518,161.867073 873.577518,160.748073 873.577518,159.367073 C873.577518,157.986073 874.697518,156.867073 876.077518,156.867073 L889.117518,156.867073 C890.497518,156.867073 891.617518,157.986073 891.617518,159.367073 C891.617518,160.748073 890.497518,161.867073 889.117518,161.867073 Z M915.197518,161.867073 L902.157518,161.867073 C900.777518,161.867073 899.657518,160.748073 899.657518,159.367073 C899.657518,157.986073 900.777518,156.867073 902.157518,156.867073 L915.197518,156.867073 C916.577518,156.867073 917.697518,157.986073 917.697518,159.367073 C917.697518,160.748073 916.577518,161.867073 915.197518,161.867073 L915.197518,161.867073 Z" id="Fill-1112" fill="#3549CC"></path>
            <path d="M934.227518,167.867073 C932.847518,167.867073 931.727518,166.748073 931.727518,165.367073 L931.727518,161.867073 L928.227518,161.867073 C926.847518,161.867073 925.727518,160.748073 925.727518,159.367073 C925.727518,157.986073 926.847518,156.867073 928.227518,156.867073 L934.227518,156.867073 C935.607518,156.867073 936.727518,157.986073 936.727518,159.367073 L936.727518,165.367073 C936.727518,166.748073 935.607518,167.867073 934.227518,167.867073" id="Fill-1113" fill="#3549CC"></path>
            <path d="M934.227518,192.272073 C932.847518,192.272073 931.727518,191.153073 931.727518,189.772073 L931.727518,177.570073 C931.727518,176.189073 932.847518,175.070073 934.227518,175.070073 C935.607518,175.070073 936.727518,176.189073 936.727518,177.570073 L936.727518,189.772073 C936.727518,191.153073 935.607518,192.272073 934.227518,192.272073 Z M934.227518,216.677073 C932.847518,216.677073 931.727518,215.558073 931.727518,214.177073 L931.727518,201.975073 C931.727518,200.594073 932.847518,199.475073 934.227518,199.475073 C935.607518,199.475073 936.727518,200.594073 936.727518,201.975073 L936.727518,214.177073 C936.727518,215.558073 935.607518,216.677073 934.227518,216.677073 Z M934.227518,241.082073 C932.847518,241.082073 931.727518,239.963073 931.727518,238.582073 L931.727518,226.380073 C931.727518,224.999073 932.847518,223.880073 934.227518,223.880073 C935.607518,223.880073 936.727518,224.999073 936.727518,226.380073 L936.727518,238.582073 C936.727518,239.963073 935.607518,241.082073 934.227518,241.082073 Z M934.227518,265.488073 C932.847518,265.488073 931.727518,264.368073 931.727518,262.988073 L931.727518,250.785073 C931.727518,249.404073 932.847518,248.285073 934.227518,248.285073 C935.607518,248.285073 936.727518,249.404073 936.727518,250.785073 L936.727518,262.988073 C936.727518,264.368073 935.607518,265.488073 934.227518,265.488073 Z M934.227518,289.892073 C932.847518,289.892073 931.727518,288.773073 931.727518,287.392073 L931.727518,275.190073 C931.727518,273.809073 932.847518,272.690073 934.227518,272.690073 C935.607518,272.690073 936.727518,273.809073 936.727518,275.190073 L936.727518,287.392073 C936.727518,288.773073 935.607518,289.892073 934.227518,289.892073 Z M934.227518,314.298073 C932.847518,314.298073 931.727518,313.178073 931.727518,311.798073 L931.727518,299.595073 C931.727518,298.214073 932.847518,297.095073 934.227518,297.095073 C935.607518,297.095073 936.727518,298.214073 936.727518,299.595073 L936.727518,311.798073 C936.727518,313.178073 935.607518,314.298073 934.227518,314.298073 Z M934.227518,338.702073 C932.847518,338.702073 931.727518,337.583073 931.727518,336.202073 L931.727518,324.000073 C931.727518,322.619073 932.847518,321.500073 934.227518,321.500073 C935.607518,321.500073 936.727518,322.619073 936.727518,324.000073 L936.727518,336.202073 C936.727518,337.583073 935.607518,338.702073 934.227518,338.702073 Z M934.227518,363.108073 C932.847518,363.108073 931.727518,361.989073 931.727518,360.608073 L931.727518,348.406073 C931.727518,347.025073 932.847518,345.906073 934.227518,345.906073 C935.607518,345.906073 936.727518,347.025073 936.727518,348.406073 L936.727518,360.608073 C936.727518,361.989073 935.607518,363.108073 934.227518,363.108073 Z M934.227518,387.513073 C932.847518,387.513073 931.727518,386.394073 931.727518,385.013073 L931.727518,372.811073 C931.727518,371.430073 932.847518,370.311073 934.227518,370.311073 C935.607518,370.311073 936.727518,371.430073 936.727518,372.811073 L936.727518,385.013073 C936.727518,386.394073 935.607518,387.513073 934.227518,387.513073 Z M934.227518,411.918073 C932.847518,411.918073 931.727518,410.799073 931.727518,409.418073 L931.727518,397.215073 C931.727518,395.834073 932.847518,394.715073 934.227518,394.715073 C935.607518,394.715073 936.727518,395.834073 936.727518,397.215073 L936.727518,409.418073 C936.727518,410.799073 935.607518,411.918073 934.227518,411.918073 L934.227518,411.918073 Z" id="Fill-1114" fill="#3549CC"></path>
            <path d="M934.227518,430.120073 L928.227518,430.120073 C926.847518,430.120073 925.727518,429.001073 925.727518,427.620073 C925.727518,426.240073 926.847518,425.120073 928.227518,425.120073 L931.727518,425.120073 L931.727518,421.620073 C931.727518,420.240073 932.847518,419.120073 934.227518,419.120073 C935.607518,419.120073 936.727518,420.240073 936.727518,421.620073 L936.727518,427.620073 C936.727518,429.001073 935.607518,430.120073 934.227518,430.120073" id="Fill-1115" fill="#3549CC"></path>
            <path d="M892.087518,430.120073 L880.037518,430.120073 C878.657518,430.120073 877.537518,429.001073 877.537518,427.620073 C877.537518,426.240073 878.657518,425.120073 880.037518,425.120073 L892.087518,425.120073 C893.467518,425.120073 894.587518,426.240073 894.587518,427.620073 C894.587518,429.001073 893.467518,430.120073 892.087518,430.120073 Z M916.187518,430.120073 L904.137518,430.120073 C902.757518,430.120073 901.637518,429.001073 901.637518,427.620073 C901.637518,426.240073 902.757518,425.120073 904.137518,425.120073 L916.187518,425.120073 C917.567518,425.120073 918.687518,426.240073 918.687518,427.620073 C918.687518,429.001073 917.567518,430.120073 916.187518,430.120073 L916.187518,430.120073 Z" id="Fill-1116" fill="#3549CC"></path>
            <path d="M867.997518,430.120073 L861.997518,430.120073 C860.607518,430.120073 859.497518,429.001073 859.497518,427.620073 C859.497518,426.240073 860.607518,425.120073 861.997518,425.120073 L867.997518,425.120073 C869.377518,425.120073 870.497518,426.240073 870.497518,427.620073 C870.497518,429.001073 869.377518,430.120073 867.997518,430.120073" id="Fill-1117" fill="#3549CC"></path>
            <path d="M114.161518,174.660073 L102.161518,174.660073 C100.780518,174.660073 99.6615184,173.541073 99.6615184,172.160073 C99.6615184,170.780073 100.780518,169.660073 102.161518,169.660073 L114.161518,169.660073 C115.542518,169.660073 116.661518,170.780073 116.661518,172.160073 C116.661518,173.541073 115.542518,174.660073 114.161518,174.660073 Z M138.161518,174.660073 L126.161518,174.660073 C124.780518,174.660073 123.661518,173.541073 123.661518,172.160073 C123.661518,170.780073 124.780518,169.660073 126.161518,169.660073 L138.161518,169.660073 C139.542518,169.660073 140.661518,170.780073 140.661518,172.160073 C140.661518,173.541073 139.542518,174.660073 138.161518,174.660073 Z M162.161518,174.660073 L150.161518,174.660073 C148.780518,174.660073 147.661518,173.541073 147.661518,172.160073 C147.661518,170.780073 148.780518,169.660073 150.161518,169.660073 L162.161518,169.660073 C163.542518,169.660073 164.661518,170.780073 164.661518,172.160073 C164.661518,173.541073 163.542518,174.660073 162.161518,174.660073 Z M186.161518,174.660073 L174.161518,174.660073 C172.780518,174.660073 171.661518,173.541073 171.661518,172.160073 C171.661518,170.780073 172.780518,169.660073 174.161518,169.660073 L186.161518,169.660073 C187.542518,169.660073 188.661518,170.780073 188.661518,172.160073 C188.661518,173.541073 187.542518,174.660073 186.161518,174.660073 Z M210.161518,174.660073 L198.161518,174.660073 C196.780518,174.660073 195.661518,173.541073 195.661518,172.160073 C195.661518,170.780073 196.780518,169.660073 198.161518,169.660073 L210.161518,169.660073 C211.542518,169.660073 212.661518,170.780073 212.661518,172.160073 C212.661518,173.541073 211.542518,174.660073 210.161518,174.660073 Z M234.161518,174.660073 L222.161518,174.660073 C220.780518,174.660073 219.661518,173.541073 219.661518,172.160073 C219.661518,170.780073 220.780518,169.660073 222.161518,169.660073 L234.161518,169.660073 C235.542518,169.660073 236.661518,170.780073 236.661518,172.160073 C236.661518,173.541073 235.542518,174.660073 234.161518,174.660073 Z M89.3385184,185.837073 C87.9575184,185.837073 86.8385184,184.718073 86.8385184,183.337073 L86.8385184,172.160073 C86.8385184,170.780073 87.9575184,169.660073 89.3385184,169.660073 L90.1615184,169.660073 C91.5425184,169.660073 92.6615184,170.780073 92.6615184,172.160073 C92.6615184,172.896073 92.3435184,173.557073 91.8385184,174.015073 L91.8385184,183.337073 C91.8385184,184.718073 90.7195184,185.837073 89.3385184,185.837073 Z M89.3385184,209.837073 C87.9575184,209.837073 86.8385184,208.718073 86.8385184,207.337073 L86.8385184,195.337073 C86.8385184,193.956073 87.9575184,192.837073 89.3385184,192.837073 C90.7195184,192.837073 91.8385184,193.956073 91.8385184,195.337073 L91.8385184,207.337073 C91.8385184,208.718073 90.7195184,209.837073 89.3385184,209.837073 Z M89.3385184,233.837073 C87.9575184,233.837073 86.8385184,232.718073 86.8385184,231.337073 L86.8385184,219.337073 C86.8385184,217.956073 87.9575184,216.837073 89.3385184,216.837073 C90.7195184,216.837073 91.8385184,217.956073 91.8385184,219.337073 L91.8385184,231.337073 C91.8385184,232.718073 90.7195184,233.837073 89.3385184,233.837073 Z M89.3385184,257.837073 C87.9575184,257.837073 86.8385184,256.718073 86.8385184,255.337073 L86.8385184,243.337073 C86.8385184,241.956073 87.9575184,240.837073 89.3385184,240.837073 C90.7195184,240.837073 91.8385184,241.956073 91.8385184,243.337073 L91.8385184,255.337073 C91.8385184,256.718073 90.7195184,257.837073 89.3385184,257.837073 Z M89.3385184,281.837073 C87.9575184,281.837073 86.8385184,280.718073 86.8385184,279.337073 L86.8385184,267.337073 C86.8385184,265.956073 87.9575184,264.837073 89.3385184,264.837073 C90.7195184,264.837073 91.8385184,265.956073 91.8385184,267.337073 L91.8385184,279.337073 C91.8385184,280.718073 90.7195184,281.837073 89.3385184,281.837073 Z M89.3385184,305.837073 C87.9575184,305.837073 86.8385184,304.718073 86.8385184,303.337073 L86.8385184,291.337073 C86.8385184,289.956073 87.9575184,288.837073 89.3385184,288.837073 C90.7195184,288.837073 91.8385184,289.956073 91.8385184,291.337073 L91.8385184,303.337073 C91.8385184,304.718073 90.7195184,305.837073 89.3385184,305.837073 Z M89.3385184,329.837073 C87.9575184,329.837073 86.8385184,328.718073 86.8385184,327.337073 L86.8385184,315.337073 C86.8385184,313.956073 87.9575184,312.837073 89.3385184,312.837073 C90.7195184,312.837073 91.8385184,313.956073 91.8385184,315.337073 L91.8385184,327.337073 C91.8385184,328.718073 90.7195184,329.837073 89.3385184,329.837073 Z M89.3385184,353.837073 C87.9575184,353.837073 86.8385184,352.718073 86.8385184,351.337073 L86.8385184,339.337073 C86.8385184,337.956073 87.9575184,336.837073 89.3385184,336.837073 C90.7195184,336.837073 91.8385184,337.956073 91.8385184,339.337073 L91.8385184,351.337073 C91.8385184,352.718073 90.7195184,353.837073 89.3385184,353.837073 Z M89.3385184,377.837073 C87.9575184,377.837073 86.8385184,376.718073 86.8385184,375.337073 L86.8385184,363.337073 C86.8385184,361.956073 87.9575184,360.837073 89.3385184,360.837073 C90.7195184,360.837073 91.8385184,361.956073 91.8385184,363.337073 L91.8385184,375.337073 C91.8385184,376.718073 90.7195184,377.837073 89.3385184,377.837073 Z M97.3895184,393.785073 L89.3385184,393.785073 C87.9575184,393.785073 86.8385184,392.666073 86.8385184,391.285073 L86.8385184,387.337073 C86.8385184,385.956073 87.9575184,384.837073 89.3385184,384.837073 C90.7195184,384.837073 91.8385184,385.956073 91.8385184,387.337073 L91.8385184,388.785073 L97.3895184,388.785073 C98.7705184,388.785073 99.8895184,389.905073 99.8895184,391.285073 C99.8895184,392.666073 98.7705184,393.785073 97.3895184,393.785073 Z M121.389518,393.785073 L109.389518,393.785073 C108.009518,393.785073 106.889518,392.666073 106.889518,391.285073 C106.889518,389.905073 108.009518,388.785073 109.389518,388.785073 L121.389518,388.785073 C122.770518,388.785073 123.889518,389.905073 123.889518,391.285073 C123.889518,392.666073 122.770518,393.785073 121.389518,393.785073 Z M145.389518,393.785073 L133.389518,393.785073 C132.009518,393.785073 130.889518,392.666073 130.889518,391.285073 C130.889518,389.905073 132.009518,388.785073 133.389518,388.785073 L145.389518,388.785073 C146.770518,388.785073 147.889518,389.905073 147.889518,391.285073 C147.889518,392.666073 146.770518,393.785073 145.389518,393.785073 Z M169.389518,393.785073 L157.389518,393.785073 C156.009518,393.785073 154.889518,392.666073 154.889518,391.285073 C154.889518,389.905073 156.009518,388.785073 157.389518,388.785073 L169.389518,388.785073 C170.770518,388.785073 171.889518,389.905073 171.889518,391.285073 C171.889518,392.666073 170.770518,393.785073 169.389518,393.785073 Z M185.295518,393.785073 L181.389518,393.785073 C180.009518,393.785073 178.889518,392.666073 178.889518,391.285073 C178.889518,389.905073 180.009518,388.785073 181.389518,388.785073 L185.295518,388.785073 C186.676518,388.785073 187.795518,389.905073 187.795518,391.285073 C187.795518,392.666073 186.676518,393.785073 185.295518,393.785073 L185.295518,393.785073 Z" id="Fill-1118" fill="#3549CC"></path>
        </g>
        <g id="Group-2" transform="translate(190.000000, 259.000000)">
            <polygon id="Polygon" fill="#FFFFFF" points="89.5 13 163.545172 58.5 163.545172 149.5 89.5 195 15.454828 149.5 15.454828 58.5"></polygon>
            <g id="Group" fill="#202945" fill-rule="nonzero">
                <path d="M89.4963731,0 L0,51.7518161 L0,155.248184 L89.4963731,207 L179,155.248184 L179,51.7518161 L89.4963731,0 Z M134.259067,100.721355 L134.259067,151.608703 L90.2507598,177.070539 L42.5140414,149.451167 L82.7939377,126.175926 L47.1128987,105.544938 L42.5140414,103.002386 L42.5140414,57.1129672 L44.6466345,55.8780137 L89.4020748,29.9512546 L136.485959,57.1783471 L97.7220894,79.5963853 L134.259067,100.721355 Z" id="Shape"></path>
                <polygon id="Path" points="93.7525693 165.847685 93.7525693 165.818599 89.9671787 168 57 149.021814 90.0182341 130 110.805061 141.968618 123 149.014543"></polygon>
                <polygon id="Path" points="127 105.127398 126.992785 143 110.529172 133.444786 110.521957 133.444786 91.8506901 122.605386 91.836261 122.612641 58 102.943556 90.5737139 84 123.991531 103.364363 123.984316 103.378874"></polygon>
            </g>
        </g>
        <path d="M550.737,265.693 L519.183,265.693 L519.183,258.777 C519.183,250.078 526.26,243 534.96,243 C543.659,243 550.737,250.078 550.737,258.777 L550.737,265.693 Z M540.341,306.594 C540.405,306.958 540.304,307.33 540.067,307.612 C539.83,307.894 539.48,308.057 539.111,308.057 L530.808,308.057 C530.44,308.057 530.09,307.894 529.853,307.612 C529.616,307.33 529.515,306.958 529.578,306.594 L531.247,296.99 C527.275,294.796 525.745,289.394 529.363,284.735 C535.639,279.9 542.601,284.31 542.601,290.315 C542.601,293.134 541.088,295.656 538.672,296.99 L540.341,306.594 Z M556.737,265.828 L556.737,258.777 C556.737,246.769 546.968,237 534.96,237 C522.952,237 513.183,246.769 513.183,258.777 L513.183,265.828 C508.546,266.571 505,270.578 505,275.424 L505,315.882 C505,321.256 509.357,325.613 514.731,325.613 L555.189,325.613 C560.563,325.613 564.919,321.256 564.919,315.882 L564.919,275.424 C564.919,270.578 561.373,266.571 556.737,265.828 L556.737,265.828 Z" id="Fill-1070" fill="#8996BB"></path>
        <g id="Group" transform="translate(631.000000, 137.000000)">
            <g id="Group-1073">
                <mask id="mask-10" fill="white">
                    <use xlink:href="#path-9"></use>
                </mask>
                <g id="Clip-1072"></g>
                <path d="M106.723664,12.6797172 L53.9998339,0 L1.27663453,12.6797172 C1.27663453,12.6797172 -4.2085166,64.8639324 7.56061245,88.3642798 C19.3297415,111.865257 47.0022122,136 53.9998339,136 C60.9974557,136 88.6705574,111.865257 100.439055,88.3642798 C112.208184,64.8639324 106.723664,12.6797172 106.723664,12.6797172" id="Fill-1071" fill="#202945" mask="url(#mask-10)"></path>
            </g>
            <path d="M8.90364466,20.6855677 C8.65763357,23.2841625 7.7890252,33.3577972 7.86472092,45.1732436 C7.97889529,63.1907951 10.2220118,77.0587548 14.351844,85.2769677 C18.838077,94.2050866 26.7161089,104.445684 35.9673874,113.374431 C44.6566251,121.760862 51.6162156,126.148972 54,126.148972 C56.3844151,126.148972 63.3440057,121.760862 72.0332434,113.374431 C81.2838911,104.445684 89.161923,94.2050866 93.6481559,85.2769677 C97.7779882,77.0587548 100.021105,63.1907951 100.13591,45.1732436 C100.210975,33.3577972 99.3423664,23.2841625 99.0963553,20.6855677 L54,9.87691982 L8.90364466,20.6855677 Z M54,128 C52.282338,128 49.5945091,126.733342 46.0109477,124.237687 C42.5768852,121.844343 38.655847,118.547768 34.6723598,114.702601 C25.2772595,105.635138 17.2642368,95.2112574 12.6884306,86.1048775 C8.36935904,77.5100566 6.12056539,63.7362489 6.00449862,45.1657114 C5.91807935,31.3881376 7.10524054,19.957459 7.11785649,19.8438489 C7.15885834,19.4546874 7.44208649,19.1326876 7.82498066,19.0410463 L53.7823748,8.0258918 C53.9255659,7.9913694 54.0744341,7.9913694 54.218256,8.0258918 L100.17565,19.0410463 C100.557913,19.1326876 100.841772,19.4546874 100.882774,19.8438489 C100.894759,19.957459 102.081921,31.3881376 101.995501,45.1657114 C101.879435,63.7362489 99.6306409,77.5100566 95.3115694,86.1048775 C90.7357632,95.2112574 82.7227405,105.635138 73.3276402,114.702601 C69.344153,118.547768 65.4231148,121.844343 61.9890523,124.237687 C58.4054908,126.733342 55.717662,128 54,128 L54,128 Z" id="Fill-1074" fill="#FFFFFE"></path>
        </g>
        <g id="Group-3" transform="translate(656.000000, 172.000000)">
            <path d="M57.7707848,25.4106691 C28.2162579,-4.77903311 3.80757541,21.1743519 0.193556876,25.3879495 C-0.0722549545,25.6990322 -0.0637353446,26.1656563 0.215707861,26.4645054 C28.6320149,56.8859467 53.9983015,30.7864577 57.7980475,26.5116921 C58.0774907,26.1971141 58.0655633,25.7112658 57.7707848,25.4106691" id="Fill-186" fill="#FFFFFF"></path>
            <path d="M39.6046788,32 C40.4944489,30.371737 41,28.5082434 41,26.5263003 C41,20.1600589 35.7877676,15 29.357157,15 C27.4242665,15 25.6042823,15.4754661 24,16.3012758 L39.6046788,32" id="Fill-187" fill="#202A46"></path>
            <path d="M18.4707846,20 C17.5375626,21.7474708 17,23.7575875 17,25.9025292 C17,32.5842412 22.163606,38 28.5325543,38 C30.5125209,38 32.3739566,37.4747082 34,36.5536965 L18.4707846,20" id="Fill-190" fill="#202A46"></path>
            <path d="M52.1250498,51 C51.6398911,51 51.1547323,50.8118244 50.7887353,50.437184 L4.5386357,3.20614551 C3.81174871,2.46473381 3.82196258,1.27152971 4.56076574,0.541921755 C5.2978666,-0.189054751 6.48437768,-0.179132767 7.21126466,0.563134272 L53.4613643,47.7941728 C54.1882513,48.5349002 54.1780374,49.7289596 53.4392343,50.4577123 C53.0749396,50.8203779 52.5999947,51 52.1250498,51" id="Fill-193" fill="#CC353D"></path>
        </g>
    </g>
</svg>