<?xml version="1.0" encoding="UTF-8"?>
<svg width="52px" height="60px" viewBox="0 0 52 60" version="1.1" xmlns="http://www.w3.org/2000/svg" xmlns:xlink="http://www.w3.org/1999/xlink">
    <title>Combined Shape</title>
    <g id="Login" stroke="none" stroke-width="1" fill="none" fill-rule="evenodd">
        <g transform="translate(-703.000000, -72.000000)" fill="#FFFFFF" fill-rule="nonzero" id="Logo">
            <g transform="translate(670.000000, 72.000000)">
                <g id="Group" transform="translate(33.000000, 0.000000)">
                    <path d="M25.9989464,0 L52,15.0005264 L52,44.9994736 L25.9989464,60 L0,44.9994736 L0,15.0005264 L25.9989464,0 Z M25.9715525,8.68152307 L12.969972,16.1965257 L12.3504478,16.5544832 L12.3504478,29.8557642 L13.6864287,30.5927356 L24.0518702,36.5727321 L12.3504478,43.3191788 L26.2180978,51.3247938 L39.002634,43.9445517 L39.002634,29.1945955 L28.3885399,23.071416 L39.6495522,16.5734339 L25.9715525,8.68152307 Z M26.2244195,37.8129496 L32.2300118,41.2788208 L35.7532925,43.3191788 L27.3033189,48.1937182 L27.3033189,48.1852957 L26.2096689,48.8169854 L16.6850103,43.3212844 L26.2244195,37.8129496 Z M26.1991328,24.3200562 L35.9598006,29.9399895 L35.9576934,29.9442007 L36.8385136,30.4516582 L36.8364064,41.4430602 L32.0277181,38.6699421 L32.0256109,38.6699421 L26.5721117,35.524127 L26.5678972,35.5262327 L16.6850103,29.8178628 L26.1991328,24.3200562 Z" id="Combined-Shape"></path>
                </g>
            </g>
        </g>
    </g>
</svg>