<?xml version="1.0" encoding="UTF-8"?>
<svg width="133px" height="102px" viewBox="0 0 133 102" version="1.1" xmlns="http://www.w3.org/2000/svg" xmlns:xlink="http://www.w3.org/1999/xlink">
    <title>Artboard</title>
    <g id="Artboard" stroke="none" stroke-width="1" fill="none" fill-rule="evenodd">
        <g id="Logo" fill="#202A46" fill-rule="nonzero">
            <g id="Group" transform="translate(0.000000, 78.000000)">
                <g>
                    <path d="M16.8106202,4.82667187 C15.0911908,2.09865471 12.3296829,1.69857672 9.66764606,1.6658218 C6.90376979,1.6658218 2.5246719,2.66484695 2.5246719,6.39422889 C2.5246719,9.35620979 5.75985184,10.0557614 9.73632851,10.7857282 C14.2859483,11.651394 19.0037217,12.4468707 19.0037217,17.4747514 C18.9705647,22.7342562 13.613334,24 9.67238278,24 C5.99905622,24 1.82126894,22.5026321 0,18.941704 L1.61758997,18.1415481 C3.06702637,20.9701696 6.77350998,22.3692728 9.67238278,22.3669331 C12.5712556,22.3669331 17.1871895,21.5667771 17.1848211,17.4396569 C17.2179782,13.9442386 13.3101839,13.1791772 9.43317841,12.4492104 C5.12039461,11.6186391 0.70577132,10.7529733 0.70340296,6.45973874 C0.601563474,1.53246247 5.79064053,0.00233963736 9.6652777,0 C13.0354542,0 15.967484,0.53109768 18.2932137,3.95866641 L16.8106202,4.82667187 Z" id="Path"></path>
                    <path d="M40.9015795,0.32754923 L40.9039479,14.8075648 C40.9063162,26.9900565 22.8452018,27.0274907 22.8428335,14.8122441 L22.8404651,0.332228505 L24.6262087,0.332228505 L24.628577,14.8122441 C24.6309454,24.8305713 39.1205727,24.7954767 39.1182043,14.8099045 L39.115836,0.329888867 L40.9015795,0.32754923 Z" id="Path"></path>
                    <path d="M66.4419752,2.91752778 L57.4137863,16.5669721 L56.8074862,16.5669721 L47.7058782,2.92220706 L47.7106149,23.6279977 L45.8917143,23.6279977 L45.8869776,0.32754923 C46.7632708,0.32754923 47.1682604,0.32754923 48.0445537,0.32754923 L57.0774792,13.9068044 L66.0038286,0.322869955 L68.2277187,0.322869955 L68.2324554,23.6233184 L66.4467119,23.6233184 L66.4419752,2.91752778 Z" id="Path"></path>
                    <path d="M92.1884182,23.6186391 L89.5926955,17.8935465 L75.5080578,17.8958861 L72.9478605,23.6209787 L70.9939634,23.6209787 L81.5686913,0.31819068 L83.5557455,0.31819068 L94.1399469,23.6162995 L92.1884182,23.6186391 Z M88.8845558,16.2277247 L82.5468241,2.04952232 L76.2161974,16.2300643 L88.8845558,16.2277247 Z" id="Shape"></path>
                    <path d="M117.660131,11.6958471 C117.795128,17.6221486 113.956016,23.6139598 105.699913,23.6162995 C103.037876,23.6162995 100.375839,23.6162995 97.7138024,23.6186391 L97.7090657,0.31819068 C100.371102,0.31819068 103.033139,0.31819068 105.695176,0.315850318 C113.681286,0.313511406 117.522767,5.97075453 117.660131,11.6958471 Z M99.5279662,2.01208728 L99.532703,21.8849678 L105.699913,21.8849678 C112.70789,21.8826282 115.94307,16.6909729 115.841231,11.6958471 C115.739391,6.83642035 112.504211,2.00974849 105.697544,2.01208728 L99.5279662,2.01208728 Z" id="Shape"></path>
                    <polygon id="Path" points="122.176594 23.6116202 122.171857 0.311171768 123.957601 0.311171768 123.962338 23.6116202"></polygon>
                </g>
                <g transform="translate(126.820948, 0.320530)" id="Path">
                    <polygon points="1.20549531 0.360304153 0.168153569 0.360304153 0.168153569 0.166114252 2.46309454 0.166114252 2.46309454 0.360304153 1.4257528 0.360304153 1.4257528 2.99473582 1.20549531 2.99473582"></polygon>
                    <polygon points="1.59390637 3.16085007 1.03734174 3.16085007 1.03734174 0.526418405 0 0.526418405 0 0 2.63124811 0 2.63124811 0.526418405 1.59390637 0.526418405"></polygon>
                </g>
                <g transform="translate(129.947184, 0.240983)" id="Path">
                    <path d="M2.66677351,0.556833691 L1.57022277,2.21563658 L1.4968036,2.21563658 L0.390779422,0.556833691 L0.390779422,3.07428349 L0.17052193,3.07428349 L0.17052193,0.240982648 C0.277098136,0.240982648 0.326833698,0.240982648 0.433409904,0.240982648 L1.53232901,1.89276662 L2.61703795,0.240982648 L2.887031,0.240982648 L2.887031,3.07428349 L2.66914187,3.07428349 L2.66677351,0.556833691 Z"></path>
                    <polygon points="0.00236836013 3.24039774 0 0.0748683954 0.222625853 0.0748683954 0.222625853 0.00467927471 0.269993055 0.0748683954 0.521039229 0.0748683954 1.52759229 1.58861376 2.5246719 0.0748683954 2.78519152 0.0748683954 2.83492708 0 2.83492708 0.0748683954 3.05281621 0.0748683954 3.05281621 3.24039774 2.5009883 3.24039774 2.5009883 1.11366738 1.66022045 2.38175083 1.40680592 2.38175083 0.556564631 1.10898811 0.556564631 3.24039774"></polygon>
                </g>
            </g>
            <g id="Group" transform="translate(37.000000, 0.000000)">
                <path d="M28.9988248,0 L0,16.7505878 L0,50.2494122 L28.9988248,67 L58,50.2494122 L58,16.7505878 L28.9988248,0 Z M43.502938,32.6006317 L43.502938,49.071416 L29.243263,57.3126864 L13.7754995,48.373083 L26.827086,40.8395508 L15.265632,34.1618881 L13.7754995,33.3389367 L13.7754995,18.4858396 L14.4665073,18.0861204 L28.96827,9.69436743 L44.2245005,18.5070012 L31.6641407,25.7630812 L43.502938,32.6006317 Z" id="Shape"></path>
                <polygon id="Path" points="30.4537018 53.8163187 30.4537018 53.8069135 29.2338615 54.5123004 18.6102038 48.3754343 29.2503141 42.2244604 35.9488593 46.0946833 39.8786724 48.373083"></polygon>
                <polygon id="Path" points="41.0891113 34.0043516 41.086761 46.2780839 35.7232241 43.1814353 35.7208737 43.1814353 29.6381246 39.6686085 29.6334238 39.6709598 18.6102038 33.2966134 29.2221097 27.157396 40.1090084 33.4329882 40.106658 33.4376908"></polygon>
            </g>
        </g>
    </g>
</svg>