<?xml version="1.0" encoding="UTF-8"?>
<svg width="589px" height="394px" viewBox="0 0 589 394" version="1.1" xmlns="http://www.w3.org/2000/svg" xmlns:xlink="http://www.w3.org/1999/xlink">
    <title>Artboard Copy 3</title>
    <g id="Artboard-Copy-3" stroke="none" stroke-width="1" fill="none" fill-rule="evenodd">
        <g id="225" transform="translate(-0.016000, -0.277000)">
            <polyline id="Fill-199" fill="#D8D8D8" points="358.218 377.737 239.149 377.737 245.992 327.098 351.375 327.098 358.218 377.737"></polyline>
            <path d="M83.831,329.835 C78.504,329.835 74.186,325.517 74.186,320.19 L74.186,9.646 C74.186,4.319 78.504,0 83.831,0 L512.365,0 C517.692,0 522.011,4.319 522.011,9.646 L522.011,320.19 C522.011,325.517 517.692,329.835 512.365,329.835 L83.831,329.835 Z" id="Fill-200" fill="#272D35"></path>
            <path d="M74.186,283.302 L74.186,321.897 C74.186,326.281 77.74,329.836 82.125,329.836 L514.071,329.836 C518.456,329.836 522.011,326.281 522.011,321.897 L522.011,283.302 L74.186,283.302" id="Fill-201" fill="#EFEFEF"></path>
            <polygon id="Fill-202" fill="#D6D6D8" points="88.601 268.249 506.027 268.249 506.027 15.055 88.601 15.055"></polygon>
            <path d="M369.167,387.317 L224.094,387.317 L224.094,385.885 C224.094,379.118 229.581,373.631 236.348,373.631 L356.913,373.631 C363.681,373.631 369.167,379.118 369.167,385.885 L369.167,387.317" id="Fill-203" fill="#EFEFEF"></path>
            <polygon id="Fill-204" fill="#4BD2D2" points="0 394.774 588.915 394.774 588.915 387.317 0 387.317"></polygon>
            <polygon id="Fill-205" fill="#3549CC" points="104.183 85.035 420.703 85.035 420.703 42.752 104.183 42.752"></polygon>
            <polygon id="Fill-206" fill="#FEFEFE" points="112.64 76.578 404.998 76.578 404.998 51.208 112.64 51.208"></polygon>
            <polygon id="Fill-207" fill="#979797" points="104.183 116.445 345.801 116.445 345.801 99.532 104.183 99.532"></polygon>
            <polygon id="Fill-208" fill="#B1AFB0" points="104.183 135.774 447.281 135.774 447.281 123.694 104.183 123.694"></polygon>
            <polygon id="Fill-209" fill="#B1AFB0" points="104.183 155.104 447.281 155.104 447.281 143.023 104.183 143.023"></polygon>
            <polygon id="Fill-210" fill="#979797" points="104.183 184.098 345.801 184.098 345.801 167.185 104.183 167.185"></polygon>
            <polygon id="Fill-211" fill="#B1AFB0" points="104.183 203.427 447.281 203.427 447.281 191.346 104.183 191.346"></polygon>
            <polygon id="Fill-212" fill="#B1AFB0" points="104.183 222.757 447.281 222.757 447.281 210.676 104.183 210.676"></polygon>
            <polygon id="Fill-213" fill="#979797" points="104.183 246.919 345.801 246.919 345.801 230.006 104.183 230.006"></polygon>
            <polygon id="Fill-214" fill="#B1AFB0" points="104.183 266.249 447.281 266.249 447.281 254.168 104.183 254.168"></polygon>
            <path d="M389.965,151.721 C361.348,169.517 323.735,160.732 305.956,132.098 C288.177,103.464 296.962,65.827 325.58,48.031 C354.198,30.235 391.81,39.02 409.589,67.653 C427.369,96.287 418.583,133.925 389.965,151.721 M421.637,60.162 C399.724,24.871 353.366,14.042 318.095,35.976 C282.824,57.91 271.995,104.3 293.909,139.59 C315.822,174.881 362.179,185.71 397.45,163.776 C432.722,141.842 443.551,95.453 421.637,60.162" id="Fill-215" fill="#38414A"></path>
            <polyline id="Fill-216" fill="#38414A" points="252.301 155.883 263.098 173.271 303.279 148.284 292.482 130.896 252.301 155.883"></polyline>
            <path d="M123.772,247.861 L123.772,247.861 C129.772,257.524 142.466,260.489 152.124,254.483 L266.675,179.031 L248.725,150.123 L130.395,219.49 C120.737,225.495 117.772,238.197 123.772,247.861" id="Fill-217" fill="#37464D"></path>
            <path d="M157.463,226.91 L157.463,226.91 C161.954,234.143 171.454,236.362 178.682,231.867 L264.417,175.395 L250.983,153.759 L162.419,205.675 C155.191,210.171 152.972,219.678 157.463,226.91" id="Fill-218" fill="#38414A"></path>
            <path d="M357.46,160.448 C348.58,160.448 340.146,158.537 332.548,155.104 L382.372,155.104 C374.773,158.537 366.34,160.448 357.46,160.448 M399.972,143.023 L314.947,143.023 C312.669,140.778 310.567,138.354 308.666,135.774 L406.253,135.774 C404.352,138.354 402.25,140.778 399.972,143.023 M413.169,123.694 L301.75,123.694 C300.747,121.351 299.886,118.929 299.181,116.445 L326.607,116.445 C332.477,120.265 339.484,122.485 347.009,122.485 C367.693,122.485 384.461,105.718 384.461,85.035 L416.201,85.035 C417.397,89.784 418.032,94.755 418.032,99.875 C418.032,108.331 416.299,116.384 413.169,123.694 M312.468,99.532 L296.888,99.532 C296.916,94.532 297.549,89.678 298.718,85.035 L309.559,85.035 C309.559,90.174 310.595,95.073 312.468,99.532 M377.655,42.752 L337.264,42.752 C343.581,40.519 350.379,39.303 357.46,39.303 C364.541,39.303 371.339,40.519 377.655,42.752" id="Fill-219" fill="#E7E7E8"></path>
            <path d="M416.201,85.035 L384.461,85.035 C384.461,82.126 384.129,79.296 383.502,76.578 L404.998,76.578 L404.998,62.333 C410.213,68.927 414.084,76.632 416.201,85.035 M309.559,85.035 L298.718,85.035 C299.451,82.128 300.394,79.301 301.53,76.578 L310.517,76.578 C309.89,79.296 309.559,82.126 309.559,85.035 M393.528,51.208 L363.102,51.208 C358.226,48.884 352.77,47.584 347.009,47.584 C341.249,47.584 335.793,48.884 330.917,51.208 L321.392,51.208 C326.188,47.648 331.527,44.78 337.264,42.752 L377.655,42.752 C383.393,44.78 388.732,47.648 393.528,51.208" id="Fill-220" fill="#8BB7C8"></path>
            <path d="M404.998,76.578 L383.502,76.578 C380.91,65.351 373.27,56.054 363.102,51.208 L393.528,51.208 C397.823,54.396 401.682,58.141 404.998,62.333 L404.998,76.578 M310.517,76.578 L301.53,76.578 C305.763,66.427 312.678,57.676 321.392,51.208 L330.917,51.208 C320.749,56.054 313.109,65.351 310.517,76.578" id="Fill-221" fill="#FDFDFD"></path>
            <path d="M326.607,116.445 L299.181,116.445 C297.687,111.178 296.887,105.621 296.887,99.875 C296.887,99.761 296.887,99.646 296.888,99.532 L312.468,99.532 C315.391,106.488 320.353,112.375 326.607,116.445" id="Fill-222" fill="#C3C3C3"></path>
            <path d="M406.253,135.774 L308.666,135.774 C305.921,132.049 303.594,128.002 301.75,123.694 L413.169,123.694 C411.326,128.002 408.998,132.049 406.253,135.774" id="Fill-223" fill="#D2D1D1"></path>
            <path d="M382.372,155.104 L332.548,155.104 C325.971,152.133 320.021,148.022 314.947,143.023 L399.972,143.023 C394.899,148.022 388.948,152.133 382.372,155.104" id="Fill-224" fill="#D2D1D1"></path>
            <path d="M347.009,122.485 C339.484,122.485 332.477,120.265 326.607,116.445 L345.801,116.445 L345.801,99.532 L312.468,99.532 C310.595,95.073 309.559,90.174 309.559,85.035 L384.461,85.035 C384.461,105.718 367.693,122.485 347.009,122.485" id="Fill-225" fill="#EDEDEE"></path>
            <path d="M384.461,85.035 L309.559,85.035 C309.559,82.126 309.89,79.296 310.517,76.578 L383.502,76.578 C384.129,79.296 384.461,82.126 384.461,85.035 M363.102,51.208 L330.917,51.208 C335.793,48.884 341.249,47.584 347.009,47.584 C352.77,47.584 358.226,48.884 363.102,51.208" id="Fill-226" fill="#A9C9D6"></path>
            <path d="M383.502,76.578 L310.517,76.578 C313.109,65.351 320.749,56.054 330.917,51.208 L363.102,51.208 C373.27,56.054 380.91,65.351 383.502,76.578" id="Fill-227" fill="#FDFDFD"></path>
            <path d="M345.801,116.445 L326.607,116.445 C320.353,112.375 315.391,106.488 312.468,99.532 L345.801,99.532 L345.801,116.445" id="Fill-228" fill="#D2D2D2"></path>
        </g>
        <g id="logo" opacity="0.499799456" transform="translate(445.000000, 16.000000)" fill="#202945" fill-rule="nonzero">
            <path d="M30.498764,0 L0,17.5006141 L0,52.4993859 L30.498764,70 L61,52.4993859 L61,17.5006141 L30.498764,0 Z M45.7530899,34.0603615 L45.7530899,51.2686436 L30.7558455,59.8789261 L14.4880253,50.5390419 L28.2146938,42.6681874 L16.0552336,35.6915248 L14.4880253,34.8317249 L14.4880253,19.3135638 L15.2147749,18.8959467 L30.4666288,10.1284436 L46.5119747,19.3356729 L33.3019411,26.916652 L45.7530899,34.0603615 Z" id="Shape"></path>
            <polygon id="Path" points="32.2508564 56.2636816 32.2508564 56.2537313 30.9890596 57 20 50.5074627 31.006078 44 37.9350204 48.0945274 42 50.5049751"></polygon>
            <polygon id="Path" points="44 35.1618298 43.9974906 48 38.2710163 44.7609444 38.2685069 44.7609444 31.7741531 41.0865716 31.7691343 41.089031 20 34.4215445 31.3299875 28 42.9535759 34.5641909 42.9510665 34.5691097"></polygon>
        </g>
    </g>
</svg>