<?xml version="1.0" encoding="UTF-8"?>
<svg width="589px" height="394px" viewBox="0 0 589 394" version="1.1" xmlns="http://www.w3.org/2000/svg" xmlns:xlink="http://www.w3.org/1999/xlink">
    <title>Artboard Copy 4</title>
    <g id="Artboard-Copy-4" stroke="none" stroke-width="1" fill="none" fill-rule="evenodd">
        <g id="225" transform="translate(-0.016000, -0.277000)">
            <g id="Group-2">
                <polyline id="Fill-199" fill="#D8D8D8" points="358.218 377.737 239.149 377.737 245.992 327.098 351.375 327.098 358.218 377.737"></polyline>
                <path d="M83.831,329.835 C78.504,329.835 74.186,325.517 74.186,320.19 L74.186,9.646 C74.186,4.319 78.504,0 83.831,0 L512.365,0 C517.692,0 522.011,4.319 522.011,9.646 L522.011,320.19 C522.011,325.517 517.692,329.835 512.365,329.835 L83.831,329.835 Z" id="Fill-200" fill="#272D35"></path>
                <path d="M74.186,283.302 L74.186,321.897 C74.186,326.281 77.74,329.836 82.125,329.836 L514.071,329.836 C518.456,329.836 522.011,326.281 522.011,321.897 L522.011,283.302 L74.186,283.302" id="Fill-201" fill="#EFEFEF"></path>
                <path d="M369.167,387.317 L224.094,387.317 L224.094,385.885 C224.094,379.118 229.581,373.631 236.348,373.631 L356.913,373.631 C363.681,373.631 369.167,379.118 369.167,385.885 L369.167,387.317" id="Fill-203" fill="#EFEFEF"></path>
                <polygon id="Fill-204" fill="#4BD2D2" points="0 394.774 588.915 394.774 588.915 387.317 0 387.317"></polygon>
            </g>
            <polygon id="BG" fill="#FFFFFF" points="88.601 268.249 506.027 268.249 506.027 15.055 88.601 15.055"></polygon>
        </g>
        <g id="logo" opacity="0.499799456" transform="translate(88.000000, 15.000000)" fill="#202945" fill-rule="nonzero">
            <path d="M58.9976091,0 L0,34.0011932 L0,101.998807 L58.9976091,136 L118,101.998807 L118,34.0011932 L58.9976091,0 Z M88.5059772,66.1744166 L88.5059772,99.6076505 L59.4949143,116.336199 L28.0260161,98.1901386 L54.5792438,82.8981927 L31.057665,69.343534 L28.0260161,67.6730655 L28.0260161,37.5234954 L29.4318596,36.7121249 L58.935446,19.678119 L89.9739839,37.5664503 L64.4201483,52.2952097 L88.5059772,66.1744166 Z" id="Shape"></path>
            <polygon id="Path" points="61.9448558 109.584003 61.9448558 109.564868 59.4786164 111 38 98.5143513 59.5118798 86 73.0548127 93.8740911 81 98.5095675"></polygon>
            <polygon id="Path" points="84 68.9655681 83.9951903 94 73.0194479 87.6838416 73.0146382 87.6838416 60.5671267 80.5188146 60.5575073 80.5236104 38 67.5220118 59.7158093 55 81.9943538 67.8001722 81.9895441 67.8097639"></polygon>
        </g>
        <g id="exams" transform="translate(191.000000, 27.000000)">
            <g id="Group-3" transform="translate(3.000000, 0.000000)">
                <path d="M127.662,32.533 L4.475,32.533 C2.004,32.533 0,30.53 0,28.058 L0,4.475 C0,2.004 2.004,0 4.475,0 L127.662,0 C130.133,0 132.137,2.004 132.137,4.475 L132.137,28.058 C132.137,30.53 130.133,32.533 127.662,32.533" id="Fill-48" fill="#DFE2E8"></path>
                <path d="M22.704,27.562 L22.704,27.07 L8.811,27.07 C7.744,27.07 6.783,26.639 6.083,25.94 C5.385,25.241 4.954,24.28 4.954,23.213 L4.954,9.32 C4.954,8.254 5.385,7.293 6.083,6.593 C6.783,5.894 7.744,5.464 8.811,5.463 L22.704,5.463 C23.77,5.464 24.731,5.894 25.431,6.593 C26.129,7.292 26.56,8.254 26.56,9.32 L26.56,23.213 C26.56,24.28 26.129,25.241 25.431,25.94 C24.731,26.639 23.77,27.07 22.704,27.07 L22.704,28.055 C25.378,28.054 27.544,25.887 27.545,23.213 L27.545,9.32 C27.544,6.646 25.378,4.479 22.704,4.479 L8.811,4.479 C6.137,4.479 3.97,6.646 3.969,9.32 L3.969,23.213 C3.97,25.887 6.137,28.054 8.811,28.055 L22.704,28.055 L22.704,27.562" id="Fill-49" fill="#BBB1CC"></path>
                <path d="M124.62,15.202 L40.669,15.202 C38.981,15.202 37.612,13.834 37.612,12.147 C37.612,10.459 38.981,9.091 40.669,9.091 L124.62,9.091 C126.307,9.091 127.675,10.459 127.675,12.147 C127.675,13.834 126.307,15.202 124.62,15.202" id="Fill-50" fill="#BBB1CC"></path>
                <path d="M74.236,23.442 L40.669,23.442 C38.981,23.442 37.612,22.074 37.612,20.387 C37.612,18.699 38.981,17.331 40.669,17.331 L74.236,17.331 C75.924,17.331 77.293,18.699 77.293,20.387 C77.293,22.074 75.924,23.442 74.236,23.442" id="Fill-51" fill="#BBB1CC"></path>
            </g>
            <g id="Group-4" transform="translate(3.000000, 48.533000)">
                <path d="M127.662,32.532 L4.475,32.532 C2.004,32.532 0,30.528 0,28.057 L0,4.474 C0,2.003 2.004,0 4.475,0 L127.662,0 C130.133,0 132.137,2.003 132.137,4.474 L132.137,28.057 C132.137,30.528 130.133,32.532 127.662,32.532" id="Fill-52" fill="#DFE2E8"></path>
                <path d="M22.704,27.561 L22.704,27.069 L8.811,27.069 C7.744,27.069 6.783,26.638 6.083,25.939 C5.385,25.24 4.954,24.279 4.954,23.213 L4.954,9.319 C4.954,8.253 5.385,7.292 6.083,6.592 C6.783,5.894 7.744,5.463 8.811,5.463 L22.704,5.463 C23.77,5.463 24.731,5.894 25.431,6.592 C26.129,7.292 26.56,8.253 26.56,9.319 L26.56,23.213 C26.56,24.279 26.129,25.24 25.431,25.939 C24.731,26.638 23.77,27.069 22.704,27.069 L22.704,28.053 C25.378,28.053 27.544,25.886 27.545,23.213 L27.545,9.319 C27.544,6.646 25.378,4.478 22.704,4.478 L8.811,4.478 C6.137,4.478 3.97,6.646 3.969,9.319 L3.969,23.213 C3.97,25.887 6.137,28.053 8.811,28.053 L22.704,28.053 L22.704,27.561" id="Fill-53" fill="#BBB1CC"></path>
                <path d="M124.62,15.202 L40.669,15.202 C38.981,15.202 37.612,13.834 37.612,12.146 C37.612,10.458 38.981,9.09 40.669,9.09 L124.62,9.09 C126.307,9.09 127.675,10.458 127.675,12.146 C127.675,13.834 126.307,15.202 124.62,15.202" id="Fill-54" fill="#BBB1CC"></path>
                <path d="M74.236,23.442 L40.669,23.442 C38.981,23.442 37.612,22.073 37.612,20.386 C37.612,18.698 38.981,17.33 40.669,17.33 L74.236,17.33 C75.924,17.33 77.293,18.698 77.293,20.386 C77.293,22.073 75.924,23.442 74.236,23.442" id="Fill-55" fill="#BBB1CC"></path>
            </g>
            <g id="Group-6" transform="translate(3.000000, 145.598000)">
                <path d="M127.662,32.533 L4.475,32.533 C2.004,32.533 0,30.53 0,28.058 L0,4.475 C0,2.003 2.004,0 4.475,0 L127.662,0 C130.133,0 132.137,2.003 132.137,4.475 L132.137,28.058 C132.137,30.53 130.133,32.533 127.662,32.533" id="Fill-64" fill="#DFE2E8"></path>
                <path d="M22.704,27.562 L22.704,27.07 L8.811,27.07 C7.744,27.069 6.783,26.639 6.083,25.94 C5.385,25.24 4.954,24.279 4.954,23.213 L4.954,9.32 C4.954,8.253 5.385,7.292 6.083,6.593 C6.783,5.894 7.744,5.464 8.811,5.463 L22.704,5.463 C23.77,5.464 24.731,5.894 25.431,6.593 C26.129,7.292 26.56,8.253 26.56,9.32 L26.56,23.213 C26.56,24.279 26.129,25.24 25.431,25.94 C24.731,26.639 23.77,27.069 22.704,27.07 L22.704,28.054 C25.378,28.054 27.544,25.887 27.545,23.213 L27.545,9.32 C27.544,6.646 25.378,4.479 22.704,4.479 L8.811,4.479 C6.137,4.479 3.97,6.646 3.969,9.32 L3.969,23.213 C3.97,25.887 6.137,28.054 8.811,28.054 L22.704,28.054 L22.704,27.562" id="Fill-65" fill="#BBB1CC"></path>
                <path d="M124.62,15.202 L40.669,15.202 C38.981,15.202 37.612,13.834 37.612,12.147 C37.612,10.459 38.981,9.091 40.669,9.091 L124.62,9.091 C126.307,9.091 127.675,10.459 127.675,12.147 C127.675,13.834 126.307,15.202 124.62,15.202" id="Fill-66" fill="#BBB1CC"></path>
                <path d="M74.236,23.442 L40.669,23.442 C38.981,23.442 37.612,22.074 37.612,20.386 C37.612,18.699 38.981,17.33 40.669,17.33 L74.236,17.33 C75.924,17.33 77.293,18.699 77.293,20.386 C77.293,22.074 75.924,23.442 74.236,23.442" id="Fill-67" fill="#BBB1CC"></path>
            </g>
            <g id="Group-5" transform="translate(3.000000, 97.065000)">
                <path d="M127.662,32.533 L4.475,32.533 C2.004,32.533 0,30.529 0,28.058 L0,4.475 C0,2.003 2.004,0 4.475,0 L127.662,0 C130.133,0 132.137,2.003 132.137,4.475 L132.137,28.058 C132.137,30.529 130.133,32.533 127.662,32.533" id="Fill-78" fill="#DFE2E8"></path>
                <path d="M22.704,27.562 L22.704,27.07 L8.811,27.07 C7.744,27.069 6.783,26.639 6.083,25.94 C5.385,25.24 4.954,24.279 4.954,23.213 L4.954,9.32 C4.954,8.253 5.385,7.292 6.083,6.593 C6.783,5.894 7.744,5.463 8.811,5.463 L22.704,5.463 C23.77,5.463 24.731,5.894 25.431,6.593 C26.129,7.292 26.56,8.253 26.56,9.32 L26.56,23.213 C26.56,24.279 26.129,25.241 25.431,25.94 C24.731,26.639 23.77,27.069 22.704,27.07 L22.704,28.054 C25.378,28.054 27.544,25.887 27.545,23.213 L27.545,9.32 C27.544,6.646 25.378,4.479 22.704,4.478 L8.811,4.478 C6.137,4.479 3.97,6.646 3.969,9.32 L3.969,23.213 C3.97,25.887 6.137,28.054 8.811,28.054 L22.704,28.054 L22.704,27.562" id="Fill-79" fill="#BBB1CC"></path>
                <path d="M124.62,15.202 L40.669,15.202 C38.981,15.202 37.612,13.834 37.612,12.146 C37.612,10.458 38.981,9.09 40.669,9.09 L124.62,9.09 C126.307,9.09 127.675,10.458 127.675,12.146 C127.675,13.834 126.307,15.202 124.62,15.202" id="Fill-80" fill="#BBB1CC"></path>
                <path d="M74.236,23.442 L40.669,23.442 C38.981,23.442 37.612,22.074 37.612,20.386 C37.612,18.698 38.981,17.33 40.669,17.33 L74.236,17.33 C75.924,17.33 77.293,18.698 77.293,20.386 C77.293,22.074 75.924,23.442 74.236,23.442" id="Fill-81" fill="#BBB1CC"></path>
                <polyline id="Fill-82" fill="#DD4563" points="10.202 13.893 7.659 16.097 13.761 24.063 25.287 10.842 23.084 8.469 14.154 19.487 10.202 13.893"></polyline>
            </g>
            <g id="Group-5" transform="translate(0.000000, 194.131000)">
                <path d="M127.662,32.533 L4.475,32.533 C2.004,32.533 0,30.529 0,28.058 L0,4.475 C0,2.003 2.004,0 4.475,0 L127.662,0 C130.133,0 132.137,2.003 132.137,4.475 L132.137,28.058 C132.137,30.529 130.133,32.533 127.662,32.533" id="Fill-78" fill="#DFE2E8"></path>
                <path d="M22.704,27.562 L22.704,27.07 L8.811,27.07 C7.744,27.069 6.783,26.639 6.083,25.94 C5.385,25.24 4.954,24.279 4.954,23.213 L4.954,9.32 C4.954,8.253 5.385,7.292 6.083,6.593 C6.783,5.894 7.744,5.463 8.811,5.463 L22.704,5.463 C23.77,5.463 24.731,5.894 25.431,6.593 C26.129,7.292 26.56,8.253 26.56,9.32 L26.56,23.213 C26.56,24.279 26.129,25.241 25.431,25.94 C24.731,26.639 23.77,27.069 22.704,27.07 L22.704,28.054 C25.378,28.054 27.544,25.887 27.545,23.213 L27.545,9.32 C27.544,6.646 25.378,4.479 22.704,4.478 L8.811,4.478 C6.137,4.479 3.97,6.646 3.969,9.32 L3.969,23.213 C3.97,25.887 6.137,28.054 8.811,28.054 L22.704,28.054 L22.704,27.562" id="Fill-79" fill="#BBB1CC"></path>
                <path d="M124.62,15.202 L40.669,15.202 C38.981,15.202 37.612,13.834 37.612,12.146 C37.612,10.458 38.981,9.09 40.669,9.09 L124.62,9.09 C126.307,9.09 127.675,10.458 127.675,12.146 C127.675,13.834 126.307,15.202 124.62,15.202" id="Fill-80" fill="#BBB1CC"></path>
                <path d="M74.236,23.442 L40.669,23.442 C38.981,23.442 37.612,22.074 37.612,20.386 C37.612,18.698 38.981,17.33 40.669,17.33 L74.236,17.33 C75.924,17.33 77.293,18.698 77.293,20.386 C77.293,22.074 75.924,23.442 74.236,23.442" id="Fill-81" fill="#BBB1CC"></path>
                <polyline id="Fill-82" fill="#DD4563" points="10.202 13.893 7.659 16.097 13.761 24.063 25.287 10.842 23.084 8.469 14.154 19.487 10.202 13.893"></polyline>
            </g>
            <g id="Group-3" transform="translate(159.137000, 48.533000)">
                <path d="M127.662,32.533 L4.475,32.533 C2.004,32.533 0,30.53 0,28.058 L0,4.475 C0,2.004 2.004,0 4.475,0 L127.662,0 C130.133,0 132.137,2.004 132.137,4.475 L132.137,28.058 C132.137,30.53 130.133,32.533 127.662,32.533" id="Fill-48" fill="#DFE2E8"></path>
                <path d="M22.704,27.562 L22.704,27.07 L8.811,27.07 C7.744,27.07 6.783,26.639 6.083,25.94 C5.385,25.241 4.954,24.28 4.954,23.213 L4.954,9.32 C4.954,8.254 5.385,7.293 6.083,6.593 C6.783,5.894 7.744,5.464 8.811,5.463 L22.704,5.463 C23.77,5.464 24.731,5.894 25.431,6.593 C26.129,7.292 26.56,8.254 26.56,9.32 L26.56,23.213 C26.56,24.28 26.129,25.241 25.431,25.94 C24.731,26.639 23.77,27.07 22.704,27.07 L22.704,28.055 C25.378,28.054 27.544,25.887 27.545,23.213 L27.545,9.32 C27.544,6.646 25.378,4.479 22.704,4.479 L8.811,4.479 C6.137,4.479 3.97,6.646 3.969,9.32 L3.969,23.213 C3.97,25.887 6.137,28.054 8.811,28.055 L22.704,28.055 L22.704,27.562" id="Fill-49" fill="#BBB1CC"></path>
                <path d="M124.62,15.202 L40.669,15.202 C38.981,15.202 37.612,13.834 37.612,12.147 C37.612,10.459 38.981,9.091 40.669,9.091 L124.62,9.091 C126.307,9.091 127.675,10.459 127.675,12.147 C127.675,13.834 126.307,15.202 124.62,15.202" id="Fill-50" fill="#BBB1CC"></path>
                <path d="M74.236,23.442 L40.669,23.442 C38.981,23.442 37.612,22.074 37.612,20.387 C37.612,18.699 38.981,17.331 40.669,17.331 L74.236,17.331 C75.924,17.331 77.293,18.699 77.293,20.387 C77.293,22.074 75.924,23.442 74.236,23.442" id="Fill-51" fill="#BBB1CC"></path>
            </g>
            <g id="Group-4" transform="translate(159.137000, 97.066000)">
                <path d="M127.662,32.532 L4.475,32.532 C2.004,32.532 0,30.528 0,28.057 L0,4.474 C0,2.003 2.004,0 4.475,0 L127.662,0 C130.133,0 132.137,2.003 132.137,4.474 L132.137,28.057 C132.137,30.528 130.133,32.532 127.662,32.532" id="Fill-52" fill="#DFE2E8"></path>
                <path d="M22.704,27.561 L22.704,27.069 L8.811,27.069 C7.744,27.069 6.783,26.638 6.083,25.939 C5.385,25.24 4.954,24.279 4.954,23.213 L4.954,9.319 C4.954,8.253 5.385,7.292 6.083,6.592 C6.783,5.894 7.744,5.463 8.811,5.463 L22.704,5.463 C23.77,5.463 24.731,5.894 25.431,6.592 C26.129,7.292 26.56,8.253 26.56,9.319 L26.56,23.213 C26.56,24.279 26.129,25.24 25.431,25.939 C24.731,26.638 23.77,27.069 22.704,27.069 L22.704,28.053 C25.378,28.053 27.544,25.886 27.545,23.213 L27.545,9.319 C27.544,6.646 25.378,4.478 22.704,4.478 L8.811,4.478 C6.137,4.478 3.97,6.646 3.969,9.319 L3.969,23.213 C3.97,25.887 6.137,28.053 8.811,28.053 L22.704,28.053 L22.704,27.561" id="Fill-53" fill="#BBB1CC"></path>
                <path d="M124.62,15.202 L40.669,15.202 C38.981,15.202 37.612,13.834 37.612,12.146 C37.612,10.458 38.981,9.09 40.669,9.09 L124.62,9.09 C126.307,9.09 127.675,10.458 127.675,12.146 C127.675,13.834 126.307,15.202 124.62,15.202" id="Fill-54" fill="#BBB1CC"></path>
                <path d="M74.236,23.442 L40.669,23.442 C38.981,23.442 37.612,22.073 37.612,20.386 C37.612,18.698 38.981,17.33 40.669,17.33 L74.236,17.33 C75.924,17.33 77.293,18.698 77.293,20.386 C77.293,22.073 75.924,23.442 74.236,23.442" id="Fill-55" fill="#BBB1CC"></path>
            </g>
            <g id="Group-6" transform="translate(159.137000, 194.131000)">
                <path d="M127.662,32.533 L4.475,32.533 C2.004,32.533 0,30.53 0,28.058 L0,4.475 C0,2.003 2.004,0 4.475,0 L127.662,0 C130.133,0 132.137,2.003 132.137,4.475 L132.137,28.058 C132.137,30.53 130.133,32.533 127.662,32.533" id="Fill-64" fill="#DFE2E8"></path>
                <path d="M22.704,27.562 L22.704,27.07 L8.811,27.07 C7.744,27.069 6.783,26.639 6.083,25.94 C5.385,25.24 4.954,24.279 4.954,23.213 L4.954,9.32 C4.954,8.253 5.385,7.292 6.083,6.593 C6.783,5.894 7.744,5.464 8.811,5.463 L22.704,5.463 C23.77,5.464 24.731,5.894 25.431,6.593 C26.129,7.292 26.56,8.253 26.56,9.32 L26.56,23.213 C26.56,24.279 26.129,25.24 25.431,25.94 C24.731,26.639 23.77,27.069 22.704,27.07 L22.704,28.054 C25.378,28.054 27.544,25.887 27.545,23.213 L27.545,9.32 C27.544,6.646 25.378,4.479 22.704,4.479 L8.811,4.479 C6.137,4.479 3.97,6.646 3.969,9.32 L3.969,23.213 C3.97,25.887 6.137,28.054 8.811,28.054 L22.704,28.054 L22.704,27.562" id="Fill-65" fill="#BBB1CC"></path>
                <path d="M124.62,15.202 L40.669,15.202 C38.981,15.202 37.612,13.834 37.612,12.147 C37.612,10.459 38.981,9.091 40.669,9.091 L124.62,9.091 C126.307,9.091 127.675,10.459 127.675,12.147 C127.675,13.834 126.307,15.202 124.62,15.202" id="Fill-66" fill="#BBB1CC"></path>
                <path d="M74.236,23.442 L40.669,23.442 C38.981,23.442 37.612,22.074 37.612,20.386 C37.612,18.699 38.981,17.33 40.669,17.33 L74.236,17.33 C75.924,17.33 77.293,18.699 77.293,20.386 C77.293,22.074 75.924,23.442 74.236,23.442" id="Fill-67" fill="#BBB1CC"></path>
            </g>
            <g id="Group-5" transform="translate(159.137000, 145.598000)">
                <path d="M127.662,32.533 L4.475,32.533 C2.004,32.533 0,30.529 0,28.058 L0,4.475 C0,2.003 2.004,0 4.475,0 L127.662,0 C130.133,0 132.137,2.003 132.137,4.475 L132.137,28.058 C132.137,30.529 130.133,32.533 127.662,32.533" id="Fill-78" fill="#DFE2E8"></path>
                <path d="M22.704,27.562 L22.704,27.07 L8.811,27.07 C7.744,27.069 6.783,26.639 6.083,25.94 C5.385,25.24 4.954,24.279 4.954,23.213 L4.954,9.32 C4.954,8.253 5.385,7.292 6.083,6.593 C6.783,5.894 7.744,5.463 8.811,5.463 L22.704,5.463 C23.77,5.463 24.731,5.894 25.431,6.593 C26.129,7.292 26.56,8.253 26.56,9.32 L26.56,23.213 C26.56,24.279 26.129,25.241 25.431,25.94 C24.731,26.639 23.77,27.069 22.704,27.07 L22.704,28.054 C25.378,28.054 27.544,25.887 27.545,23.213 L27.545,9.32 C27.544,6.646 25.378,4.479 22.704,4.478 L8.811,4.478 C6.137,4.479 3.97,6.646 3.969,9.32 L3.969,23.213 C3.97,25.887 6.137,28.054 8.811,28.054 L22.704,28.054 L22.704,27.562" id="Fill-79" fill="#BBB1CC"></path>
                <path d="M124.62,15.202 L40.669,15.202 C38.981,15.202 37.612,13.834 37.612,12.146 C37.612,10.458 38.981,9.09 40.669,9.09 L124.62,9.09 C126.307,9.09 127.675,10.458 127.675,12.146 C127.675,13.834 126.307,15.202 124.62,15.202" id="Fill-80" fill="#BBB1CC"></path>
                <path d="M74.236,23.442 L40.669,23.442 C38.981,23.442 37.612,22.074 37.612,20.386 C37.612,18.698 38.981,17.33 40.669,17.33 L74.236,17.33 C75.924,17.33 77.293,18.698 77.293,20.386 C77.293,22.074 75.924,23.442 74.236,23.442" id="Fill-81" fill="#BBB1CC"></path>
                <polyline id="Fill-82" fill="#DD4563" points="10.202 13.893 7.659 16.097 13.761 24.063 25.287 10.842 23.084 8.469 14.154 19.487 10.202 13.893"></polyline>
            </g>
            <g id="Group-5" transform="translate(156.137000, 0.000000)">
                <path d="M127.662,32.533 L4.475,32.533 C2.004,32.533 0,30.529 0,28.058 L0,4.475 C0,2.003 2.004,0 4.475,0 L127.662,0 C130.133,0 132.137,2.003 132.137,4.475 L132.137,28.058 C132.137,30.529 130.133,32.533 127.662,32.533" id="Fill-78" fill="#DFE2E8"></path>
                <path d="M22.704,27.562 L22.704,27.07 L8.811,27.07 C7.744,27.069 6.783,26.639 6.083,25.94 C5.385,25.24 4.954,24.279 4.954,23.213 L4.954,9.32 C4.954,8.253 5.385,7.292 6.083,6.593 C6.783,5.894 7.744,5.463 8.811,5.463 L22.704,5.463 C23.77,5.463 24.731,5.894 25.431,6.593 C26.129,7.292 26.56,8.253 26.56,9.32 L26.56,23.213 C26.56,24.279 26.129,25.241 25.431,25.94 C24.731,26.639 23.77,27.069 22.704,27.07 L22.704,28.054 C25.378,28.054 27.544,25.887 27.545,23.213 L27.545,9.32 C27.544,6.646 25.378,4.479 22.704,4.478 L8.811,4.478 C6.137,4.479 3.97,6.646 3.969,9.32 L3.969,23.213 C3.97,25.887 6.137,28.054 8.811,28.054 L22.704,28.054 L22.704,27.562" id="Fill-79" fill="#BBB1CC"></path>
                <path d="M124.62,15.202 L40.669,15.202 C38.981,15.202 37.612,13.834 37.612,12.146 C37.612,10.458 38.981,9.09 40.669,9.09 L124.62,9.09 C126.307,9.09 127.675,10.458 127.675,12.146 C127.675,13.834 126.307,15.202 124.62,15.202" id="Fill-80" fill="#BBB1CC"></path>
                <path d="M74.236,23.442 L40.669,23.442 C38.981,23.442 37.612,22.074 37.612,20.386 C37.612,18.698 38.981,17.33 40.669,17.33 L74.236,17.33 C75.924,17.33 77.293,18.698 77.293,20.386 C77.293,22.074 75.924,23.442 74.236,23.442" id="Fill-81" fill="#BBB1CC"></path>
                <polyline id="Fill-82" fill="#DD4563" points="10.202 13.893 7.659 16.097 13.761 24.063 25.287 10.842 23.084 8.469 14.154 19.487 10.202 13.893"></polyline>
            </g>
        </g>
        <g id="Lupa" transform="translate(120.653225, 24.352790)">
            <circle id="Oval" fill="#FFFFFF" style="mix-blend-mode: saturation;" cx="237.846775" cy="75.1472099" r="65.5"></circle>
            <path d="M269.295775,127.09121 C240.678775,144.88721 203.065775,136.10221 185.286775,107.46821 C167.507775,78.8342099 176.292775,41.1972099 204.910775,23.4012099 C233.528775,5.60520994 271.140775,14.3902099 288.919775,43.0232099 C306.699775,71.6572099 297.913775,109.29521 269.295775,127.09121 M197.425775,11.3462099 C162.154775,33.2802099 151.325775,79.6702099 173.239775,114.96021 C195.152775,150.25121 241.509775,161.08021 276.780775,139.14621 C312.052775,117.21221 322.881775,70.8232099 300.967775,35.5322099 C279.054775,0.241209942 232.696775,-10.5877901 197.425775,11.3462099 Z" id="Fill-215" fill="#38414A"></path>
            <polyline id="Fill-216" fill="#38414A" points="131.631775 131.25321 142.428775 148.64121 182.609775 123.65421 171.812775 106.26621 131.631775 131.25321"></polyline>
            <g id="Group" transform="translate(0.000000, 125.493210)">
                <path d="M3.10277523,97.738 L3.10277523,97.738 C9.10277523,107.401 21.7967752,110.366 31.4547752,104.36 L146.005775,28.908 L128.055775,0 L9.72577523,69.367 C0.0677752301,75.372 -2.89722477,88.074 3.10277523,97.738" id="Fill-217" fill="#37464D"></path>
                <path d="M36.7937752,76.787 L36.7937752,76.787 C41.2847752,84.02 50.7847752,86.239 58.0127752,81.744 L143.747775,25.272 L130.313775,3.636 L41.7497752,55.552 C34.5217752,60.048 32.3027752,69.555 36.7937752,76.787" id="Fill-218" fill="#38414A"></path>
            </g>
            <circle id="Oval" fill="#FFFFFF" opacity="0.674499512" cx="225.346775" cy="58.6472099" r="35"></circle>
        </g>
    </g>
</svg>