<?xml version="1.0" encoding="UTF-8"?>
<svg width="334px" height="117px" viewBox="0 0 334 117" version="1.1" xmlns="http://www.w3.org/2000/svg" xmlns:xlink="http://www.w3.org/1999/xlink">
    <title>Upload-picture</title>
    <g id="Exam-Creation---Import" stroke="none" stroke-width="1" fill="none" fill-rule="evenodd">
        <g id="LTI---Exams-Builder---Import-B" transform="translate(-403.000000, -292.000000)" fill-rule="nonzero">
            <g id="Upload-Window" transform="translate(270.000000, 252.000000)">
                <g id="Group-5" transform="translate(0.000000, 40.000000)">
                    <g id="Upload-picture" transform="translate(133.000000, 0.000000)">
                        <g id="PC" transform="translate(221.000000, 0.000000)">
                            <path d="M109.907893,16.1720714 L109.908172,16.1713435 L112.356561,11.626564 C113.7486,9.03592193 112.807396,5.79287752 110.25266,4.37728705 L103.511023,0.651456755 C100.95321,-0.758058435 97.7515956,0.19516322 96.3537568,2.78240103 L86.1949406,21.6392927 L7.30756967,21.6392927 C3.27339255,21.644237 0.00462188752,24.9560371 0,29.0420244 L0,79.915484 C0,79.9189823 0,79.9221988 0,79.9257206 C0,79.9292423 0,79.9324589 0,79.9359571 L0,89.6091885 C0.00462188752,93.6951758 3.27339255,97.0069759 7.30756967,97.0119202 L47.0693867,97.0119202 L44.6855553,114.652162 L39.2765528,114.652162 C38.636436,114.652162 38.1175188,115.177744 38.1175188,115.826081 C38.1175188,116.474419 38.636436,117 39.2765528,117 L72.8597687,117 C73.4998855,117 74.0188026,116.474419 74.0188026,115.826081 C74.0188026,115.177744 73.4998855,114.652162 72.8597687,114.652162 L67.4280027,114.652162 L65.0441713,97.0119202 L104.358114,97.0119202 C108.393102,97.0080372 111.663149,93.6959949 111.666982,89.6091885 L111.666982,79.9353937 C111.666982,79.9320832 111.667933,79.929031 111.667933,79.9257206 C111.667933,79.9224101 111.667029,79.9193579 111.666982,79.9160475 L111.666982,29.0420244 C111.663804,25.8861547 109.687826,23.0784827 106.743406,22.0461025 L109.907267,16.1730105 L109.907893,16.1720714 Z" id="Shape" fill="#FFFFFF"></path>
                            <path d="M103.307797,0.545074693 L103.511023,0.651456755 L110.25266,4.37728705 C112.740166,5.75562514 113.697946,8.86650094 112.461625,11.4207295 L112.356561,11.626564 L109.908172,16.1713435 L109.907893,16.1720714 L109.907267,16.1730105 L106.743406,22.0461025 C109.6037,23.0489861 111.5501,25.7271655 111.661902,28.7724073 L111.666982,29.0420244 L111.666982,79.9160475 L111.667475,79.920884 L111.667457,79.9305571 L111.666982,79.9353937 L111.666982,89.6091885 C111.663225,93.6142587 108.522597,96.8752456 104.599276,97.0077377 L104.358114,97.0119202 L65.0441713,97.0119202 L67.4280027,114.652162 L72.8597687,114.652162 C73.4998855,114.652162 74.0188026,115.177744 74.0188026,115.826081 C74.0188026,116.431196 73.5667681,116.929377 72.9860582,116.993112 L72.8597687,117 L39.2765528,117 C38.636436,117 38.1175188,116.474419 38.1175188,115.826081 C38.1175188,115.220966 38.5695533,114.722786 39.1502632,114.659051 L39.2765528,114.652162 L44.6855553,114.652162 L47.0693867,97.0119202 L7.30756967,97.0119202 C3.35407609,97.0070748 0.135678877,93.826325 0.00417430184,89.8533985 L0,89.6091885 L0,29.0420244 C0.00452944977,25.0377569 3.14394738,21.7770187 7.06645752,21.6435374 L7.30756967,21.6392927 L86.1949406,21.6392927 L96.3537568,2.78240103 C97.7148104,0.263248425 100.785953,-0.706757284 103.307797,0.545074693 Z M62.7044296,97.012155 L49.4090358,97.012155 L47.0253203,114.652116 L65.088145,114.652116 L62.7044296,97.012155 Z M79.4355476,34.1860659 L2.31908776,34.1860659 L2.31908776,78.7518018 L92.6892161,78.7518018 C93.3293329,78.7518018 93.84825,79.2773831 93.84825,79.9257206 C93.84825,80.5308355 93.3962155,81.0290162 92.8155056,81.0927509 L92.6892161,81.0996393 L2.31908776,81.0996393 L2.31908776,89.6091885 C2.32131347,92.325636 4.43716619,94.5410834 7.09122722,94.6591384 L7.30756967,94.6640827 L104.358114,94.6640827 C107.04089,94.6615621 109.228473,92.5173256 109.34411,89.8283738 L109.348914,89.6091885 L109.348914,81.0996393 L97.8783732,81.0996393 C97.2382564,81.0996393 96.7193393,80.574058 96.7193393,79.9257206 C96.7193393,79.3206056 97.1713738,78.8224249 97.7520837,78.7586902 L97.8783732,78.7518018 L109.348914,78.7518018 L109.348914,34.1860659 L100.203117,34.1860659 L95.1041792,43.6509737 L92.506761,48.4720702 C92.3769561,48.7131127 92.1686002,48.8991102 91.9194418,48.9999209 L91.7916371,49.0430878 L82.0458078,51.7089399 C81.8397401,51.7653412 81.6272227,51.7939424 81.4137634,51.794002 C80.3774027,51.7925461 79.4603135,51.1335248 79.109841,50.1586896 L79.0567521,49.9933515 L76.4061575,40.5099428 C76.3353302,40.2565351 76.3510026,39.9876774 76.4484293,39.7461785 L76.5039336,39.6279072 L79.1011199,34.8068811 L79.4355476,34.1860659 Z M56.9999282,84 C59.2081162,84.0024123 60.9976009,85.7919077 61,88.0000957 C61,90.2092129 59.2090773,92 56.9999601,92 C54.7908429,92 53,90.2091332 53,88.0000159 C53,85.7908987 54.790811,84 56.9999282,84 Z M56.9999282,86.3918295 C56.1117602,86.3918295 55.3917578,87.111832 55.3917578,88 C55.3917578,88.888168 56.1117602,89.6081705 56.9999282,89.6081705 C57.8877074,89.607238 58.6071234,88.8877792 58.6080987,88 C58.6080987,87.111832 57.8880963,86.3918295 56.9999282,86.3918295 Z M72.8660289,58.4089568 C73.3259247,57.8940325 74.1037074,57.8608988 74.6032553,58.3349505 C75.1028031,58.8090022 75.1349475,59.6107256 74.6750517,60.1256498 L74.6750517,60.1256498 L72.6061605,62.4421489 C74.8289833,66.0372584 73.9955328,70.7898851 70.6923538,73.3553445 C67.3891749,75.9208039 62.7273992,75.4361202 59.9877745,72.242392 C57.2481498,69.0486637 57.3522379,64.2202054 60.2267864,61.1550683 C63.1013349,58.0899313 67.7793958,57.8191741 70.9687606,60.5333435 L70.9687606,60.5333435 L72.8660289,58.4090328 Z M15.5,59 C19.6401898,59.0046938 22.9953062,62.3598102 23,66.5 C23,70.6421356 19.6421356,74 15.5,74 C11.3578644,74 8,70.6421356 8,66.5 C8,62.3578644 11.3578644,59 15.5,59 Z M69.2994949,62.4022564 C67.2996663,60.7868925 64.4825621,60.8091613 62.5070033,62.4559502 C60.5314445,64.102739 59.9209646,66.9376401 61.0350379,69.2913531 C62.1491112,71.6450661 64.6925025,72.8938446 67.1675637,72.302359 C69.6426249,71.7108735 71.3934517,69.4358708 71.3890971,66.8169612 C71.3899516,65.9804845 71.2082716,65.1545203 70.8575008,64.4002242 L70.8575008,64.4002242 L66.8680566,68.8670121 C66.6391269,69.1232231 66.3180078,69.2710486 65.9801174,69.2757703 L65.9801174,69.2757703 L65.9635452,69.2757703 C65.6312784,69.2757537 65.3131566,69.1371521 65.0816055,68.8915204 L65.0816055,68.8915204 L62.6597073,66.3215751 C62.1866123,65.8195005 62.1979509,65.0171644 62.6850328,64.5295072 C63.1721146,64.04185 63.9504917,64.0535375 64.4235868,64.5556121 L64.4235868,64.5556121 L65.9394246,66.1642863 Z M15.5,61.3335408 C12.6466434,61.3335408 10.3335408,63.6466434 10.3335408,66.5 C10.3335408,69.3533566 12.6466434,71.6665059 15.5,71.6665059 C18.3520048,71.663201 20.6631801,69.3520049 20.6664592,66.5 C20.6664592,63.6466434 18.3533566,61.3335408 15.5,61.3335408 Z M22.839688,38.4168899 C23.1408582,38.0773503 23.5936764,37.9303666 24.0275704,38.0313063 C24.4614644,38.1322459 24.8105154,38.4657738 24.9432392,38.9062532 C25.075963,39.3467325 24.9721958,39.8272441 24.6710256,40.1667838 L24.6710256,40.1667838 L22.7942368,42.2828083 C25.0100654,45.9593984 24.1293897,50.7863531 20.7718369,53.3675165 C17.4142841,55.9486798 12.7088947,55.4160868 9.96629356,52.1444601 C7.22369241,48.8728333 7.36613094,43.9623192 10.293392,40.8678643 C13.2206531,37.7734095 17.94839,37.5355829 21.1502545,40.321715 L21.1502545,40.321715 Z M65.5,38 C69.6421356,38 73,41.3578644 73,45.5 C73,49.6421356 69.6421356,53 65.5,53 C61.3598155,52.9952933 58.0047067,49.6401845 58,45.5 C58,41.3578644 61.3578644,38 65.5,38 Z M19.4626131,42.2243441 C17.4534253,40.5478122 14.5936857,40.5381359 12.5740089,42.2010355 C10.554332,43.8639352 9.9127243,46.7564435 11.02849,49.168574 C12.1442557,51.5807045 14.7201744,52.8699078 17.2334202,52.2740356 C19.746666,51.6781634 21.5277543,49.3559457 21.5237522,46.6802258 C21.5242454,45.8538129 21.3511313,45.0372244 21.0164648,44.2873557 L21.0164648,44.2873557 L16.7680273,49.0771262 C16.5363053,49.3383378 16.2112051,49.4890315 15.8691351,49.4937897 L15.8691351,49.4937897 L15.8523585,49.4939189 C15.5159876,49.493904 15.193938,49.3526109 14.9595397,49.1022117 L14.9595397,49.1022117 L12.5077665,46.4825638 C12.0288357,45.9707791 12.0403142,45.1529258 12.5334044,44.6558373 C13.0264946,44.1587489 13.8144733,44.1706625 14.2934041,44.6824471 L14.2934041,44.6824471 L15.8279403,46.3222331 Z M65.5,40.3334708 C62.6479861,40.3367756 60.336807,42.647986 60.3335408,45.5 C60.3335408,48.3533566 62.6466434,50.6664592 65.5,50.6664592 C68.3533566,50.6664592 70.6664592,48.3533566 70.6664592,45.5 C70.6664592,42.6466434 68.3533566,40.3334708 65.5,40.3334708 Z M80.425054,45.7222916 L80.2895933,45.7851345 L81.2869883,49.3538475 C81.3022458,49.4075795 81.349229,49.4435068 81.4015461,49.4465021 L81.4413716,49.4423375 L85.0710486,48.4495075 C84.7785316,46.8730285 84.2162611,45.870948 83.3949928,45.4715808 C82.4474758,45.0106534 81.1805563,45.3838286 80.425054,45.7222916 Z M87.5508299,35.71648 L87.3687405,35.729863 L80.8467409,36.4680466 L78.7654173,40.3317419 L79.6529128,43.5071452 C80.7390666,43.0500212 82.6454688,42.5110986 84.3837878,43.3480557 C85.805404,44.0325603 86.7648453,45.4393393 87.2471722,47.5325965 L87.3128288,47.8362993 L90.7091226,46.9071895 L92.7803394,43.0629813 L89.8638392,37.1088654 C89.426466,36.2210169 88.5187451,35.6813266 87.5508299,35.71648 Z M98.4795402,3.74956613 L98.3883945,3.90696824 L96.4948344,7.42186881 L102.343041,10.6537376 C102.612903,10.8028469 102.813218,11.0544409 102.899909,11.3531577 C102.974215,11.6092008 102.959823,11.8818821 102.86145,12.1266704 L102.805287,12.246534 L90.784738,34.5590669 C91.1965138,34.9184151 91.5440699,35.34599 91.8129155,35.8229086 L91.940712,36.0653925 L94.1359223,40.5470386 L107.318194,16.0778761 L104.784546,14.6776728 C104.228056,14.364499 104.025122,13.6553375 104.330016,13.0892976 C104.614583,12.5609937 105.242096,12.3419571 105.780777,12.5626103 L105.894692,12.6166706 L108.42834,14.0169678 L110.322016,10.5019029 C111.073269,9.10344705 110.611863,7.36600906 109.297972,6.53056602 L109.142606,6.43824229 L102.40097,2.712412 C101.020162,1.9510731 99.3043443,2.41845494 98.4795402,3.74956613 Z M95.3845263,9.48280058 L82.202231,33.9521274 L87.1111337,33.3964647 C87.5587767,33.3455524 88.0108454,33.3599441 88.4535826,33.4388061 L88.7179951,33.493853 L100.215241,12.1525501 L95.3845263,9.48280058 Z M84.9300869,23.9871302 L7.30756967,23.9871302 C4.62556708,23.9906465 2.43919392,26.134701 2.32386888,28.8229013 L2.31908776,29.0420244 L2.31908776,31.8382989 L80.7004013,31.8382989 L84.9300869,23.9871302 Z M105.608063,24.1533806 L101.467994,31.8382989 L109.348914,31.8382989 L109.348914,29.0420244 C109.346012,26.7399978 107.808319,24.7304998 105.608063,24.1533806 Z" id="Combined-Shape" fill="#A0ACFB"></path>
                        </g>
                        <path d="M181.09161,62.3244605 C180.881869,62.5304213 180.763894,62.8107839 180.763894,63.103258 C180.763894,63.3957321 180.881869,63.6760947 181.09161,63.8820555 L186.187969,68.9277855 L160.107904,68.9277855 C159.496026,68.9277855 159,69.4188833 159,70.0246833 C159,70.6304832 159.496026,71.1215811 160.107904,71.1215811 L186.165811,71.1215811 L181.09161,76.1344042 C180.662049,76.5622354 180.662049,77.2531989 181.09161,77.6810301 C181.523734,78.1063233 182.221631,78.1063233 182.653755,77.6810301 L189.700025,70.7047599 C189.891662,70.5227239 190,70.2711662 190,70.0082298 C190,69.7452934 189.891662,69.4937358 189.700025,69.3116997 L182.664834,62.3244605 C182.456806,62.1168039 182.173631,62 181.878222,62 C181.582813,62 181.299637,62.1168039 181.09161,62.3244605 Z" id="Path" fill="#A0ACFB"></path>
                        <g id="Sheet" transform="translate(0.000000, 22.333340)">
                            <polygon id="Path" fill="#A0ACFB" points="1.33333 -2.13162821e-14 126.667 -2.13162821e-14 126.667 93.33336 1.33333 93.33336"></polygon>
                            <polygon id="Path" fill="#FFFFFF" points="2.66667 1.33332 125.333 1.33332 125.333 91.99996 2.66667 91.99996"></polygon>
                            <polygon id="Path" fill="#EEF0FF" points="125.333 13.33336 2.66667 13.33336 2.66667 1.33332 125.333 1.33332"></polygon>
                            <polygon id="Path" fill="#A0ACFB" points="2.66667 13.33336 125.333 13.33336 125.333 11.99996 2.66667 11.99996"></polygon>
                            <polygon id="Path" fill="#A0ACFB" points="40 91.99996 41.3333 91.99996 41.3333 1.33332 40 1.33332"></polygon>
                            <polygon id="Path" fill="#A0ACFB" points="86.6667 91.99996 88 91.99996 88 1.33332 86.6667 1.33332"></polygon>
                            <polygon id="Path" fill="#A0ACFB" points="2.66667 26.66666 125.333 26.66666 125.333 25.33336 2.66667 25.33336"></polygon>
                            <polygon id="Path" fill="#3549CC" points="2.66667 39.99996 125.333 39.99996 125.333 38.66666 2.66667 38.66666"></polygon>
                            <polygon id="Path" fill="#3549CC" points="2.66667 53.33336 125.333 53.33336 125.333 51.99996 2.66667 51.99996"></polygon>
                            <polygon id="Path" fill="#A0ACFB" points="2.66667 66.66666 125.333 66.66666 125.333 65.33196 2.66667 65.33196"></polygon>
                            <polygon id="Path" fill="#A0ACFB" points="2.66667 79.99996 125.333 79.99996 125.333 78.66666 2.66667 78.66666"></polygon>
                            <path d="M128,38.66666 L0,38.66666 L0,54.66666 L128,54.66666 M124,50.66666 L4,50.66666 L4,42.66666 L124,42.66666 L124,50.66666 Z" id="Shape" fill="#A0ACFB"></path>
                        </g>
                    </g>
                </g>
            </g>
        </g>
    </g>
</svg>