<?xml version="1.0" encoding="UTF-8"?>
<svg width="38px" height="48px" viewBox="0 0 38 48" version="1.1" xmlns="http://www.w3.org/2000/svg" xmlns:xlink="http://www.w3.org/1999/xlink">
    <title>Combined Shape</title>
    <g id="Icons" stroke="none" stroke-width="1" fill="none" fill-rule="evenodd">
        <g id="Artboard" transform="translate(-5.000000, 0.000000)" fill="#000000" fill-rule="nonzero">
            <path d="M23.9473684,0 C34.411711,0 42.8947368,8.48302579 42.8947368,18.9473684 C42.8947368,25.0812798 39.979983,30.534414 35.4599713,33.997275 L40.4186821,42.2627364 C41.1199402,43.4330318 41.1379774,44.8899485 40.4659073,46.0772462 C39.8358416,47.1903378 38.6904293,47.9053554 37.4247316,47.9912729 L37.1701053,48 L10.7236337,48 C9.35931959,47.9989218 8.10089964,47.2645439 7.42882953,46.0772462 C6.80156409,44.9691017 6.77545883,43.6260891 7.345153,42.500055 L7.47634774,42.2622477 L12.4337666,33.9965096 C7.91432441,30.5336106 5,25.080828 5,18.9473684 C5,8.48302579 13.4830258,0 23.9473684,0 Z M33.3547729,35.3980785 C30.5828976,36.9866069 27.3711856,37.8947368 23.9473684,37.8947368 C20.5235512,37.8947368 17.3118392,36.9866069 14.5399639,35.3980785 L9.64310315,43.5612636 C9.40935046,43.951362 9.40333805,44.4370009 9.62736142,44.8327668 C9.8264933,45.1845587 10.1800548,45.4170631 10.5748652,45.4646397 L10.7246316,45.4736842 L37.1691074,45.4736846 C37.6238787,45.4733253 38.0433521,45.2285327 38.2673754,44.8327668 C38.4633959,44.4864716 38.4832952,44.0713675 38.3288074,43.7119942 L38.2519267,43.5617523 Z M23.9473684,2.52631579 C14.8782715,2.52631579 7.52631579,9.87827148 7.52631579,18.9473684 C7.52631579,28.0164654 14.8782715,35.3684211 23.9473684,35.3684211 C33.0164654,35.3684211 40.3684211,28.0164654 40.3684211,18.9473684 C40.3684211,9.87827148 33.0164654,2.52631579 23.9473684,2.52631579 Z M23.9473684,10.1052632 C28.8307283,10.1052632 32.7894737,14.0640085 32.7894737,18.9473684 C32.7894737,23.8307283 28.8307283,27.7894737 23.9473684,27.7894737 C19.0640085,27.7894737 15.1052632,23.8307283 15.1052632,18.9473684 C15.1052632,14.0640085 19.0640085,10.1052632 23.9473684,10.1052632 Z M23.9473684,12.6315789 C20.4592542,12.6315789 17.6315789,15.4592542 17.6315789,18.9473684 C17.6315789,22.4354826 20.4592542,25.2631579 23.9473684,25.2631579 C27.4354826,25.2631579 30.2631579,22.4354826 30.2631579,18.9473684 C30.2631579,15.4592542 27.4354826,12.6315789 23.9473684,12.6315789 Z" id="Combined-Shape"></path>
        </g>
    </g>
</svg>